<svg width="16" height="16" viewBox="0 0 16 16" fill="none" xmlns="http://www.w3.org/2000/svg">
<path d="M8.72307 4.92867C8.44993 4.84083 8.2004 4.69803 7.97917 4.50363V3.5445H8.72656V2.7971H7.97917V1.99988H7.23177V2.7971H6.48438V3.5445H7.23177V4.50363C7.01054 4.69803 6.76101 4.8408 6.48786 4.92867C5.59174 5.21717 4.98958 6.02535 4.98958 6.93942C4.98958 7.32956 5.09522 7.70375 5.29328 8.02887H9.91766C10.1157 7.70375 10.2214 7.32956 10.2214 6.93942C10.2214 6.02535 9.6192 5.21717 8.72307 4.92867ZM2 12.8869V14.7554H3.49479V12.5132H4.24219V14.7554H4.98958V11.3931C4.67692 11.158 4.28878 11.0185 3.86849 11.0185C2.83833 11.0185 2 11.8565 2 12.8869ZM7.60547 9.52366C6.57531 9.52366 5.73698 10.3617 5.73698 11.3922V14.7554H7.23177V12.5132H7.97917V14.7554H9.47396V11.3922C9.47396 10.3617 8.63563 9.52366 7.60547 9.52366ZM7.97917 11.7659H7.23177V11.0185H7.97917V11.7659ZM11.3424 11.0185C10.9222 11.0185 10.534 11.158 10.2214 11.3931V14.7554H10.9688V12.5132H11.7161V14.7554H13.2109V12.8869C13.2109 11.8565 12.3726 11.0185 11.3424 11.0185ZM10.2214 10.5229C10.5689 10.3573 10.9491 10.2711 11.3424 10.2711C11.7436 10.2711 12.1237 10.3617 12.4635 10.5239V9.89736H10.2214V10.5229ZM2.7474 10.5239C3.08721 10.3617 3.46739 10.2711 3.86849 10.2711C4.26187 10.2711 4.64204 10.3573 4.98958 10.5229V9.89736H2.7474V10.5239ZM5.73698 9.56352C6.21182 9.07797 6.87402 8.77627 7.60547 8.77627H5.73698V9.56352ZM9.47396 9.56352V8.77627H7.60547C8.33692 8.77627 8.99911 9.07797 9.47396 9.56352ZM12.4488 9.14996C12.3875 8.53663 12.1333 7.96499 11.7161 7.50569V6.53408H10.9688V7.50569C10.5516 7.96497 10.2974 8.53663 10.2361 9.14996H12.4488ZM4.97488 9.14996C4.91352 8.53663 4.65933 7.96499 4.24219 7.50569V6.53408H3.49479V7.50569C3.07765 7.96497 2.82346 8.53663 2.76209 9.14996H4.97488Z" fill="black"/>
</svg>
