<svg width="16" height="16" viewBox="0 0 16 16" fill="none" xmlns="http://www.w3.org/2000/svg">
<path d="M12.6726 12.9326H12.3016V10.6021C12.6458 10.47 12.8909 10.1362 12.8909 9.74606C12.8909 9.24059 12.4796 8.82937 11.9742 8.82937C11.4687 8.82937 11.0575 9.24059 11.0575 9.74606C11.0575 9.77967 11.0594 9.81282 11.063 9.84552C10.7923 9.9864 10.4379 10.1171 10.0535 10.1171C9.67132 10.1171 9.31598 9.98557 9.0442 9.84408C9.04765 9.81186 9.0495 9.77917 9.0495 9.74606C9.0495 9.24059 8.63828 8.82937 8.13281 8.82937C7.62735 8.82937 7.21612 9.24059 7.21612 9.74606C7.21612 9.77967 7.21807 9.81282 7.2216 9.84552C6.95094 9.9864 6.59648 10.1171 6.21213 10.1171C5.82991 10.1171 5.47456 9.98553 5.20283 9.84408C5.20628 9.81186 5.20813 9.77917 5.20813 9.74606C5.20813 9.24059 4.79691 8.82937 4.29144 8.82937C3.78598 8.82937 3.37475 9.24059 3.37475 9.74606C3.37475 10.1362 3.61984 10.47 3.96406 10.6021V12.9326H3.59301C3.41221 12.9326 3.26562 13.0792 3.26562 13.26C3.26562 13.4408 3.41221 13.5874 3.59301 13.5874H12.6726C12.8534 13.5874 13 13.4408 13 13.26C13 13.0792 12.8534 12.9326 12.6726 12.9326ZM11.3615 10.4272C11.4451 10.5025 11.5418 10.5618 11.6468 10.6021V12.9326H8.4602V10.6021C8.5652 10.5618 8.6619 10.5025 8.74549 10.4272C9.0908 10.6062 9.54722 10.7719 10.0535 10.7719C10.5598 10.7719 11.0162 10.6062 11.3615 10.4272ZM4.61883 10.6021C4.72383 10.5618 4.82053 10.5025 4.90412 10.4272C5.24945 10.6062 5.70585 10.7719 6.21213 10.7719C6.7184 10.7719 7.17481 10.6062 7.52014 10.4272C7.60372 10.5025 7.70042 10.5618 7.80542 10.6021V12.9326H4.61883V10.6021ZM9.12358 5.6732C9.14846 5.64832 9.17719 5.62761 9.20866 5.61187L9.75797 5.33721L9.90517 4.45403C9.91638 4.38672 9.94835 4.32459 9.9966 4.27634L10.695 3.57791C10.7436 3.52932 10.8063 3.49726 10.8741 3.48625C10.9419 3.47524 11.0115 3.48585 11.0729 3.51658L11.9524 3.95626V2.73993C11.9524 2.55912 11.8058 2.41254 11.625 2.41254H4.64066C4.45985 2.41254 4.31327 2.55912 4.31327 2.73993V6.10112H8.69564L9.12358 5.6732ZM5.99387 4.26779C5.81306 4.26779 5.66648 4.1212 5.66648 3.9404C5.66648 3.75959 5.81306 3.61301 5.99387 3.61301C6.17468 3.61301 6.32126 3.75959 6.32126 3.9404C6.32126 4.12122 6.17468 4.26779 5.99387 4.26779Z" fill="black"/>
<path d="M10.534 4.66513L10.3766 5.60927C10.3681 5.66021 10.3477 5.70842 10.317 5.74996C10.2864 5.7915 10.2463 5.82519 10.2001 5.84829L9.5492 6.17374L9.12293 6.60002L8.72919 7.97815H11.6252C11.806 7.97815 11.9526 7.83157 11.9526 7.65076V4.68835L10.9914 4.20776L10.534 4.66513ZM4.64087 7.97815H8.0482L8.39742 6.7559H4.31348V7.65076C4.31348 7.83157 4.46006 7.97815 4.64087 7.97815Z" fill="black"/>
</svg>
