<svg width="16" height="16" viewBox="0 0 16 16" fill="none" xmlns="http://www.w3.org/2000/svg">
<path d="M4.83594 11.1875C6.38675 11.1875 7.64844 9.74471 7.64844 8C7.64844 6.62488 6.86382 5.82699 6.82372 5.75605C6.8439 5.64453 6.94531 5.30497 6.94531 4.83594C6.94531 3.28513 5.99912 2 4.83594 2C3.67276 2 2.70312 3.28513 2.70312 4.83594C2.70312 5.30441 2.80512 5.64793 2.82472 5.75605C2.78497 5.82636 2 6.5997 2 8C2 9.74471 3.28513 11.1875 4.83594 11.1875ZM2.35156 14H13.6484C13.8427 14 14 13.8427 14 13.6484C14 13.4541 13.8427 13.2969 13.6484 13.2969H13.2969V12.5938H13.6484C13.8427 12.5938 14 12.4365 14 12.2422C14 12.0479 13.8427 11.8906 13.6484 11.8906H13.2969V10.8359C13.2969 10.6416 13.1396 10.4844 12.9453 10.4844H10.8125C10.6182 10.4844 10.4609 10.6416 10.4609 10.8359V11.8906H10.1094C9.91508 11.8906 9.75781 12.0479 9.75781 12.2422C9.75781 12.4365 9.91508 12.5938 10.1094 12.5938H10.4609V13.2969H9.05469V11.8127C8.8239 11.8645 8.58809 11.8906 8.35156 11.8906C8.11445 11.8906 7.87988 11.8608 7.64844 11.8071V13.2969H5.53906V11.8127C5.07607 11.9166 4.59581 11.9166 4.13281 11.8127V13.2969H2.35156C2.15727 13.2969 2 13.4541 2 13.6484C2 13.8427 2.15727 14 2.35156 14ZM11.1641 12.5938H12.5938V13.2969H11.1641V12.5938Z" fill="black"/>
<path d="M7.57806 5.58887C8.21427 6.49175 8.35159 7.38477 8.35159 8C8.35159 9.13911 7.89888 10.185 7.18403 10.8934C7.5407 11.0778 7.93394 11.1875 8.35159 11.1875C9.90241 11.1875 11.1641 9.74471 11.1641 8C11.1641 6.5997 10.3791 5.82636 10.3394 5.75605C10.359 5.64793 10.461 5.30441 10.461 4.83594C10.461 3.28513 9.51477 2 8.35159 2C7.84851 2 7.3922 2.24572 7.0293 2.63914C7.41079 3.23926 7.64847 4.01169 7.64847 4.83594C7.64847 5.13945 7.6135 5.39797 7.57806 5.58887Z" fill="black"/>
</svg>
