<svg width="16" height="16" viewBox="0 0 16 16" fill="none" xmlns="http://www.w3.org/2000/svg">
<path d="M10.1972 3.23511H3.41908C3.30944 3.23511 3.21973 3.32482 3.21973 3.43446V13.0035C3.21973 13.1132 3.30944 13.2029 3.41908 13.2029H10.1972C10.3068 13.2029 10.3965 13.1132 10.3965 13.0035V3.43446C10.3965 3.32482 10.3068 3.23511 10.1972 3.23511ZM8.40297 8.41835V8.81706H8.00426V8.41835H8.40297ZM7.91455 9.77995C7.97037 9.74407 8.00426 9.68027 8.00426 9.61449V9.21577H8.40297V9.61449C8.40297 9.68027 8.43686 9.74407 8.49268 9.77995C8.77776 9.97133 8.95718 10.2744 8.99306 10.6113H7.41417C7.4314 10.4445 7.48517 10.2835 7.57165 10.1398C7.65814 9.99613 7.77521 9.87326 7.91455 9.77995ZM5.61199 8.41835V8.81706H5.21328V8.41835H5.61199ZM5.12357 9.77995C5.17939 9.74407 5.21328 9.68027 5.21328 9.61449V9.21577H5.61199V9.61449C5.61199 9.68027 5.64588 9.74407 5.7017 9.77995C5.98678 9.97133 6.1662 10.2744 6.20209 10.6113H4.62319C4.64042 10.4445 4.69419 10.2835 4.78068 10.1398C4.86716 9.99613 4.98423 9.87326 5.12357 9.77995ZM7.40619 6.22544V5.42802H9.00104V6.22544H7.40619ZM8.9811 6.62415C8.96117 6.76171 8.92528 6.89528 8.87345 7.02286H7.53378C7.48195 6.89528 7.44606 6.76171 7.42613 6.62415H8.9811ZM7.42613 5.02931C7.44606 4.89175 7.48195 4.75818 7.53378 4.6306H8.87345C8.92528 4.75818 8.96117 4.89175 8.9811 5.02931H7.42613ZM4.61522 6.22544V5.42802H6.21006V6.22544H4.61522ZM6.19012 6.62415C6.17019 6.76171 6.1343 6.89528 6.08247 7.02286H4.7428C4.69097 6.89528 4.65509 6.76171 4.63515 6.62415H6.19012ZM4.63515 5.02931C4.65509 4.89175 4.69097 4.75818 4.7428 4.6306H6.08247C6.1343 4.75818 6.17019 4.89175 6.19012 5.02931H4.63515ZM6.21006 12.8042H4.61522V12.0068H6.21006V12.8042ZM6.21006 11.608H4.61522V11.01H6.21006V11.608ZM9.00104 12.8042H7.40619V12.0068H9.00104V12.8042ZM9.00104 11.608H7.40619V11.01H9.00104V11.608Z" fill="black"/>
<path d="M12.5895 2.4375H11.9914C11.8818 2.4375 11.7921 2.52721 11.7921 2.63686V3.83299H11.194V3.43428C11.194 2.88406 10.7475 2.4375 10.1972 2.4375H3.41914C2.86892 2.4375 2.42236 2.88406 2.42236 3.43428V13.0033C2.42236 13.5536 2.86892 14.0001 3.41914 14.0001H10.1972C10.7475 14.0001 11.194 13.5536 11.194 13.0033V12.6046H11.7921V13.8008C11.7921 13.9104 11.8818 14.0001 11.9914 14.0001H12.5895C13.1397 14.0001 13.5863 13.5536 13.5863 13.0033V3.43428C13.5863 2.88406 13.1397 2.4375 12.5895 2.4375ZM10.7953 13.0033C10.7953 13.3323 10.5262 13.6014 10.1972 13.6014H3.41914C3.0902 13.6014 2.82107 13.3323 2.82107 13.0033V3.43428C2.82107 3.10534 3.0902 2.83621 3.41914 2.83621H10.1972C10.5262 2.83621 10.7953 3.10534 10.7953 3.43428V13.0033ZM11.7921 10.2124H11.194V6.22526H11.7921V10.2124ZM13.1876 13.0033C13.1876 13.3323 12.9184 13.6014 12.5895 13.6014H12.1908V2.83621H12.5895C12.9184 2.83621 13.1876 3.10534 13.1876 3.43428V13.0033Z" fill="black"/>
</svg>
