<svg width="16" height="16" viewBox="0 0 16 16" fill="none" xmlns="http://www.w3.org/2000/svg">
<path d="M7.61391 9.23254C7.44051 9.1343 4.65949 8.16164 2.82373 8.3058L3.60836 11.7965C3.67378 12.0821 3.83439 12.337 4.0638 12.5192C4.29321 12.7015 4.57779 12.8003 4.87078 12.7994H11.9428C12.2353 12.7973 12.5187 12.6972 12.7476 12.515C12.9765 12.3328 13.1376 12.0791 13.2052 11.7944L13.753 9.33139C12.8379 9.69634 11.8612 9.88163 10.876 9.87713C9.75773 9.86981 8.65092 9.65111 7.61391 9.23254ZM5.99213 13.2113H4.85431C4.87593 13.3468 4.94514 13.4701 5.0495 13.5591C5.15387 13.6481 5.28655 13.6971 5.42373 13.6971C5.56091 13.6971 5.6936 13.6481 5.79796 13.5591C5.90233 13.4701 5.97154 13.3468 5.99316 13.2113H5.99213ZM11.9006 13.2113H10.7597C10.7799 13.3482 10.8486 13.4732 10.9533 13.5636C11.058 13.654 11.1918 13.7038 11.3301 13.7038C11.4685 13.7038 11.6022 13.654 11.7069 13.5636C11.8116 13.4732 11.8804 13.3482 11.9006 13.2113Z" fill="black"/>
<path d="M2.75483 7.89814C4.83195 7.75275 7.51577 8.73858 7.76331 8.84959C9.902 9.76664 12.7586 9.62578 14.4399 8.52214H14.442C14.5207 8.469 14.5881 8.40088 14.6405 8.32166C14.6929 8.24245 14.7291 8.15369 14.7472 8.06047C14.7653 7.96724 14.7648 7.87137 14.7458 7.77832C14.7268 7.68528 14.6897 7.59688 14.6366 7.51818C14.5834 7.43948 14.5153 7.37202 14.4361 7.31965C14.3569 7.26727 14.2681 7.23102 14.1749 7.21295C14.0817 7.19487 13.9858 7.19534 13.8928 7.21432C13.7997 7.2333 13.7113 7.27042 13.6326 7.32357C13.612 7.33798 11.4455 8.74868 8.30493 7.51097C8.19723 7.46464 5.86701 6.51216 3.46327 6.44338V3.55073C3.46354 3.24877 3.58362 2.95926 3.79713 2.74574C4.01065 2.53223 4.30016 2.41215 4.60212 2.41188H5.02224C5.30352 2.41222 5.57474 2.51649 5.78381 2.70465C5.99289 2.89282 6.12505 3.1516 6.15491 3.43129C5.86491 3.4818 5.60203 3.63301 5.41255 3.85828C5.22306 4.08355 5.11913 4.36845 5.11903 4.66281C5.11903 4.71743 5.14073 4.76981 5.17935 4.80843C5.21797 4.84706 5.27035 4.86875 5.32497 4.86875H7.41115C7.46577 4.86875 7.51815 4.84706 7.55677 4.80843C7.5954 4.76981 7.61709 4.71743 7.61709 4.66281C7.61708 4.36595 7.51138 4.07879 7.31893 3.85276C7.12649 3.62672 6.85986 3.47659 6.56679 3.42923C6.5361 3.04048 6.36012 2.67754 6.07389 2.41269C5.78767 2.14784 5.4122 2.0005 5.02224 2H4.60212C4.19103 2.0006 3.79694 2.16417 3.50625 2.45486C3.21556 2.74555 3.05199 3.13964 3.05139 3.55073V6.4409C2.92494 6.44296 2.79849 6.44688 2.67246 6.4545C2.48279 6.4678 2.306 6.55528 2.18036 6.69799C2.05472 6.8407 1.99034 7.02715 2.00118 7.21697C2.01201 7.4068 2.09717 7.58472 2.23823 7.71221C2.37929 7.8397 2.56488 7.9065 2.75483 7.89814Z" fill="black"/>
</svg>
