<svg width="16" height="16" viewBox="0 0 16 16" fill="none" xmlns="http://www.w3.org/2000/svg">
<path d="M13.9418 4H2.62851C2.28201 4 2 4.28198 2 4.62851V8.81864C2 9.16516 2.28201 9.44715 2.62851 9.44715H13.9418C14.2884 9.44715 14.5704 9.16514 14.5704 8.81864V4.62851C14.5704 4.28198 14.2884 4 13.9418 4ZM7.44717 5.46654H9.12323C9.2391 5.46654 9.33273 5.56019 9.33273 5.67604C9.33273 5.79188 9.23907 5.88553 9.12323 5.88553H7.44717C7.3313 5.88553 7.23768 5.79188 7.23768 5.67604C7.23768 5.56019 7.3313 5.46654 7.44717 5.46654ZM13.5228 8.60912H3.04753C3.02001 8.60914 2.99275 8.60374 2.96732 8.59322C2.94189 8.5827 2.91879 8.56727 2.89933 8.54781C2.87987 8.52836 2.86444 8.50525 2.85392 8.47982C2.8434 8.45439 2.838 8.42714 2.83803 8.39962C2.838 8.3721 2.8434 8.34485 2.85392 8.31942C2.86444 8.29399 2.87987 8.27089 2.89933 8.25143C2.91879 8.23197 2.94189 8.21654 2.96732 8.20602C2.99275 8.1955 3.02001 8.1901 3.04753 8.19013H13.5228C13.5503 8.1901 13.5776 8.1955 13.603 8.20602C13.6285 8.21654 13.6516 8.23197 13.671 8.25143C13.6905 8.27089 13.7059 8.29399 13.7164 8.31942C13.7269 8.34485 13.7323 8.3721 13.7323 8.39962C13.7324 8.42714 13.727 8.4544 13.7164 8.47983C13.7059 8.50526 13.6905 8.52836 13.671 8.54782C13.6516 8.56728 13.6285 8.58271 13.603 8.59323C13.5776 8.60375 13.5503 8.60915 13.5228 8.60912ZM13.5228 7.77111H3.04753C3.02001 7.77114 2.99275 7.76574 2.96732 7.75522C2.94189 7.7447 2.91879 7.72927 2.89933 7.70981C2.87987 7.69035 2.86444 7.66725 2.85392 7.64182C2.8434 7.61639 2.838 7.58913 2.83803 7.56162C2.838 7.5341 2.8434 7.50684 2.85392 7.48141C2.86444 7.45599 2.87987 7.43288 2.89933 7.41342C2.91879 7.39396 2.94189 7.37853 2.96732 7.36801C2.99275 7.3575 3.02001 7.35209 3.04753 7.35212H13.5228C13.5503 7.35209 13.5776 7.3575 13.603 7.36801C13.6285 7.37853 13.6516 7.39396 13.671 7.41342C13.6905 7.43288 13.7059 7.45599 13.7164 7.48141C13.7269 7.50684 13.7323 7.5341 13.7323 7.56162C13.7324 7.58914 13.727 7.61639 13.7164 7.64182C13.7059 7.66725 13.6905 7.69036 13.671 7.70982C13.6516 7.72928 13.6285 7.74471 13.603 7.75522C13.5776 7.76574 13.5503 7.77114 13.5228 7.77111ZM8.38152 10.9372C8.19003 10.8379 8.07566 10.7118 8.07566 10.5995C8.07566 10.4872 8.19005 10.3609 8.38152 10.2616C8.48419 10.2083 8.5244 10.082 8.47118 9.97936C8.41797 9.87669 8.29142 9.83626 8.18878 9.8897C7.84562 10.0676 7.65664 10.3196 7.65664 10.5995C7.65664 10.8794 7.84562 11.1314 8.18878 11.3091C8.38028 11.4084 8.49465 11.5348 8.49465 11.6471C8.49465 11.7594 8.38025 11.8855 8.18878 11.9848C8.13945 12.0103 8.10229 12.0545 8.08547 12.1074C8.06866 12.1604 8.07357 12.2178 8.09912 12.2672C8.11681 12.3013 8.14354 12.3299 8.17639 12.3499C8.20924 12.3698 8.24694 12.3803 8.28538 12.3803C8.31888 12.3803 8.35188 12.3722 8.38155 12.3566C8.72471 12.179 8.91369 11.9269 8.91369 11.647C8.91369 11.3671 8.72471 11.1151 8.38152 10.9372ZM6.07698 11.3562C5.88548 11.2569 5.77111 11.1308 5.77111 11.0185C5.77111 10.9062 5.88551 10.7799 6.07698 10.6806C6.17964 10.6274 6.21985 10.501 6.16664 10.3984C6.11342 10.2957 5.98667 10.2551 5.88423 10.3087C5.54107 10.4866 5.3521 10.7386 5.3521 11.0185C5.3521 11.2984 5.54107 11.5505 5.88423 11.7281C6.07573 11.8274 6.1901 11.9538 6.1901 12.0661C6.1901 12.1784 6.07571 12.3045 5.88423 12.4038C5.8349 12.4294 5.79774 12.4735 5.78093 12.5264C5.76411 12.5794 5.76902 12.6369 5.79457 12.6862C5.81226 12.7203 5.839 12.7489 5.87184 12.7689C5.90469 12.7888 5.9424 12.7993 5.98083 12.7993C6.01433 12.7993 6.04734 12.7912 6.077 12.7757C6.42016 12.598 6.60914 12.346 6.60914 12.066C6.60914 11.7861 6.42014 11.5341 6.07698 11.3562ZM10.6861 11.3562C10.4946 11.2569 10.3802 11.1308 10.3802 11.0185C10.3802 10.9062 10.4946 10.7799 10.6861 10.6806C10.7888 10.6274 10.829 10.501 10.7758 10.3984C10.7225 10.2957 10.5958 10.2551 10.4933 10.3087C10.1502 10.4866 9.96121 10.7386 9.96121 11.0185C9.96121 11.2984 10.1502 11.5505 10.4933 11.7281C10.6848 11.8274 10.7992 11.9538 10.7992 12.0661C10.7992 12.1784 10.6848 12.3045 10.4933 12.4038C10.444 12.4294 10.4069 12.4735 10.39 12.5264C10.3732 12.5794 10.3781 12.6369 10.4037 12.6862C10.4214 12.7203 10.4481 12.7489 10.481 12.7689C10.5138 12.7888 10.5515 12.7993 10.5899 12.7993C10.6234 12.7993 10.6565 12.7912 10.6861 12.7757C11.0293 12.598 11.2183 12.346 11.2183 12.066C11.2183 11.7861 11.0293 11.5341 10.6861 11.3562Z" fill="black"/>
</svg>
