<svg width="16" height="16" viewBox="0 0 16 16" fill="none" xmlns="http://www.w3.org/2000/svg">
<path d="M6.94826 7.73998C6.94791 7.86249 6.90969 7.98189 6.83881 8.08182C6.76794 8.18175 6.6679 8.25731 6.5524 8.29814V7.65685C6.68303 7.61924 6.81564 7.57966 6.94826 7.53809V7.73998ZM5.56275 10.9069C5.72008 10.9064 5.87084 10.8437 5.9821 10.7324C6.09336 10.6212 6.15607 10.4704 6.15654 10.3131V7.75977C5.70342 7.87399 5.2383 7.93379 4.77102 7.93791C4.34209 7.93888 3.91758 7.85128 3.52406 7.6806L4.1139 10.4378C4.14206 10.571 4.21534 10.6904 4.32135 10.7759C4.42737 10.8614 4.55964 10.9076 4.69581 10.9069H5.56275ZM5.36482 11.6986C5.46971 11.6983 5.57021 11.6565 5.64439 11.5823C5.71856 11.5081 5.76036 11.4076 5.76068 11.3027V11.2829C5.69559 11.2966 5.62924 11.3032 5.56275 11.3027H4.69581C4.65477 11.3031 4.61375 11.3005 4.57309 11.2948V11.3027C4.57341 11.4076 4.61521 11.5081 4.68939 11.5823C4.76356 11.6565 4.86406 11.6983 4.96895 11.6986H5.36482ZM8.72963 10.1151C8.3623 10.1156 8.01013 10.2617 7.75039 10.5214C7.49065 10.7812 7.34454 11.1333 7.34412 11.5007V12.4903C7.34412 12.7528 7.23985 13.0045 7.05426 13.1901C6.86866 13.3757 6.61694 13.48 6.35447 13.48C6.092 13.48 5.84027 13.3757 5.65468 13.1901C5.46908 13.0045 5.36482 12.7528 5.36482 12.4903V12.0944H4.96895V12.4903C4.96895 12.8578 5.11493 13.2102 5.37476 13.47C5.6346 13.7298 5.98701 13.8758 6.35447 13.8758C6.72193 13.8758 7.07434 13.7298 7.33417 13.47C7.59401 13.2102 7.73998 12.8578 7.73998 12.4903V11.5007C7.73998 11.2382 7.84425 10.9865 8.02984 10.8009C8.21544 10.6153 8.46716 10.511 8.72963 10.511C8.9921 10.511 9.24382 10.6153 9.42942 10.8009C9.61502 10.9865 9.71928 11.2382 9.71928 11.5007V13.6779C9.71928 13.7304 9.74014 13.7807 9.77726 13.8178C9.81437 13.855 9.86472 13.8758 9.91721 13.8758C9.96971 13.8758 10.0201 13.855 10.0572 13.8178C10.0943 13.7807 10.1151 13.7304 10.1151 13.6779V11.5007C10.1147 11.1333 9.96862 10.7812 9.70887 10.5214C9.44913 10.2617 9.09696 10.1156 8.72963 10.1151ZM12.2344 4.5151C12.3743 4.37516 12.4442 4.37516 12.4903 4.37516C12.5364 4.37516 12.6063 4.37516 12.7462 4.5151C12.8108 4.59502 12.8924 4.65949 12.9851 4.70377C13.0778 4.74806 13.1793 4.77104 13.282 4.77104C13.3848 4.77104 13.4862 4.74806 13.5789 4.70377C13.6716 4.65949 13.7533 4.59502 13.8178 4.5151C13.8367 4.49684 13.8518 4.475 13.8622 4.45085C13.8726 4.4267 13.878 4.40073 13.8782 4.37445C13.8785 4.34817 13.8735 4.32211 13.8635 4.29778C13.8536 4.27346 13.8389 4.25136 13.8203 4.23277C13.8017 4.21419 13.7796 4.19949 13.7553 4.18954C13.7309 4.17959 13.7049 4.17458 13.6786 4.17481C13.6523 4.17504 13.6263 4.1805 13.6022 4.19087C13.5781 4.20124 13.5562 4.21632 13.538 4.23523C13.398 4.37516 13.3281 4.37516 13.282 4.37516C13.2359 4.37516 13.166 4.37516 13.0261 4.23523C12.9615 4.15531 12.8799 4.09084 12.7872 4.04656C12.6945 4.00227 12.5931 3.97928 12.4903 3.97928C12.3876 3.97928 12.2861 4.00227 12.1934 4.04656C12.1007 4.09084 12.0191 4.15531 11.9545 4.23523C11.9185 4.27256 11.8985 4.32255 11.899 4.37445C11.8994 4.42635 11.9202 4.47599 11.9569 4.51269C11.9936 4.54939 12.0433 4.5702 12.0952 4.57065C12.1471 4.57111 12.1971 4.55116 12.2344 4.5151ZM13.538 5.22488C13.398 5.36482 13.3281 5.36482 13.282 5.36482C13.2359 5.36482 13.166 5.36482 13.0261 5.22488C12.9615 5.14496 12.8799 5.08049 12.7872 5.03621C12.6945 4.99192 12.5931 4.96894 12.4903 4.96894C12.3876 4.96894 12.2861 4.99192 12.1934 5.03621C12.1007 5.08049 12.0191 5.14496 11.9545 5.22488C11.9185 5.26221 11.8985 5.31221 11.899 5.3641C11.8994 5.416 11.9202 5.46564 11.9569 5.50234C11.9936 5.53904 12.0433 5.55986 12.0952 5.56031C12.1471 5.56076 12.1971 5.54081 12.2344 5.50475C12.3743 5.36482 12.4442 5.36482 12.4903 5.36482C12.5364 5.36482 12.6063 5.36482 12.7462 5.50475C12.8108 5.58467 12.8924 5.64914 12.9851 5.69342C13.0778 5.73771 13.1793 5.76069 13.282 5.76069C13.3848 5.76069 13.4862 5.73771 13.5789 5.69342C13.6716 5.64914 13.7533 5.58467 13.8178 5.50475C13.8367 5.48649 13.8518 5.46465 13.8622 5.4405C13.8726 5.41636 13.878 5.39038 13.8782 5.3641C13.8785 5.33782 13.8735 5.31176 13.8635 5.28743C13.8536 5.26311 13.8389 5.24101 13.8203 5.22243C13.8017 5.20384 13.7796 5.18914 13.7553 5.17919C13.7309 5.16924 13.7049 5.16423 13.6786 5.16446C13.6523 5.16469 13.6263 5.17015 13.6022 5.18052C13.5781 5.1909 13.5562 5.20597 13.538 5.22488ZM7.54343 2.61616C8.43917 2.94893 9.36752 3.18624 10.3131 3.32415V6.2179C9.36752 6.35587 8.43916 6.59325 7.54343 6.92609C6.60049 7.24278 5.71001 7.54205 4.77102 7.54205C4.0361 7.54205 3.33128 7.2501 2.81161 6.73043C2.29195 6.21077 2 5.50595 2 4.77102C2 4.0361 2.29195 3.33128 2.81161 2.81161C3.33128 2.29195 4.0361 2 4.77102 2C5.71001 2 6.60049 2.29947 7.54343 2.61616ZM5.56275 5.76068C5.56275 5.70818 5.54189 5.65784 5.50477 5.62072C5.46765 5.5836 5.41731 5.56275 5.36482 5.56275H3.78137C3.72888 5.56275 3.67853 5.5836 3.64141 5.62072C3.6043 5.65784 3.58344 5.70818 3.58344 5.76068C3.58344 5.81317 3.6043 5.86351 3.64141 5.90063C3.67853 5.93775 3.72888 5.95861 3.78137 5.95861H5.36482C5.41731 5.95861 5.46765 5.93775 5.50477 5.90063C5.54189 5.86351 5.56275 5.81317 5.56275 5.76068ZM5.56275 4.77102C5.56275 4.71853 5.54189 4.66819 5.50477 4.63107C5.46765 4.59395 5.41731 4.57309 5.36482 4.57309H3.78137C3.72888 4.57309 3.67853 4.59395 3.64141 4.63107C3.6043 4.66819 3.58344 4.71853 3.58344 4.77102C3.58344 4.82352 3.6043 4.87386 3.64141 4.91098C3.67853 4.9481 3.72888 4.96895 3.78137 4.96895H5.36482C5.41731 4.96895 5.46765 4.9481 5.50477 4.91098C5.54189 4.87386 5.56275 4.82352 5.56275 4.77102ZM5.56275 3.78137C5.56275 3.72888 5.54189 3.67853 5.50477 3.64141C5.46765 3.6043 5.41731 3.58344 5.36482 3.58344H3.78137C3.72888 3.58344 3.67853 3.6043 3.64141 3.64141C3.6043 3.67853 3.58344 3.72888 3.58344 3.78137C3.58344 3.83387 3.6043 3.88421 3.64141 3.92133C3.67853 3.95845 3.72888 3.9793 3.78137 3.9793H5.36482C5.41731 3.9793 5.46765 3.95845 5.50477 3.92133C5.54189 3.88421 5.56275 3.83387 5.56275 3.78137ZM11.3027 3.38551C11.1046 3.38507 10.9065 3.37741 10.7089 3.36255V6.1795C10.9065 6.16464 11.1046 6.15698 11.3027 6.15654C11.3552 6.15654 11.4056 6.13568 11.4427 6.09856C11.4798 6.06145 11.5007 6.0111 11.5007 5.95861V3.58344C11.5007 3.53095 11.4798 3.4806 11.4427 3.44348C11.4056 3.40637 11.3552 3.38551 11.3027 3.38551Z" fill="black"/>
</svg>
