<svg width="16" height="16" viewBox="0 0 16 16" fill="none" xmlns="http://www.w3.org/2000/svg">
<path d="M8.36479 6.20967C8.42015 6.19103 8.49038 6.10016 8.494 6.04253C8.5752 4.65238 7.4273 2.79915 7.01391 2.18042C6.68112 2.31307 6.3573 2.52748 6.05835 2.85423C6.05835 2.85423 5.46132 3.25488 5.24951 5.20158C6.36618 6.64774 7.75373 6.41125 8.36479 6.20967Z" fill="#1D1D20"/>
<path d="M12.7935 3.74209L10.9641 3.29556C10.9641 3.29556 10.912 2.85419 10.3932 2.67283C10.0151 2.54032 8.71231 1.79153 7.43046 2.056C7.9151 2.79368 8.99319 4.61199 8.90794 6.06638C8.89526 6.29506 8.71347 6.53131 8.49493 6.60354C8.28484 6.67345 7.9078 6.77022 7.44956 6.77022C6.78565 6.77022 5.95176 6.56603 5.20052 5.78104C5.18578 6.0305 5.17737 6.30031 5.17588 6.59225C5.16747 8.09804 3.25475 9.52575 3.25475 9.52575L3 10.0537C3.51996 11.1795 4.33507 12.1418 5.34702 12.8401C5.3929 12.121 5.57324 11.5576 5.78211 11.1342C6.1777 10.3301 6.73248 9.88378 7.01558 9.69493C7.07647 8.03524 7.61517 7.55019 8.06458 7.43929C8.13279 7.42235 8.20392 7.42085 8.27278 7.4349C8.34164 7.44894 8.4065 7.47818 8.46263 7.52049C8.59291 7.61772 8.67671 7.77821 8.68521 7.95051C8.70832 8.39662 8.97199 8.7098 9.09702 8.83418C9.29976 8.85305 9.4933 8.88517 9.6755 8.92932L9.69224 8.77283L9.83149 7.42065C9.8551 7.19244 10.0602 7.00006 10.2873 6.96752C11.1495 6.84193 13.0704 6.33122 13.1953 4.25587C13.2097 4.02696 13.0163 3.79675 12.7935 3.74209ZM9.94336 4.22417C9.81429 4.22417 9.70948 4.11982 9.70948 3.99061C9.70948 3.8614 9.81429 3.75705 9.94336 3.75705C9.97405 3.757 10.0045 3.76301 10.0328 3.77473C10.0612 3.78645 10.087 3.80365 10.1087 3.82535C10.1304 3.84704 10.1476 3.87281 10.1593 3.90117C10.171 3.92953 10.1771 3.95992 10.177 3.99061C10.1766 4.11959 10.0725 4.22417 9.94336 4.22417Z" fill="#1D1D20"/>
<path d="M10.9644 10.4034C10.8952 9.81498 10.0647 9.33015 8.99145 9.26127C8.99145 9.26127 8.42161 8.8232 8.38336 8.06703C8.37709 7.95255 8.29152 7.83877 8.18039 7.86619C7.89361 7.93675 7.40669 8.30491 7.38243 9.98635C7.38243 9.98635 5.82267 10.7732 5.70996 13.0419C6.70978 13.6426 7.87488 13.9949 9.11848 14.0154L9.10453 13.6904C9.09937 13.5759 9.18243 13.4504 9.28957 13.4103L10.6181 12.912C10.6181 12.912 11.2412 12.947 11.5004 12.4792C11.6316 12.2434 11.7533 12.0787 11.8431 11.9725C11.9164 11.8852 11.9153 11.7603 11.8332 11.6805C11.5617 11.4185 11.016 10.8431 10.9644 10.4034ZM10.1763 10.9729C10.1456 10.9729 10.1152 10.9669 10.0869 10.9552C10.0586 10.9435 10.0328 10.9263 10.0112 10.9046C9.98947 10.8829 9.97228 10.8572 9.96055 10.8288C9.94883 10.8005 9.94281 10.7702 9.94284 10.7395C9.94277 10.7088 9.94877 10.6784 9.96047 10.65C9.97217 10.6217 9.98936 10.5959 10.011 10.5741C10.0327 10.5524 10.0585 10.5352 10.0868 10.5234C10.1152 10.5117 10.1456 10.5056 10.1763 10.5056C10.207 10.5056 10.2374 10.5116 10.2658 10.5233C10.2942 10.5351 10.32 10.5523 10.3417 10.574C10.3635 10.5957 10.3807 10.6215 10.3924 10.6499C10.4042 10.6783 10.4102 10.7088 10.4101 10.7395C10.4102 10.7702 10.4041 10.8006 10.3924 10.8289C10.3806 10.8573 10.3634 10.8831 10.3416 10.9047C10.3199 10.9264 10.2941 10.9436 10.2657 10.9553C10.2374 10.967 10.2069 10.973 10.1763 10.9729Z" fill="#1D1D20"/>
</svg>
