<svg width="16" height="16" viewBox="0 0 16 16" fill="none" xmlns="http://www.w3.org/2000/svg">
<path d="M4.39307 5.27145H4.40947C4.53065 5.27145 4.62909 5.36989 4.62909 5.49107V6.58783C4.62909 6.70901 4.53065 6.80723 4.40947 6.80723H4.39307V8.14416H4.40947C4.53065 8.14416 4.62909 8.2426 4.62909 8.36378V9.46032C4.62909 9.5815 4.53065 9.67994 4.40947 9.67994H4.39307V10.6665H11.9077V4.28516H4.39307V5.27145ZM10.058 6.90828C10.112 6.70311 10.3041 6.54561 10.5414 6.54518C10.646 6.54522 10.748 6.57798 10.833 6.63887C10.9181 6.69976 10.982 6.78573 11.0157 6.88473C11.0495 6.98374 11.0514 7.09082 11.0213 7.19099C10.9911 7.29115 10.9304 7.37939 10.8476 7.44332L10.9887 8.13235C10.9955 8.16552 10.9948 8.19978 10.9867 8.23265C10.9786 8.26552 10.9633 8.29618 10.942 8.32241C10.9206 8.34864 10.8936 8.36979 10.863 8.38432C10.8324 8.39885 10.799 8.40641 10.7652 8.40643H10.3189C10.1746 8.40643 10.0665 8.2741 10.0954 8.13279L10.2354 7.44332C10.0825 7.32652 10.0009 7.12462 10.058 6.90828ZM6.36457 7.3112H6.69683C6.71805 7.20774 6.75939 7.11215 6.81561 7.02684L6.58003 6.79104C6.56475 6.77576 6.55262 6.75762 6.54435 6.73765C6.53608 6.71768 6.53183 6.69628 6.53183 6.67467C6.53183 6.65306 6.53608 6.63166 6.54435 6.61169C6.55262 6.59172 6.56475 6.57358 6.58003 6.5583C6.59531 6.54302 6.61345 6.5309 6.63342 6.52263C6.65338 6.51436 6.67479 6.5101 6.6964 6.5101C6.71801 6.5101 6.73941 6.51436 6.75938 6.52263C6.77934 6.5309 6.79748 6.54302 6.81277 6.5583L7.04857 6.79388C7.13388 6.73767 7.22968 6.69611 7.33293 6.67489V6.34284C7.33448 6.30023 7.35251 6.25987 7.3832 6.23027C7.4139 6.20067 7.45489 6.18413 7.49753 6.18413C7.54018 6.18413 7.58116 6.20067 7.61186 6.23027C7.64256 6.25987 7.66058 6.30023 7.66213 6.34284V6.67489C7.7656 6.69611 7.86141 6.73767 7.9465 6.79388L8.1823 6.5583C8.21316 6.52744 8.25502 6.5101 8.29867 6.5101C8.34231 6.5101 8.38417 6.52744 8.41504 6.5583C8.4459 6.58916 8.46324 6.63102 8.46324 6.67467C8.46324 6.71832 8.4459 6.76018 8.41504 6.79104L8.17945 7.02684C8.23567 7.11215 8.27701 7.20774 8.29823 7.3112H8.63071C8.67333 7.31276 8.71368 7.33078 8.74328 7.36148C8.77288 7.39218 8.78942 7.43316 8.78942 7.47581C8.78942 7.51845 8.77288 7.55943 8.74328 7.59013C8.71368 7.62083 8.67333 7.63885 8.63071 7.64041H8.29823C8.27701 7.74387 8.23567 7.83946 8.17945 7.92477L8.41504 8.16057C8.43032 8.17585 8.44244 8.19399 8.45071 8.21396C8.45898 8.23393 8.46324 8.25533 8.46324 8.27694C8.46324 8.29855 8.45898 8.31995 8.45071 8.33992C8.44244 8.35989 8.43032 8.37803 8.41504 8.39331C8.39975 8.40859 8.38161 8.42071 8.36164 8.42898C8.34168 8.43725 8.32028 8.44151 8.29867 8.44151C8.27705 8.44151 8.25565 8.43725 8.23569 8.42898C8.21572 8.42071 8.19758 8.40859 8.1823 8.39331L7.94671 8.15773C7.86141 8.21394 7.7656 8.2555 7.66235 8.27672V8.60877C7.66235 8.65245 7.645 8.69435 7.61411 8.72524C7.58322 8.75613 7.54133 8.77348 7.49764 8.77348C7.45396 8.77348 7.41206 8.75613 7.38117 8.72524C7.35028 8.69435 7.33293 8.65245 7.33293 8.60877V8.27672C7.23141 8.25558 7.13489 8.21518 7.04857 8.15773L6.81277 8.39331C6.79748 8.40859 6.77934 8.42071 6.75938 8.42898C6.73941 8.43725 6.71801 8.44151 6.6964 8.44151C6.67479 8.44151 6.65338 8.43725 6.63342 8.42898C6.61345 8.42071 6.59531 8.40859 6.58003 8.39331C6.56475 8.37803 6.55262 8.35989 6.54435 8.33992C6.53608 8.31995 6.53183 8.29855 6.53183 8.27694C6.53183 8.25533 6.53608 8.23393 6.54435 8.21396C6.55262 8.19399 6.56475 8.17585 6.58003 8.16057L6.81561 7.92477C6.75823 7.83843 6.71791 7.74191 6.69683 7.64041H6.36435C6.32173 7.63885 6.28138 7.62083 6.25178 7.59013C6.22218 7.55943 6.20564 7.51845 6.20564 7.47581C6.20564 7.43316 6.22218 7.39218 6.25178 7.36148C6.28138 7.33078 6.32195 7.31276 6.36457 7.3112Z" fill="black"/>
<path d="M7.49799 7.96425C7.62741 7.96407 7.75146 7.91257 7.84295 7.82104C7.93444 7.72951 7.98589 7.60543 7.986 7.47602C7.98589 7.34661 7.93444 7.22253 7.84295 7.131C7.75146 7.03947 7.62741 6.98797 7.49799 6.98779C7.36854 6.98791 7.24443 7.03938 7.15289 7.13092C7.06136 7.22245 7.00988 7.34657 7.00977 7.47602C7.00988 7.60547 7.06136 7.72959 7.15289 7.82112C7.24443 7.91266 7.36854 7.96413 7.49799 7.96425Z" fill="black"/>
<path d="M12.3581 2.79272H3.9441C3.66762 2.79296 3.40253 2.90289 3.20703 3.09839C3.01153 3.29389 2.9016 3.55898 2.90137 3.83546V11.1169C2.9016 11.3933 3.01153 11.6584 3.20703 11.8539C3.40253 12.0494 3.66762 12.1594 3.9441 12.1596H4.19828V12.5625C4.19828 12.6785 4.24437 12.7898 4.32641 12.8719C4.40845 12.9539 4.51973 13 4.63576 13H5.47637C5.5924 13 5.70367 12.9539 5.78572 12.8719C5.86776 12.7898 5.91385 12.6785 5.91385 12.5625V12.1596H10.3871V12.5625C10.3871 12.6785 10.4332 12.7898 10.5152 12.8719C10.5973 12.9539 10.7085 13 10.8246 13H11.6652C11.7812 13 11.8925 12.9539 11.9745 12.8719C12.0566 12.7898 12.1027 12.6785 12.1027 12.5625V12.1596H12.3581C12.6346 12.1594 12.8997 12.0494 13.0952 11.8539C13.2907 11.6584 13.4006 11.3933 13.4009 11.1169V3.83546C13.4006 3.55898 13.2907 3.29389 13.0952 3.09839C12.8997 2.90289 12.6346 2.79296 12.3581 2.79272ZM12.2372 10.8312C12.2372 10.8749 12.2198 10.9168 12.1889 10.9477C12.1581 10.9786 12.1162 10.9959 12.0725 10.9959H4.22846C4.18482 10.9958 4.14298 10.9785 4.11213 10.9476C4.08129 10.9167 4.06397 10.8748 4.06397 10.8312V9.67997H4.04735C3.92616 9.67997 3.82795 9.58153 3.82795 9.46035V8.36381C3.82795 8.24263 3.92616 8.14419 4.04735 8.14419H4.06397V6.80726H4.04735C3.92616 6.80726 3.82795 6.70882 3.82795 6.58786V5.4911C3.82795 5.36992 3.92616 5.2717 4.04735 5.2717H4.06397V4.12048C4.06397 4.0297 4.13768 3.95576 4.22846 3.95576H12.0725C12.1635 3.95576 12.2372 4.0297 12.2372 4.12048V10.8312Z" fill="black"/>
</svg>
