<svg width="101" height="28" viewBox="0 0 101 28" fill="none" xmlns="http://www.w3.org/2000/svg">
<g clip-path="url(#clip0_58653_2070)">
<rect width="28" height="28" fill="white"/>
<g filter="url(#filter0_ii_58653_2070)">
<path d="M28 6.40625C24.8074 8.64565 22.6242 11.8782 21.7236 15.1396C21.377 16.3949 21.6966 16.9238 21.8857 17.1709C22.093 17.4417 22.5357 17.7968 23.7002 17.8477C25.237 17.9148 26.6701 17.822 28 17.5947V28H0V15.8184C0.345742 15.9614 0.691522 16.0705 1.03516 16.1416C1.92085 16.3248 3.51814 16.2788 4.69043 15.9521C9.64587 14.5711 14.006 15.0732 17.3096 16.9268C18.092 17.3658 17.445 18.5369 16.6328 18.0107C13.1667 15.7632 9.62953 16.6452 7.47949 17.6855C6.64015 18.0919 5.58447 19.4185 6.96484 20.9346C8.24943 22.3451 8.83423 22.8308 10.459 23.8057C11.3412 24.3349 12.2752 24.6625 13.0586 24.7256C14.0735 24.8073 15.0081 24.5633 15.8203 24.0488C17.934 22.7101 19.7999 20.0854 20.3135 16.792C21.7236 7.7475 10.4585 3.79344 2.60547 3.44141C1.73678 3.40247 0.870224 3.37686 0 3.36523V0H28V6.40625ZM26.4355 19.2285C25.6773 19.0931 24.0623 19.0052 22.6172 19.2285C19.6385 19.6889 21.1508 23.4383 22.7256 23.832C24.1337 24.1839 26.5709 21.3947 27.0312 20.3115C27.1807 19.9595 27.1932 19.3639 26.4355 19.2285Z" fill="url(#paint0_linear_58653_2070)"/>
</g>
</g>
<path d="M56.4578 21.5735C56.4578 19.6837 57.0615 18.1369 58.2689 16.9331C59.4763 15.7293 61.0819 15.1274 63.0856 15.1274C65.0894 15.1274 66.6886 15.7293 67.8831 16.9331C69.0905 18.1369 69.6942 19.6837 69.6942 21.5735C69.6942 23.4504 69.0905 24.9907 67.8831 26.1945C66.6886 27.3983 65.0894 28.0002 63.0856 28.0002C61.0819 28.0002 59.4763 27.3983 58.2689 26.1945C57.0615 24.9907 56.4578 23.4504 56.4578 21.5735ZM59.0974 21.5735C59.0974 22.855 59.4442 23.8905 60.1378 24.6801C60.8314 25.4567 61.814 25.845 63.0856 25.845C64.3701 25.845 65.3591 25.4502 66.0527 24.6606C66.7335 23.884 67.0739 22.855 67.0739 21.5735C67.0739 20.2921 66.7271 19.2566 66.0335 18.467C65.3527 17.6774 64.3701 17.2826 63.0856 17.2826C61.8269 17.2826 60.8443 17.6839 60.1378 18.4864C59.4442 19.276 59.0974 20.305 59.0974 21.5735Z" fill="white"/>
<path d="M44.7383 15.1294H50.0626C53.5988 15.1294 55.3669 16.4972 55.3669 19.2327C55.3669 20.754 54.7998 21.8816 53.6655 22.6155C54.5463 22.869 54.9866 23.5963 54.9866 24.7973V27.9999H52.3845V24.7973C52.3845 24.3169 52.2911 23.9766 52.1043 23.7764C51.9308 23.5763 51.6039 23.4762 51.1235 23.4762H47.3404V27.9999H44.7383V15.1294ZM47.3404 21.2944H50.0626C50.9033 21.2944 51.5638 21.1209 52.0442 20.774C52.5246 20.4137 52.7648 19.9 52.7648 19.2327C52.7648 17.9384 51.8641 17.2912 50.0626 17.2912H47.3404V21.2944Z" fill="white"/>
<path d="M37.9793 15.1294C41.5156 15.1294 43.2837 16.4972 43.2837 19.2327C43.2837 20.5004 42.85 21.5279 41.9826 22.3153C41.1286 23.0892 39.7942 23.4762 37.9793 23.4762H35.2571V27.9999H32.655V15.1294H37.9793ZM35.2571 17.2912V21.2944H37.9793C38.82 21.2944 39.4806 21.1209 39.961 20.774C40.4413 20.4137 40.6815 19.9 40.6815 19.2327C40.6815 17.9384 39.7808 17.2912 37.9793 17.2912H35.2571Z" fill="white"/>
<path d="M89.9247 0.436523L93.8079 6.38137L97.671 0.436523H100.593L95.0889 8.68325V13.307H92.4868V8.68325L86.9823 0.436523H89.9247Z" fill="white"/>
<path d="M76.3641 0.436523H81.6884C85.2246 0.436523 86.9927 1.80431 86.9927 4.53987C86.9927 6.06111 86.4256 7.1887 85.2914 7.92263C86.1721 8.17617 86.6124 8.90343 86.6124 10.1044V13.307H84.0103V10.1044C84.0103 9.62402 83.9169 9.28374 83.7301 9.08358C83.5566 8.88341 83.2297 8.78333 82.7493 8.78333H78.9662V13.307H76.3641V0.436523ZM78.9662 6.60155H81.6884C82.5291 6.60155 83.1896 6.42808 83.67 6.08113C84.1504 5.72083 84.3906 5.20708 84.3906 4.53987C84.3906 3.24548 83.4899 2.59829 81.6884 2.59829H78.9662V6.60155Z" fill="white"/>
<path d="M61.559 6.8826C61.559 4.99278 62.1693 3.44599 63.39 2.2422C64.6106 1.03842 66.2338 0.436523 68.2596 0.436523C70.2854 0.436523 71.9021 1.03842 73.1098 2.2422C74.3304 3.44599 74.9408 4.99278 74.9408 6.8826C74.9408 8.75946 74.3304 10.2998 73.1098 11.5036C71.9021 12.7074 70.2854 13.3092 68.2596 13.3092C66.2338 13.3092 64.6106 12.7074 63.39 11.5036C62.1693 10.2998 61.559 8.75946 61.559 6.8826ZM64.2275 6.8826C64.2275 8.16404 64.5781 9.19956 65.2794 9.98914C65.9806 10.7658 66.974 11.1541 68.2596 11.1541C69.5582 11.1541 70.5581 10.7593 71.2593 9.96972C71.9476 9.19308 72.2917 8.16404 72.2917 6.8826C72.2917 5.60115 71.9411 4.56563 71.2398 3.77605C70.5516 2.98648 69.5582 2.59169 68.2596 2.59169C66.987 2.59169 65.9936 2.99295 65.2794 3.79547C64.5781 4.58505 64.2275 5.61409 64.2275 6.8826Z" fill="white"/>
<path d="M61.1953 0.436523V2.59829H54.5299V6.06111H60.1745V8.24289H54.5299V13.307H51.9277V0.436523H61.1953Z" fill="white"/>
<path d="M47.8552 11.1453H47.855V2.59829V0.436523H50.4571V2.59829V11.1453V13.307H47.8552V11.1453Z" fill="white"/>
<path d="M32.655 13.307L38.0994 0.436523H41.0018L46.4262 13.307H43.644L42.7632 11.1252H36.338L35.4573 13.307H32.655ZM41.8825 8.94346L39.5606 3.13873L37.2187 8.94346H41.8825Z" fill="white"/>
<defs>
<filter id="filter0_ii_58653_2070" x="-0.444444" y="-0.444444" width="29.0667" height="28.8" filterUnits="userSpaceOnUse" color-interpolation-filters="sRGB">
<feFlood flood-opacity="0" result="BackgroundImageFix"/>
<feBlend mode="normal" in="SourceGraphic" in2="BackgroundImageFix" result="shape"/>
<feColorMatrix in="SourceAlpha" type="matrix" values="0 0 0 0 0 0 0 0 0 0 0 0 0 0 0 0 0 0 127 0" result="hardAlpha"/>
<feOffset dx="0.622222" dy="0.355556"/>
<feGaussianBlur stdDeviation="0.666667"/>
<feComposite in2="hardAlpha" operator="arithmetic" k2="-1" k3="1"/>
<feColorMatrix type="matrix" values="0 0 0 0 1 0 0 0 0 1 0 0 0 0 1 0 0 0 0.25 0"/>
<feBlend mode="normal" in2="shape" result="effect1_innerShadow_58653_2070"/>
<feColorMatrix in="SourceAlpha" type="matrix" values="0 0 0 0 0 0 0 0 0 0 0 0 0 0 0 0 0 0 127 0" result="hardAlpha"/>
<feOffset dx="-0.444444" dy="-0.444444"/>
<feGaussianBlur stdDeviation="0.844444"/>
<feComposite in2="hardAlpha" operator="arithmetic" k2="-1" k3="1"/>
<feColorMatrix type="matrix" values="0 0 0 0 0 0 0 0 0 0 0 0 0 0 0 0 0 0 0.1 0"/>
<feBlend mode="normal" in2="effect1_innerShadow_58653_2070" result="effect2_innerShadow_58653_2070"/>
</filter>
<linearGradient id="paint0_linear_58653_2070" x1="4.14313" y1="0.947775" x2="26.9981" y2="28" gradientUnits="userSpaceOnUse">
<stop stop-color="#C4B5FD"/>
<stop offset="1" stop-color="#A78BFA"/>
</linearGradient>
<clipPath id="clip0_58653_2070">
<rect width="28" height="28" rx="6.125" fill="white"/>
</clipPath>
</defs>
</svg>
