<svg width="72" height="21" viewBox="0 0 72 21" fill="none" xmlns="http://www.w3.org/2000/svg">
<g clip-path="url(#clip0_58625_1172)">
<rect width="20.0434" height="20.0434" fill="white"/>
<g filter="url(#filter0_ii_58625_1172)">
<path d="M20.043 4.58984C17.7587 6.19286 16.1952 8.50394 15.5508 10.8379C15.3028 11.7361 15.5316 12.1141 15.667 12.291C15.8154 12.4849 16.1322 12.7399 16.9658 12.7764C18.0656 12.8244 19.0913 12.7583 20.043 12.5957V20.043H0V11.3242C0.247391 11.4266 0.495329 11.5038 0.741211 11.5547C1.37523 11.6858 2.51835 11.6527 3.35742 11.4189C6.90473 10.4304 10.0258 10.7903 12.3906 12.1172C12.9508 12.4315 12.4877 13.2694 11.9062 12.8926C9.42506 11.2837 6.89357 11.9154 5.35449 12.6602C4.75358 12.9509 3.99773 13.9008 4.98633 14.9863C5.90562 15.9957 6.32343 16.3433 7.48633 17.041C8.11799 17.42 8.78679 17.654 9.34766 17.6992C10.0742 17.7577 10.7428 17.583 11.3242 17.2148C12.8373 16.2566 14.1733 14.378 14.541 12.0205C15.5504 5.54619 7.48668 2.7159 1.86523 2.46387C1.24339 2.43599 0.622942 2.41946 0 2.41113V0H20.043V4.58984ZM18.9229 13.7646C18.38 13.6678 17.2245 13.6049 16.1904 13.7646C14.0583 14.0942 15.1403 16.7775 16.2676 17.0596C17.2755 17.3115 19.02 15.3155 19.3496 14.54C19.4567 14.288 19.4656 13.8616 18.9229 13.7646Z" fill="url(#paint0_linear_58625_1172)"/>
</g>
</g>
<path d="M40.4145 15.443C40.4145 14.0902 40.8467 12.983 41.711 12.1213C42.5753 11.2596 43.7246 10.8287 45.1589 10.8287C46.5933 10.8287 47.738 11.2596 48.5931 12.1213C49.4574 12.983 49.8896 14.0902 49.8896 15.443C49.8896 16.7865 49.4574 17.8892 48.5931 18.7509C47.738 19.6126 46.5933 20.0434 45.1589 20.0434C43.7246 20.0434 42.5753 19.6126 41.711 18.7509C40.8467 17.8892 40.4145 16.7865 40.4145 15.443ZM42.304 15.443C42.304 16.3603 42.5523 17.1016 43.0488 17.6668C43.5453 18.2227 44.2487 18.5007 45.1589 18.5007C46.0784 18.5007 46.7864 18.2181 47.2829 17.6529C47.7702 17.097 48.0139 16.3603 48.0139 15.443C48.0139 14.5257 47.7656 13.7845 47.2691 13.2192C46.7818 12.654 46.0784 12.3714 45.1589 12.3714C44.2579 12.3714 43.5545 12.6587 43.0488 13.2331C42.5523 13.7984 42.304 14.535 42.304 15.443Z" fill="#1D1D20"/>
<path d="M32.0252 10.8303H35.8366C38.3679 10.8303 39.6336 11.8094 39.6336 13.7676C39.6336 14.8565 39.2276 15.6637 38.4157 16.1891C39.0461 16.3706 39.3613 16.8912 39.3613 17.7509V20.0434H37.4987V17.7509C37.4987 17.407 37.4318 17.1634 37.2981 17.0201C37.1739 16.8769 36.9398 16.8052 36.596 16.8052H33.8879V20.0434H32.0252V10.8303ZM33.8879 15.2434H35.8366C36.4384 15.2434 36.9112 15.1192 37.2551 14.8709C37.599 14.613 37.7709 14.2452 37.7709 13.7676C37.7709 12.841 37.1261 12.3777 35.8366 12.3777H33.8879V15.2434Z" fill="#1D1D20"/>
<path d="M27.187 10.8303C29.7183 10.8303 30.984 11.8094 30.984 13.7676C30.984 14.6751 30.6735 15.4106 30.0526 15.9742C29.4413 16.5282 28.4861 16.8052 27.187 16.8052H25.2383V20.0434H23.3756V10.8303H27.187ZM25.2383 12.3777V15.2434H27.187C27.7888 15.2434 28.2616 15.1192 28.6055 14.8709C28.9494 14.613 29.1213 14.2452 29.1213 13.7676C29.1213 12.841 28.4765 12.3777 27.187 12.3777H25.2383Z" fill="#1D1D20"/>
<path d="M64.3713 0.312426L67.151 4.56796L69.9164 0.312426H72.0083L68.068 6.21572V9.52558H66.2053V6.21572L62.265 0.312426H64.3713Z" fill="#1D1D20"/>
<path d="M54.6641 0.312426H58.4755C61.0068 0.312426 62.2725 1.29153 62.2725 3.24975C62.2725 4.3387 61.8665 5.14587 61.0546 5.67124C61.685 5.85274 62.0003 6.37333 62.0003 7.23304V9.52558H60.1376V7.23304C60.1376 6.88916 60.0707 6.64557 59.937 6.50229C59.8128 6.35901 59.5788 6.28736 59.2349 6.28736H56.5268V9.52558H54.6641V0.312426ZM56.5268 4.72557H58.4755C59.0773 4.72557 59.5501 4.60139 59.894 4.35303C60.2379 4.09512 60.4098 3.72736 60.4098 3.24975C60.4098 2.32318 59.765 1.85989 58.4755 1.85989H56.5268V4.72557Z" fill="#1D1D20"/>
<path d="M44.0661 4.92675C44.0661 3.57396 44.503 2.4667 45.3768 1.60499C46.2506 0.743281 47.4125 0.312426 48.8627 0.312426C50.3128 0.312426 51.4701 0.743281 52.3346 1.60499C53.2084 2.4667 53.6453 3.57396 53.6453 4.92675C53.6453 6.27028 53.2084 7.3729 52.3346 8.23461C51.4701 9.09632 50.3128 9.52718 48.8627 9.52718C47.4125 9.52718 46.2506 9.09632 45.3768 8.23461C44.503 7.3729 44.0661 6.27028 44.0661 4.92675ZM45.9764 4.92675C45.9764 5.84406 46.2273 6.58531 46.7293 7.15052C47.2313 7.70646 47.9424 7.98444 48.8627 7.98444C49.7922 7.98444 50.508 7.70183 51.01 7.13662C51.5026 6.58068 51.749 5.84406 51.749 4.92675C51.749 4.00945 51.498 3.26819 50.996 2.70298C50.5033 2.13777 49.7922 1.85517 48.8627 1.85517C47.9517 1.85517 47.2406 2.1424 46.7293 2.71688C46.2273 3.28209 45.9764 4.01871 45.9764 4.92675Z" fill="#1D1D20"/>
<path d="M43.8057 0.312426V1.85989H39.0344V4.3387H43.075V5.9005H39.0344V9.52558H37.1717V0.312426H43.8057Z" fill="#1D1D20"/>
<path d="M34.2565 7.97811H34.2563V1.85989V0.312426H36.119V1.85989V7.97811V9.52558H34.2565V7.97811Z" fill="#1D1D20"/>
<path d="M23.3756 9.52558L27.2729 0.312426H29.3505L33.2335 9.52558H31.2419L30.6114 7.96379H26.012L25.3816 9.52558H23.3756ZM29.981 6.40199L28.3189 2.24676L26.6425 6.40199H29.981Z" fill="#1D1D20"/>
<defs>
<filter id="filter0_ii_58625_1172" x="-0.318149" y="-0.318149" width="20.8065" height="20.6156" filterUnits="userSpaceOnUse" color-interpolation-filters="sRGB">
<feFlood flood-opacity="0" result="BackgroundImageFix"/>
<feBlend mode="normal" in="SourceGraphic" in2="BackgroundImageFix" result="shape"/>
<feColorMatrix in="SourceAlpha" type="matrix" values="0 0 0 0 0 0 0 0 0 0 0 0 0 0 0 0 0 0 127 0" result="hardAlpha"/>
<feOffset dx="0.445409" dy="0.254519"/>
<feGaussianBlur stdDeviation="0.477223"/>
<feComposite in2="hardAlpha" operator="arithmetic" k2="-1" k3="1"/>
<feColorMatrix type="matrix" values="0 0 0 0 1 0 0 0 0 1 0 0 0 0 1 0 0 0 0.25 0"/>
<feBlend mode="normal" in2="shape" result="effect1_innerShadow_58625_1172"/>
<feColorMatrix in="SourceAlpha" type="matrix" values="0 0 0 0 0 0 0 0 0 0 0 0 0 0 0 0 0 0 127 0" result="hardAlpha"/>
<feOffset dx="-0.318149" dy="-0.318149"/>
<feGaussianBlur stdDeviation="0.604483"/>
<feComposite in2="hardAlpha" operator="arithmetic" k2="-1" k3="1"/>
<feColorMatrix type="matrix" values="0 0 0 0 0 0 0 0 0 0 0 0 0 0 0 0 0 0 0.1 0"/>
<feBlend mode="normal" in2="effect1_innerShadow_58625_1172" result="effect2_innerShadow_58625_1172"/>
</filter>
<linearGradient id="paint0_linear_58625_1172" x1="2.96574" y1="0.678437" x2="19.3258" y2="20.043" gradientUnits="userSpaceOnUse">
<stop stop-color="#C4B5FD"/>
<stop offset="1" stop-color="#A78BFA"/>
</linearGradient>
<clipPath id="clip0_58625_1172">
<rect width="20.0434" height="20.0434" rx="4.38449" fill="white"/>
</clipPath>
</defs>
</svg>
