<svg width="32" height="40" viewBox="0 0 32 40" fill="none" xmlns="http://www.w3.org/2000/svg">
<path d="M0 4.0287C0 2.96022 0.47043 1.93551 1.3078 1.17998C2.14517 0.424451 3.28089 0 4.46512 0L27.5349 0C28.7191 0 29.8548 0.424451 30.6922 1.17998C31.5296 1.93551 32 2.96022 32 4.0287V37.9859C32 38.2901 31.9236 38.5903 31.7765 38.8641C31.6295 39.1378 31.4157 39.378 31.1511 39.5665C30.8865 39.755 30.578 39.887 30.2488 39.9526C29.9196 40.0182 29.5782 40.0157 29.2502 39.9452L16.1727 37.1338C16.0591 37.1094 15.9409 37.1094 15.8273 37.1338L2.74977 39.9452C2.4218 40.0157 2.08039 40.0182 1.75118 39.9526C1.42197 39.887 1.11349 39.755 0.848905 39.5665C0.584318 39.378 0.37049 39.1378 0.223466 38.8641C0.0764432 38.5903 4.3343e-05 38.2901 0 37.9859L0 4.0287Z" fill="#8B5CF6"/>
</svg>
