<svg width="32" height="32" viewBox="0 0 32 32" fill="none" xmlns="http://www.w3.org/2000/svg">
<g clip-path="url(#clip0_58649_4976)">
<path d="M16 32C24.8366 32 32 24.8366 32 16C32 7.16344 24.8366 0 16 0C7.16344 0 0 7.16344 0 16C0 24.8366 7.16344 32 16 32Z" fill="#26A17B"/>
<path fill-rule="evenodd" clip-rule="evenodd" d="M18.0219 17.564V17.562C17.9119 17.57 17.3449 17.604 16.0799 17.604C15.0699 17.604 14.3589 17.574 14.1089 17.562V17.565C10.2209 17.394 7.3189 16.717 7.3189 15.907C7.3189 15.098 10.2209 14.421 14.1089 14.247V16.891C14.3629 16.909 15.0909 16.952 16.0969 16.952C17.3039 16.952 17.9089 16.902 18.0219 16.892V14.249C21.9019 14.422 24.7969 15.099 24.7969 15.907C24.7969 16.717 21.9019 17.392 18.0219 17.564V17.564ZM18.0219 13.974V11.608H23.4359V8H8.6949V11.608H14.1089V13.973C9.7089 14.175 6.3999 15.047 6.3999 16.091C6.3999 17.135 9.7089 18.006 14.1089 18.209V25.791H18.0219V18.207C22.4149 18.005 25.7159 17.134 25.7159 16.091C25.7159 15.048 22.4149 14.177 18.0219 13.974" fill="white"/>
</g>
<rect x="0.384615" y="0.384615" width="31.2308" height="31.2308" rx="15.6154" stroke="white" stroke-opacity="0.1" stroke-width="0.769231"/>
<defs>
<clipPath id="clip0_58649_4976">
<rect width="32" height="32" rx="16" fill="white"/>
</clipPath>
</defs>
</svg>
