<svg width="116" height="30" viewBox="0 0 116 30" fill="none" xmlns="http://www.w3.org/2000/svg">
<g clip-path="url(#clip0_58625_2043)">
<mask id="mask0_58625_2043" style="mask-type:luminance" maskUnits="userSpaceOnUse" x="0" y="0" width="116" height="30">
<path d="M115.761 0H0V30H115.761V0Z" fill="white"/>
</mask>
<g mask="url(#mask0_58625_2043)">
<path d="M51.7814 15.6601H54.233L51.7814 23.3401H49.6886L48.433 19.2001L47.2371 23.2801H45.1443L42.6927 15.6001H45.1443L46.2206 19.6801L47.4165 15.6001H49.5092L50.7051 19.6801L51.7814 15.6601Z" fill="white"/>
<path d="M56.8639 20.4C57.1031 21.12 57.7608 21.48 58.6577 21.48C59.2557 21.48 59.734 21.3 60.0928 20.88L61.8866 21.96C61.1691 23.04 60.033 23.52 58.5979 23.52C57.3423 23.52 56.3258 23.16 55.5484 22.38C54.8309 21.6 54.4124 20.64 54.4124 19.5C54.4124 18.36 54.7711 17.4 55.5484 16.62C56.3258 15.84 57.2825 15.48 58.4185 15.48C59.4948 15.48 60.4515 15.84 61.1691 16.62C61.8866 17.4 62.2453 18.36 62.2453 19.5C62.2453 19.8 62.1856 20.16 62.1258 20.4H56.8639ZM56.8041 18.72H60.033C59.7938 17.94 59.2557 17.52 58.4185 17.52C57.5814 17.46 57.0433 17.88 56.8041 18.72Z" fill="white"/>
<path d="M63.6206 23.3401V12.1201H65.8928V23.2801H63.6206V23.3401Z" fill="white"/>
<path d="M67.5072 23.3401V12.1201H69.7794V23.2801H67.5072V23.3401Z" fill="white"/>
<path d="M75.101 23.52C73.9649 23.52 73.0083 23.16 72.2309 22.38C71.4536 21.6 71.0948 20.64 71.0948 19.5C71.0948 18.36 71.4536 17.4 72.2309 16.62C73.0083 15.84 73.9649 15.48 75.101 15.48C75.8186 15.48 76.4763 15.66 77.134 16.02C77.732 16.38 78.2103 16.86 78.5691 17.46L76.5361 18.6C76.2371 18 75.7588 17.76 75.0412 17.76C74.5629 17.76 74.1443 17.94 73.7856 18.24C73.4866 18.6 73.3072 19.02 73.3072 19.5C73.3072 20.04 73.4866 20.46 73.7856 20.76C74.0845 21.12 74.5031 21.24 75.0412 21.24C75.7588 21.24 76.2371 20.94 76.5361 20.4L78.5093 21.54C78.1505 22.14 77.732 22.62 77.0742 22.98C76.5361 23.34 75.8186 23.52 75.101 23.52Z" fill="white"/>
<path d="M81.7979 17.04C81.9175 16.56 82.2165 16.2 82.635 15.9C83.0536 15.66 83.5319 15.48 84.0701 15.48V18.06C83.5319 17.94 82.9938 18.06 82.5154 18.36C82.0371 18.66 81.7979 19.14 81.7979 19.8V23.28H79.5258V15.66H81.7979V17.04Z" fill="white"/>
<path d="M90.0495 15.6602H92.4412L89.8701 23.1002C89.4515 24.3002 88.9134 25.1402 88.1958 25.6802C87.4783 26.2202 86.6412 26.4602 85.5649 26.4002V24.2402C86.1031 24.2402 86.5216 24.1202 86.7608 23.9402C87.0598 23.7602 87.2989 23.4002 87.4185 22.9802L84.4288 15.6602H86.9402L88.6144 20.3402L90.0495 15.6602Z" fill="white"/>
<path d="M97.8227 15.4199C98.8391 15.4199 99.6763 15.8399 100.394 16.6199C101.111 17.3999 101.47 18.3599 101.47 19.4999C101.47 20.6399 101.111 21.5999 100.394 22.3799C99.6763 23.1599 98.8391 23.5799 97.8227 23.5799C96.866 23.5799 96.0886 23.2799 95.5505 22.6199V26.3999H93.2783V15.6599H95.5505V16.3799C96.0886 15.7799 96.8062 15.4199 97.8227 15.4199ZM96.0288 20.8799C96.3876 21.2399 96.8062 21.3599 97.3443 21.3599C97.8824 21.3599 98.301 21.1799 98.6598 20.8799C99.0185 20.5199 99.1381 20.0999 99.1381 19.4999C99.1381 18.8999 98.9587 18.4799 98.6598 18.1199C98.301 17.7599 97.8824 17.6399 97.3443 17.6399C96.8062 17.6399 96.3876 17.8199 96.0288 18.1199C95.6701 18.4799 95.5505 18.8999 95.5505 19.4999C95.5505 20.0999 95.7299 20.5199 96.0288 20.8799Z" fill="white"/>
<path d="M106.971 17.8801H105.416V20.5801C105.416 20.8801 105.536 21.0601 105.775 21.1801C106.014 21.2401 106.433 21.3001 106.971 21.2401V23.3401C105.536 23.5201 104.519 23.3401 103.981 22.9201C103.443 22.5001 103.144 21.7201 103.144 20.5801V17.8801H101.948V15.6601H103.144V14.2201L105.416 13.5601V15.7201H106.971V17.8801Z" fill="white"/>
<path d="M114.625 22.3799C113.847 23.1599 112.891 23.5799 111.755 23.5799C110.619 23.5799 109.662 23.1599 108.885 22.3799C108.107 21.5999 107.748 20.6399 107.748 19.4999C107.748 18.3599 108.107 17.3999 108.885 16.6199C109.662 15.8399 110.619 15.4199 111.755 15.4199C112.891 15.4199 113.847 15.8399 114.625 16.6199C115.402 17.3999 115.761 18.3599 115.761 19.4999C115.761 20.6399 115.402 21.5999 114.625 22.3799ZM110.499 20.8199C110.858 21.1799 111.216 21.2999 111.755 21.2999C112.293 21.2999 112.652 21.1199 113.01 20.8199C113.369 20.4599 113.489 20.0399 113.489 19.4999C113.489 18.9599 113.309 18.5399 113.01 18.1799C112.652 17.8199 112.293 17.6999 111.755 17.6999C111.216 17.6999 110.858 17.8799 110.499 18.1799C110.14 18.5399 110.021 18.9599 110.021 19.4999C110.021 20.0399 110.2 20.4599 110.499 20.8199Z" fill="white"/>
<path d="M40.0021 1.08C39.8825 0.24 38.9856 -0.24 38.268 0.0599997L31.1526 3.06L29.5381 3.72C28.8804 3.96 29 4.92 29.6577 5.04C30.4948 5.16 31.4515 5.4 32.5278 5.7H32.5876L32.5278 5.76C33.4845 8.1 34.0227 10.62 34.0227 13.26C34.0227 14.7 33.8433 16.14 33.5443 17.52L38.3876 9C39.1052 9.6 39.7629 10.26 40.3608 10.92C40.8392 11.46 41.6763 11.04 41.5567 10.32L40.0021 1.08Z" fill="white"/>
<path d="M34.0226 13.3198C34.0226 10.6798 33.4845 8.09982 32.5278 5.81982L31.6907 7.31982C33.0659 9.47982 33.8433 12.0598 33.8433 14.8198C33.8433 15.7798 33.7237 16.7398 33.5443 17.6398L33.6041 17.5798C33.903 16.1998 34.0226 14.7598 34.0226 13.3198Z" fill="white"/>
<path d="M31.6907 7.31998L25.233 18.78L20.4494 8.39998C20.0309 7.43998 19.134 6.71998 18.1175 6.53998C17.8783 6.47998 17.6391 6.47998 17.4 6.47998C16.1443 6.47998 14.9484 7.19998 14.4103 8.39998L13.5732 10.26L13.0948 11.34L9.44738 19.26L9.268 18.96L6.21852 13.62L5.97934 13.14C5.62058 12.48 4.78347 12.24 4.12573 12.6L0.717486 14.58C0.0597542 14.94 -0.179421 15.78 0.179342 16.44L6.87625 28.26C7.47419 29.34 8.55048 29.94 9.74635 29.94C9.80615 29.94 9.86594 29.94 9.86594 29.94C10.0453 29.94 10.2247 29.94 10.3443 29.88C11.3608 29.7 12.2577 28.98 12.736 28.02L13.2144 27L17.4 17.88L17.5793 18.24L21.8845 27.6C22.0639 27.96 22.3031 28.32 22.5422 28.56C23.1402 29.16 23.9175 29.52 24.7546 29.52C24.9938 29.52 25.2927 29.52 25.5319 29.46C26.4886 29.28 27.3257 28.68 27.8041 27.84L27.9835 27.48L29.2989 25.14L33.5443 17.64C33.7237 16.74 33.8433 15.78 33.8433 14.82C33.8433 12.06 33.0659 9.47998 31.6907 7.31998Z" fill="white"/>
</g>
</g>
<defs>
<clipPath id="clip0_58625_2043">
<rect width="116" height="30" fill="white"/>
</clipPath>
</defs>
</svg>
