<svg width="17" height="16" viewBox="0 0 17 16" fill="none" xmlns="http://www.w3.org/2000/svg">
<path d="M1.5772 9.5199C1.57678 9.52015 1.57632 9.52031 1.57586 9.5206C1.49475 9.56276 1.4325 9.63393 1.40153 9.71994C1.37056 9.80594 1.37314 9.90046 1.40876 9.98465C1.44438 10.0688 1.51042 10.1365 1.59371 10.1742C1.67701 10.2118 1.77144 10.2167 1.85817 10.1879L6.93778 8.4978L5.98797 10.0489C5.95445 10.1037 5.9398 10.168 5.94627 10.232C5.95274 10.2959 5.97997 10.356 6.0238 10.403C6.06763 10.45 6.12565 10.4814 6.18898 10.4923C6.25232 10.5032 6.31749 10.4931 6.37454 10.4635L7.37062 9.9459C7.39924 9.93104 7.42521 9.91156 7.44749 9.88825L10.3983 6.80584L14.0401 4.90565C15.4193 4.16215 15.2595 3.59062 15.1777 3.43321C15.1143 3.31115 14.9725 3.14748 14.6575 3.06094C14.3379 2.97315 13.9062 2.98015 13.338 3.08237C13.1482 3.11647 13.0435 3.11359 12.9326 3.11055C12.5428 3.09988 12.2784 3.12601 10.9655 3.80823L3.78475 7.53987L1.00004 6.09465C0.948289 6.0678 0.890838 6.0538 0.832538 6.05383C0.774237 6.05386 0.7168 6.06792 0.665079 6.09482L0.195846 6.33869C0.14814 6.36347 0.106527 6.39853 0.0740087 6.44133C0.0414901 6.48414 0.0188763 6.53363 0.00779813 6.58623C-0.00328006 6.63884 -0.00254654 6.69324 0.00994579 6.74553C0.0224381 6.79781 0.0463779 6.84667 0.0800387 6.88859L2.01283 9.29599L1.5772 9.5199ZM14.8012 12.4444H1.20681C0.824533 12.4444 0.514629 12.7544 0.514629 13.1366C0.514629 13.5188 0.824533 13.8287 1.20681 13.8287H14.8012C15.1835 13.8287 15.4934 13.5188 15.4934 13.1366C15.4934 12.7543 15.1835 12.4444 14.8012 12.4444Z" fill="#1D1D20"/>
</svg>
