<svg width="16" height="16" viewBox="0 0 16 16" fill="none" xmlns="http://www.w3.org/2000/svg">
<path d="M12.6726 12.9327H12.3016V10.6022C12.6458 10.4701 12.8909 10.1363 12.8909 9.74612C12.8909 9.24065 12.4796 8.82943 11.9742 8.82943C11.4687 8.82943 11.0575 9.24065 11.0575 9.74612C11.0575 9.77973 11.0594 9.81288 11.063 9.84558C10.7923 9.98647 10.4379 10.1172 10.0535 10.1172C9.67132 10.1172 9.31598 9.98564 9.0442 9.84414C9.04765 9.81192 9.0495 9.77923 9.0495 9.74612C9.0495 9.24065 8.63828 8.82943 8.13281 8.82943C7.62735 8.82943 7.21612 9.24065 7.21612 9.74612C7.21612 9.77973 7.21807 9.81288 7.2216 9.84558C6.95094 9.98647 6.59648 10.1172 6.21213 10.1172C5.82991 10.1172 5.47456 9.98559 5.20283 9.84414C5.20628 9.81192 5.20813 9.77923 5.20813 9.74612C5.20813 9.24065 4.79691 8.82943 4.29144 8.82943C3.78598 8.82943 3.37475 9.24065 3.37475 9.74612C3.37475 10.1363 3.61984 10.47 3.96406 10.6022V12.9327H3.59301C3.41221 12.9327 3.26562 13.0793 3.26562 13.2601C3.26562 13.4409 3.41221 13.5875 3.59301 13.5875H12.6726C12.8534 13.5875 13 13.4409 13 13.2601C13 13.0793 12.8534 12.9327 12.6726 12.9327ZM11.3615 10.4273C11.4451 10.5026 11.5418 10.5618 11.6468 10.6022V12.9327H8.4602V10.6022C8.5652 10.5618 8.6619 10.5026 8.74549 10.4273C9.0908 10.6062 9.54722 10.7719 10.0535 10.7719C10.5598 10.7719 11.0162 10.6062 11.3615 10.4273ZM4.61883 10.6022C4.72383 10.5618 4.82053 10.5026 4.90412 10.4273C5.24945 10.6062 5.70585 10.7719 6.21213 10.7719C6.7184 10.7719 7.17481 10.6062 7.52014 10.4273C7.60372 10.5026 7.70042 10.5618 7.80542 10.6022V12.9327H4.61883V10.6022ZM9.12358 5.67326C9.14846 5.64838 9.17719 5.62767 9.20866 5.61193L9.75797 5.33728L9.90517 4.45409C9.91638 4.38678 9.94835 4.32466 9.9966 4.2764L10.695 3.57797C10.7436 3.52939 10.8063 3.49732 10.8741 3.48631C10.9419 3.4753 11.0115 3.48591 11.0729 3.51664L11.9524 3.95633V2.73999C11.9524 2.55918 11.8058 2.4126 11.625 2.4126H4.64066C4.45985 2.4126 4.31327 2.55918 4.31327 2.73999V6.10118H8.69564L9.12358 5.67326ZM5.99387 4.26785C5.81306 4.26785 5.66648 4.12126 5.66648 3.94046C5.66648 3.75965 5.81306 3.61307 5.99387 3.61307C6.17468 3.61307 6.32126 3.75965 6.32126 3.94046C6.32126 4.12129 6.17468 4.26785 5.99387 4.26785Z" fill="#1D1D20"/>
<path d="M10.534 4.66513L10.3766 5.60927C10.3681 5.66021 10.3477 5.70842 10.317 5.74996C10.2864 5.7915 10.2463 5.82519 10.2001 5.84829L9.5492 6.17374L9.12293 6.60002L8.72919 7.97815H11.6252C11.806 7.97815 11.9526 7.83157 11.9526 7.65076V4.68835L10.9914 4.20776L10.534 4.66513ZM4.64087 7.97815H8.0482L8.39742 6.7559H4.31348V7.65076C4.31348 7.83157 4.46006 7.97815 4.64087 7.97815Z" fill="#1D1D20"/>
</svg>
