<svg width="16" height="16" viewBox="0 0 16 16" fill="none" xmlns="http://www.w3.org/2000/svg">
<path d="M8.72307 4.9288C8.44993 4.84095 8.2004 4.69815 7.97917 4.50375V3.54462H8.72656V2.79722H7.97917V2H7.23177V2.79722H6.48438V3.54462H7.23177V4.50375C7.01054 4.69815 6.76101 4.84093 6.48786 4.9288C5.59174 5.21729 4.98958 6.02547 4.98958 6.93954C4.98958 7.32968 5.09522 7.70388 5.29328 8.02899H9.91766C10.1157 7.70388 10.2214 7.32968 10.2214 6.93954C10.2214 6.02547 9.6192 5.21729 8.72307 4.9288ZM2 12.8871V14.7556H3.49479V12.5134H4.24219V14.7556H4.98958V11.3933C4.67692 11.1581 4.28878 11.0186 3.86849 11.0186C2.83833 11.0186 2 11.8567 2 12.8871ZM7.60547 9.52378C6.57531 9.52378 5.73698 10.3619 5.73698 11.3923V14.7556H7.23177V12.5134H7.97917V14.7556H9.47396V11.3923C9.47396 10.3619 8.63563 9.52378 7.60547 9.52378ZM7.97917 11.766H7.23177V11.0186H7.97917V11.766ZM11.3424 11.0186C10.9222 11.0186 10.534 11.1581 10.2214 11.3933V14.7556H10.9688V12.5134H11.7161V14.7556H13.2109V12.8871C13.2109 11.8567 12.3726 11.0186 11.3424 11.0186ZM10.2214 10.5231C10.5689 10.3574 10.9491 10.2712 11.3424 10.2712C11.7436 10.2712 12.1237 10.3619 12.4635 10.524V9.89748H10.2214V10.5231ZM2.7474 10.524C3.08721 10.3619 3.46739 10.2712 3.86849 10.2712C4.26187 10.2712 4.64204 10.3574 4.98958 10.5231V9.89748H2.7474V10.524ZM5.73698 9.56365C6.21182 9.07809 6.87402 8.77639 7.60547 8.77639H5.73698V9.56365ZM9.47396 9.56365V8.77639H7.60547C8.33692 8.77639 8.99911 9.07809 9.47396 9.56365ZM12.4488 9.15009C12.3875 8.53675 12.1333 7.96512 11.7161 7.50582V6.5342H10.9688V7.50582C10.5516 7.96509 10.2974 8.53675 10.2361 9.15009H12.4488ZM4.97488 9.15009C4.91352 8.53675 4.65933 7.96512 4.24219 7.50582V6.5342H3.49479V7.50582C3.07765 7.96509 2.82346 8.53675 2.76209 9.15009H4.97488Z" fill="#1D1D20"/>
</svg>
