<svg width="16" height="16" viewBox="0 0 16 16" fill="none" xmlns="http://www.w3.org/2000/svg">
<path d="M10.3159 3L8.27984 9.41885L6.24395 3C3.82208 3.83245 2 6.09064 2 8.67951C2 10.2388 2.63614 11.6768 3.6653 12.7366H6.61707L6.92652 11.3947C3.40015 10.0129 4.06693 5.73146 5.34531 5.03258C5.49705 5.0782 7.72063 12.705 7.72063 12.705H8.83892C8.83892 12.705 11.0626 5.0782 11.2142 5.03258C12.4928 5.73146 13.1593 10.0129 9.6329 11.3947L9.94248 12.7366H12.8943C13.9235 11.6768 14.5597 10.2388 14.5597 8.67951C14.5597 6.09064 12.7376 3.83245 10.3159 3Z" fill="#1D1D20"/>
</svg>
