<svg width="16" height="16" viewBox="0 0 16 16" fill="none" xmlns="http://www.w3.org/2000/svg">
<path d="M4.88281 6.33078C5.70222 6.81043 6.62754 7.08024 7.57485 7.11221V4.05444H4.88281V6.33078ZM10.6666 4.05444H7.97456V7.11421C8.92387 7.08024 9.84719 6.81243 10.6666 6.33278V4.05444Z" fill="#1D1D20"/>
<path d="M10.8663 11.4491L11.7576 10.5578V3.85465C11.7576 3.36101 11.3579 2.9633 10.8663 2.9633H4.68277C4.18913 2.9633 3.79142 3.36301 3.79142 3.85465V10.5578L4.68277 11.4491H10.8663ZM5.97183 10.164C5.80503 10.164 5.64197 10.1146 5.50327 10.0219C5.36458 9.92924 5.25648 9.79752 5.19265 9.64341C5.12881 9.4893 5.11211 9.31973 5.14465 9.15613C5.1772 8.99253 5.25752 8.84225 5.37547 8.7243C5.49342 8.60635 5.6437 8.52602 5.8073 8.49348C5.9709 8.46094 6.14047 8.47764 6.29458 8.54148C6.44869 8.60531 6.58041 8.71341 6.67308 8.8521C6.76576 8.9908 6.81522 9.15386 6.81522 9.32066C6.81554 9.43151 6.79394 9.54132 6.75166 9.64379C6.70939 9.74625 6.64728 9.83935 6.5689 9.91773C6.49052 9.99611 6.39742 10.0582 6.29496 10.1005C6.19249 10.1428 6.08268 10.1644 5.97183 10.164ZM9.57721 10.164C9.46642 10.164 9.35673 10.1422 9.25439 10.0998C9.15206 10.0573 9.05907 9.99518 8.98076 9.91683C8.90244 9.83847 8.84033 9.74546 8.79796 9.6431C8.75559 9.54075 8.73379 9.43104 8.73382 9.32026C8.73385 9.20948 8.75569 9.09979 8.79811 8.99745C8.84053 8.89511 8.90269 8.80213 8.98104 8.72382C9.05939 8.6455 9.1524 8.58338 9.25476 8.54101C9.35712 8.49864 9.46682 8.47685 9.5776 8.47688C9.80134 8.47693 10.0159 8.56586 10.1741 8.7241C10.3322 8.88234 10.421 9.09693 10.421 9.32066C10.4209 9.5444 10.332 9.75894 10.1738 9.91711C10.0155 10.0753 9.80094 10.1641 9.57721 10.164ZM4.48292 6.44476V3.85465C4.48292 3.74473 4.57285 3.65479 4.68277 3.65479H10.8663C10.9762 3.65479 11.0661 3.74473 11.0661 3.85465V6.44476C11.0661 6.51471 11.0301 6.57866 10.9702 6.61464C10.0078 7.20414 8.90113 7.51613 7.77252 7.51613C6.64391 7.51613 5.53727 7.20414 4.57485 6.61464C4.51889 6.57866 4.48292 6.51471 4.48292 6.44476ZM9.857 2.49164C9.857 2.21984 9.63516 2 9.36336 2H6.18568C5.91388 2 5.69204 2.21984 5.69204 2.49164V2.56159H9.859V2.49164H9.857ZM4.74473 11.8488L3 14.5908H4.41097L5.64008 11.8488H4.74473ZM10.8023 11.8488H9.90896L11.1381 14.5908H12.549L10.8023 11.8488ZM5.40824 13.3437L5.00654 14.2431H10.5425L10.1408 13.3437H5.40824ZM5.68404 12.7322H9.865L9.5792 12.0866H5.96983L5.68404 12.7322Z" fill="#1D1D20"/>
</svg>
