<svg width="16" height="16" viewBox="0 0 16 16" fill="none" xmlns="http://www.w3.org/2000/svg">
<path d="M3.5 14.8C4.32728 14.8 5 14.1273 5 13.2678C5.00038 13.0858 5.0011 12.8591 4.87805 12.5778C4.68907 12.1479 4.25 11.0291 4.25 9.925C4.25 9.30465 4.75465 8.75 5.375 8.75H5.75V8H4.625C4.4181 8 4.25 7.8319 4.25 7.625V7.25H5.75V6.5H4.25V5.75H5.75V5H4.25V4.25H5.75V3.5H4.25V3.125C4.25 2.9181 4.4181 2.75 4.625 2.75H5.75V2H3.125C2.50465 2 2 2.50465 2 3.125V13.3C2 14.1273 2.67273 14.8 3.5 14.8ZM7.76928 10.2374C7.02175 10.0329 6.12093 10.5841 5.83203 11.6553C5.5402 12.7318 6.0442 13.6553 6.7904 13.857C7.521 14.0555 8.4356 13.5184 8.72802 12.4387C8.7306 12.4292 9.38093 10.35 9.38093 10.35H9.61988C9.61988 10.35 10.2699 12.43 10.2723 12.4391C10.5067 13.3055 11.193 13.8991 11.8925 13.8991C11.8948 13.8991 11.897 13.8982 11.8994 13.8982C12.2406 14.4401 12.9084 14.8 13.625 14.8H14V14.05H13.625C13.2427 14.05 12.8662 13.8832 12.6368 13.634C13.2364 13.1741 13.3571 12.353 13.168 11.6553C12.8783 10.5812 11.9764 10.033 11.2307 10.2374C10.9425 10.3153 10.7045 10.4962 10.5279 10.7395L10.2875 9.98497L10.685 8.6975L8.54747 2L8.195 2.11253C7.205 2.4275 6.6575 3.46998 6.965 4.45998L8.71253 9.98497L8.4745 10.7422C8.29768 10.4974 8.05867 10.3156 7.76928 10.2374ZM8.00403 12.2428C7.84473 12.832 7.38073 13.2378 6.98595 13.1334C6.52325 13.0079 6.42908 12.3191 6.55565 11.8516L6.55603 11.8512C6.68512 11.3723 7.11055 10.8403 7.57373 10.961C7.96595 11.0672 8.16298 11.6543 8.00403 12.2428ZM11.4263 10.961C11.8921 10.8396 12.3174 11.3816 12.444 11.8512L12.4444 11.8516C12.5707 12.3182 12.4766 13.0079 12.0141 13.1334C11.62 13.2396 11.1553 12.8313 10.9964 12.2431C10.837 11.6543 11.034 11.0672 11.4263 10.961Z" fill="black"/>
<path d="M12.0351 4.45998C12.3426 3.46998 11.7951 2.4275 10.8051 2.11253L10.4526 2L9.89014 3.7325L11.0751 7.45998L12.0351 4.45998Z" fill="black"/>
</svg>
