<svg width="16" height="16" viewBox="0 0 16 16" fill="none" xmlns="http://www.w3.org/2000/svg">
<path d="M13.7433 8.60221L13.2917 8.22173V5.62046H13.7433V8.60221ZM14.9818 4.85385L14.2468 3.13661C14.2292 3.09613 14.2002 3.06166 14.1633 3.0374C14.1264 3.01314 14.0832 3.00014 14.0391 3H12.9959C12.9518 3.00002 12.9088 3.01297 12.872 3.03726C12.8353 3.06155 12.8065 3.0961 12.7893 3.13661L12.0543 4.85385C12.0396 4.88823 12.0336 4.92571 12.037 4.96295C12.0403 5.00018 12.0528 5.036 12.0734 5.06721C12.094 5.09842 12.122 5.12404 12.1549 5.14178C12.1878 5.15951 12.2246 5.16882 12.262 5.16885H14.7741C14.8115 5.16882 14.8482 5.15951 14.8812 5.14178C14.9141 5.12404 14.9421 5.09842 14.9626 5.06721C14.9832 5.036 14.9957 5.00018 14.9991 4.96295C15.0024 4.92571 14.9965 4.88823 14.9818 4.85385ZM4.42094 7.47093V7.22932C4.42133 7.06894 4.48521 6.91524 4.59861 6.80184C4.71202 6.68843 4.86572 6.62455 5.02609 6.62416H6.45882C6.61926 6.62437 6.77306 6.6882 6.8865 6.80164C6.99995 6.91508 7.06377 7.06888 7.06398 7.22932V7.47093H8.03268V7.22932C8.03289 7.06888 8.09671 6.91508 8.21016 6.80164C8.3236 6.6882 8.4774 6.62437 8.63784 6.62416H10.0706C10.2309 6.62455 10.3846 6.68843 10.498 6.80184C10.6115 6.91524 10.6753 7.06894 10.6757 7.22932V7.47093H11.8386V6.28997C11.8382 5.95983 11.7068 5.64334 11.4734 5.4099C11.2399 5.17645 10.9234 5.04511 10.5933 5.04466H4.50336C4.17322 5.04511 3.85673 5.17645 3.62328 5.4099C3.38984 5.64334 3.25849 5.95983 3.25804 6.28997V7.47093H4.42094ZM13.251 9.36769H13.9533L13.7433 9.19156L13.2917 8.81221L12.2326 7.92254H2.86402L1.14339 9.36769H13.251ZM2.01612 12.4036H1.56451V12.9354C1.56469 12.9952 1.58854 13.0526 1.63085 13.0949C1.67315 13.1372 1.73048 13.161 1.79032 13.1612H2.88998C2.94982 13.161 3.00715 13.1372 3.04945 13.0949C3.09176 13.0526 3.11561 12.9952 3.11579 12.9354V12.4036H2.01612ZM12.4325 12.4036H11.9809V12.9354C11.981 12.9952 12.0049 13.0526 12.0472 13.0949C12.0895 13.1372 12.1468 13.161 12.2067 13.1612H13.3063C13.3662 13.161 13.4235 13.1372 13.4658 13.0949C13.5081 13.0526 13.532 12.9952 13.5321 12.9354V12.4036H12.4325ZM1.45161 9.8193H1V11.7262C1.00018 11.786 1.02403 11.8434 1.06633 11.8857C1.10864 11.928 1.16597 11.9518 1.2258 11.952H13.8709C13.9307 11.9518 13.988 11.928 14.0303 11.8857C14.0726 11.8434 14.0965 11.786 14.0967 11.7262V9.8193H1.45161Z" fill="black"/>
</svg>
