<svg width="16" height="16" viewBox="0 0 16 16" fill="none" xmlns="http://www.w3.org/2000/svg">
<path d="M4.49999 4.99999C4.77613 4.99999 4.99999 4.77613 4.99999 4.49999C4.99999 4.22385 4.77613 4 4.49999 4C4.22385 4 4 4.22385 4 4.49999C4 4.77613 4.22385 4.99999 4.49999 4.99999Z" fill="black"/>
<path d="M6.99999 4.99999C7.27613 4.99999 7.49999 4.77613 7.49999 4.49999C7.49999 4.22385 7.27613 4 6.99999 4C6.72385 4 6.5 4.22385 6.5 4.49999C6.5 4.77613 6.72385 4.99999 6.99999 4.99999Z" fill="black"/>
<path d="M5.99999 3.99999C6.27613 3.99999 6.49999 3.77613 6.49999 3.49999C6.49999 3.22385 6.27613 3 5.99999 3C5.72385 3 5.5 3.22385 5.5 3.49999C5.5 3.77613 5.72385 3.99999 5.99999 3.99999Z" fill="black"/>
<path d="M4.49999 2.99999C4.77613 2.99999 4.99999 2.77613 4.99999 2.49999C4.99999 2.22385 4.77613 2 4.49999 2C4.22385 2 4 2.22385 4 2.49999C4 2.77613 4.22385 2.99999 4.49999 2.99999Z" fill="black"/>
<path d="M5.99999 5.99999C6.27613 5.99999 6.49999 5.77613 6.49999 5.49999C6.49999 5.22385 6.27613 5 5.99999 5C5.72385 5 5.5 5.22385 5.5 5.49999C5.5 5.77613 5.72385 5.99999 5.99999 5.99999Z" fill="black"/>
<path d="M4.49999 6.99999C4.77613 6.99999 4.99999 6.77613 4.99999 6.49999C4.99999 6.22385 4.77613 6 4.49999 6C4.22385 6 4 6.22385 4 6.49999C4 6.77613 4.22385 6.99999 4.49999 6.99999Z" fill="black"/>
<path d="M2.49999 4.99999C2.77613 4.99999 2.99999 4.77613 2.99999 4.49999C2.99999 4.22385 2.77613 4 2.49999 4C2.22385 4 2 4.22385 2 4.49999C2 4.77613 2.22385 4.99999 2.49999 4.99999Z" fill="black"/>
<path d="M10.5 7.00001C9.5 7.65 7.5 8.50001 7.5 11.5V12.5H13.95C13.8202 11.2214 13.2345 10.0323 12.3 9.15003C12.1773 9.04448 12.0782 8.9142 12.0093 8.76773C11.9403 8.62125 11.9031 8.46187 11.9 8.30002C11.9 7.80002 12 7.15001 12 7.00001H10.5ZM7.5 13V13.5C7.5 13.7762 7.72385 14 7.99999 14H13.5C13.7762 14 14 13.7762 14 13.5V13H7.5ZM9 6.50001H9.5L9.84999 5.15001C10.3303 5.41734 10.5905 5.95786 10.5 6.50001H12.2L12.5 5.65V4.49999C12.5 4.22385 12.2761 4 12 4H7.99999V5.00001H9V6.50001Z" fill="black"/>
</svg>
