<svg width="16" height="16" viewBox="0 0 16 16" fill="none" xmlns="http://www.w3.org/2000/svg">
<path d="M10.4025 2.04167C10.4025 1.46719 9.93532 1 9.36084 1H5.97542C5.40094 1 4.93376 1.46719 4.93376 2.04167V5.71354H10.4025V2.04167ZM4.15381 9.48956C4.15381 9.99216 4.56266 10.401 5.06527 10.401H7.27751V12.3802H6.36735C6.30304 12.3802 6.23973 12.3961 6.18303 12.4264C6.12634 12.4568 6.07801 12.5006 6.04235 12.5541L5.2611 13.726C5.14141 13.9055 5.18993 14.148 5.36943 14.2677C5.54894 14.3874 5.79146 14.3389 5.91113 14.1594L6.57641 13.1615H7.27753V13.9427C7.27753 14.1584 7.45243 14.3333 7.66816 14.3333C7.88389 14.3333 8.05878 14.1584 8.05878 13.9427V13.1615H8.7599L9.42519 14.1594C9.54524 14.3395 9.7879 14.3871 9.96688 14.2677C10.1464 14.148 10.1949 13.9055 10.0752 13.726L9.29396 12.5541C9.2583 12.5006 9.20997 12.4568 9.15328 12.4264C9.09658 12.3961 9.03327 12.3802 8.96897 12.3802H8.05881V10.401H10.2737C10.7763 10.401 11.1851 9.99216 11.1851 9.48956V9.35935H4.15386V9.48956H4.15381Z" fill="black"/>
<path d="M13.9427 6.49512H1.39062C1.1749 6.49512 1 6.67001 1 6.88574V8.18783C1 8.40355 1.1749 8.57845 1.39062 8.57845H1.80729V13.917C1.80729 14.1327 1.98219 14.3076 2.19792 14.3076C2.41365 14.3076 2.58854 14.1327 2.58854 13.917V8.57845H12.7474V13.917C12.7474 14.1327 12.9223 14.3076 13.138 14.3076C13.3538 14.3076 13.5286 14.1327 13.5286 13.917V8.57845H13.9427C14.1584 8.57845 14.3333 8.40355 14.3333 8.18783V6.88574C14.3333 6.67001 14.1584 6.49512 13.9427 6.49512Z" fill="black"/>
</svg>
