<svg width="16" height="16" viewBox="0 0 16 16" fill="none" xmlns="http://www.w3.org/2000/svg">
<path d="M7.09997 4.74425C7.8836 4.74425 8.5139 4.13258 8.5139 3.37212C8.5139 2.61167 7.8836 2 7.09997 2C6.31634 2 5.68604 2.61167 5.68604 3.37212C5.68604 4.11605 6.31634 4.74425 7.09997 4.74425ZM13.6245 12.3488C13.4882 12.0843 13.2327 12.0182 12.909 12.0843L12.5002 12.1835L11.0181 9.14166C10.95 9.02594 10.8648 8.92675 10.7455 8.84409C10.5922 8.76143 10.4219 8.72837 10.2515 8.7449H8.5139C8.36059 8.7449 8.2243 8.61265 8.2243 8.46386V6.1825C8.2243 5.60389 7.74731 5.14101 7.15108 5.14101H6.98072C6.38448 5.14101 5.90749 5.60389 5.90749 6.1825V9.20779C5.90749 9.85252 6.45263 10.3815 7.11701 10.3815H10.0641C10.0641 10.3815 11.444 13.225 11.461 13.2415C11.5973 13.506 11.9039 13.6052 12.1765 13.4895L13.3349 12.9935C13.5904 12.9109 13.7267 12.6298 13.6415 12.3819C13.6245 12.3653 13.6245 12.3488 13.6245 12.3488Z" fill="black"/>
<path d="M5.25997 7.78585V8.71162C5.25997 8.77775 5.2259 8.84388 5.17479 8.87694C3.8801 9.81924 3.62457 11.6212 4.59559 12.8776C5.5666 14.134 7.42346 14.382 8.71814 13.4397C9.29735 13.0098 9.7062 12.3982 9.84248 11.6873C9.84248 11.6543 9.87655 11.6212 9.91062 11.6377C9.92766 11.6377 9.94469 11.6543 9.96173 11.6708L10.4728 12.6957C10.5069 12.7619 10.5069 12.828 10.4728 12.8941C9.4677 14.7622 7.09979 15.5061 5.15775 14.5638C3.21572 13.605 2.44913 11.2906 3.42015 9.40595C3.79493 8.67856 4.4082 8.09995 5.15775 7.71973C5.19183 7.71973 5.24293 7.73626 5.25997 7.78585C5.25997 7.76932 5.25997 7.76932 5.25997 7.78585Z" fill="black"/>
</svg>
