<svg width="16" height="16" viewBox="0 0 16 16" fill="none" xmlns="http://www.w3.org/2000/svg">
<path d="M14 14H1L1.43333 12.7C1.66319 12.7 1.88363 12.6087 2.04616 12.4462C2.20869 12.2836 2.3 12.0632 2.3 11.8333H7.06667V11.4H7.93333V11.8333H12.7C12.7 12.0632 12.7913 12.2836 12.9538 12.4462C13.1164 12.6087 13.3368 12.7 13.5667 12.7L14 14ZM1.86667 10.1C1.86667 9.98507 1.91232 9.87485 1.99359 9.79359C2.07485 9.71232 2.18507 9.66667 2.3 9.66667H2.30433C2.35633 7.27727 2.937 5.0612 7.06667 4.9143V4.46667C6.95174 4.46667 6.84152 4.42101 6.76025 4.33975C6.67899 4.25848 6.63333 4.14826 6.63333 4.03333C6.63333 3.91841 6.67899 3.80819 6.76025 3.72692C6.84152 3.64565 6.95174 3.6 7.06667 3.6H7.93333C8.04826 3.6 8.15848 3.64565 8.23975 3.72692C8.32101 3.80819 8.36667 3.91841 8.36667 4.03333C8.36667 4.14826 8.32101 4.25848 8.23975 4.33975C8.15848 4.42101 8.04826 4.46667 7.93333 4.46667V4.9143C12.0634 5.0612 12.6437 7.27727 12.6957 9.66667H12.7C12.8149 9.66667 12.9251 9.71232 13.0064 9.79359C13.0877 9.87485 13.1333 9.98507 13.1333 10.1C13.1333 10.2149 13.0877 10.3251 13.0064 10.4064C12.9251 10.4877 12.8149 10.5333 12.7 10.5333H2.3C2.18507 10.5333 2.07485 10.4877 1.99359 10.4064C1.91232 10.3251 1.86667 10.2149 1.86667 10.1ZM7.93463 7.06233C7.93007 7.1191 7.93674 7.17622 7.95427 7.23041C7.9718 7.2846 7.99984 7.3348 8.03679 7.37815C8.07373 7.42149 8.11886 7.45713 8.16959 7.48302C8.22032 7.50891 8.27566 7.52455 8.33243 7.52903C9.65973 7.63433 9.86557 8.02 9.98387 8.47543C9.99815 8.53052 10.0231 8.58225 10.0574 8.62768C10.0917 8.6731 10.1346 8.71133 10.1836 8.74018C10.2327 8.76904 10.2869 8.78794 10.3433 8.79583C10.3997 8.80371 10.457 8.80042 10.5121 8.78613C10.5672 8.77185 10.6189 8.74686 10.6643 8.71258C10.7098 8.6783 10.748 8.63542 10.7769 8.58637C10.8057 8.53731 10.8246 8.48306 10.8325 8.4267C10.8404 8.37034 10.8371 8.31299 10.8228 8.2579C10.5593 7.24173 9.85733 6.78023 8.4009 6.66497C8.34408 6.66005 8.28686 6.66648 8.23255 6.68388C8.17823 6.70128 8.12792 6.7293 8.08454 6.76631C8.04115 6.80333 8.00556 6.8486 7.97983 6.89949C7.95409 6.95038 7.93873 7.00588 7.93463 7.06277V7.06233ZM7.5 2.73333C7.61493 2.73333 7.72515 2.68768 7.80641 2.60641C7.88768 2.52515 7.93333 2.41493 7.93333 2.3V1.43333C7.93333 1.31841 7.88768 1.20819 7.80641 1.12692C7.72515 1.04565 7.61493 1 7.5 1C7.38507 1 7.27485 1.04565 7.19359 1.12692C7.11232 1.20819 7.06667 1.31841 7.06667 1.43333V2.3C7.06667 2.41493 7.11232 2.52515 7.19359 2.60641C7.27485 2.68768 7.38507 2.73333 7.5 2.73333ZM2.8603 3.47303C2.90045 3.51341 2.94819 3.54546 3.00076 3.56732C3.05334 3.58919 3.10972 3.60045 3.16667 3.60045C3.22361 3.60045 3.27999 3.58919 3.33257 3.56732C3.38515 3.54546 3.43288 3.51341 3.47303 3.47303C3.55427 3.39177 3.59991 3.28157 3.59991 3.16667C3.59991 3.05176 3.55427 2.94156 3.47303 2.8603L3.0397 2.42697C2.99973 2.38558 2.95191 2.35257 2.89904 2.32986C2.84617 2.30715 2.78931 2.29519 2.73177 2.29469C2.67424 2.29419 2.61717 2.30516 2.56392 2.32694C2.51066 2.34873 2.46228 2.38091 2.4216 2.4216C2.38091 2.46228 2.34873 2.51066 2.32694 2.56392C2.30516 2.61717 2.29419 2.67424 2.29469 2.73177C2.29519 2.78931 2.30715 2.84617 2.32986 2.89904C2.35257 2.95191 2.38558 2.99973 2.42697 3.0397L2.8603 3.47303ZM11.8333 3.6C11.8902 3.60006 11.9466 3.58887 11.9992 3.56708C12.0518 3.54529 12.0995 3.51333 12.1397 3.47303L12.573 3.0397C12.6144 2.99973 12.6474 2.95191 12.6701 2.89904C12.6929 2.84617 12.7048 2.78931 12.7053 2.73177C12.7058 2.67424 12.6948 2.61717 12.6731 2.56392C12.6513 2.51066 12.6191 2.46228 12.5784 2.4216C12.5377 2.38091 12.4893 2.34873 12.4361 2.32694C12.3828 2.30516 12.3258 2.29419 12.2682 2.29469C12.2107 2.29519 12.1538 2.30715 12.101 2.32986C12.0481 2.35257 12.0003 2.38558 11.9603 2.42697L11.527 2.8603C11.4664 2.9209 11.4251 2.99811 11.4084 3.08215C11.3917 3.1662 11.4003 3.25331 11.4331 3.33248C11.4659 3.41165 11.5214 3.47932 11.5926 3.52694C11.6639 3.57456 11.7476 3.59998 11.8333 3.6Z" fill="black"/>
</svg>
