<svg width="16" height="16" viewBox="0 0 16 16" fill="none" xmlns="http://www.w3.org/2000/svg">
<path d="M10.6869 10.073C10.9954 10.6849 11.1596 11.3646 11.1596 12.0618C11.1596 12.5914 10.7263 13.0222 10.1937 13.0222C9.66125 13.0222 9.22796 12.5913 9.22796 12.0617C9.22796 11.9028 9.21309 11.7462 9.18423 11.5933C9.87814 11.3247 10.4286 10.7688 10.6869 10.073ZM7.30103 11.5933C7.27198 11.7478 7.25737 11.9046 7.25739 12.0618C7.25739 12.5913 6.8241 13.0222 6.29155 13.0222C5.75901 13.0222 5.32581 12.5913 5.32581 12.0618C5.32581 11.3646 5.48994 10.6849 5.7985 10.073C6.05675 10.7687 6.60722 11.3247 7.30103 11.5933ZM4.77421 6.51755C4.38965 6.13517 4.38965 5.51298 4.77421 5.13053C4.96042 4.94528 5.20818 4.84326 5.47158 4.84326C5.73498 4.84326 5.98267 4.94528 6.16884 5.13053C6.84272 5.80057 7.50159 6.11264 8.24269 6.11264C8.98367 6.11264 9.64266 5.80057 10.3164 5.13055C10.7009 4.74815 11.3266 4.74815 11.7112 5.13055C11.8974 5.31579 12 5.56207 12 5.82402C12 6.08596 11.8974 6.33228 11.7111 6.51753C11.3276 6.89897 10.7133 7.37712 10.192 7.6404V8.39824H6.29324V7.6404C5.77202 7.37712 5.15778 6.89906 4.77421 6.51755ZM10.1921 9.04964V9.17855C10.1921 10.2475 9.3176 11.1172 8.24269 11.1172C7.16777 11.1172 6.29324 10.2475 6.29324 9.17855V9.04964H10.1921Z" fill="black"/>
<path d="M8.2428 5.60957C7.57433 5.60957 6.98953 5.24806 6.67463 4.71155C6.51285 4.43646 6.42771 4.12347 6.42798 3.80479C6.42798 2.80963 7.24213 2 8.2428 2C9.24346 2 10.0576 2.80965 10.0576 3.80479C10.0576 4.13519 9.96748 4.4448 9.81095 4.71146C9.49604 5.24797 8.91124 5.60957 8.2428 5.60957Z" fill="black"/>
</svg>
