<svg width="16" height="16" viewBox="0 0 16 16" fill="none" xmlns="http://www.w3.org/2000/svg">
<path d="M7.18308 2C6.98915 2 6.83236 2.18131 6.83236 2.40518H6.82947V5.64757C6.82947 5.75506 6.79221 5.85815 6.72587 5.93416C6.65954 6.01017 6.56957 6.05287 6.47576 6.05287C6.38195 6.05287 6.29198 6.01017 6.22565 5.93416C6.15932 5.85815 6.12205 5.75506 6.12205 5.64757V2.40518H6.11937C6.11937 2.18131 5.96217 2 5.76845 2C5.57452 2 5.41752 2.18131 5.41752 2.40518H5.41484V5.64757C5.41484 5.75506 5.37757 5.85815 5.31124 5.93416C5.24491 6.01017 5.15494 6.05287 5.06113 6.05287C4.96732 6.05287 4.87735 6.01017 4.81102 5.93416C4.74469 5.85815 4.70742 5.75506 4.70742 5.64757V2.40518C4.70742 2.18131 4.55022 2 4.3567 2C4.16277 2 4.00557 2.18131 4.00557 2.40518H4V6.45769C4 6.95625 4.43654 7.3846 5.06103 7.57229V12.5366C5.06419 12.7491 5.14011 12.9518 5.27241 13.1008C5.40471 13.2498 5.58282 13.3333 5.76834 13.3333C5.95387 13.3333 6.13197 13.2498 6.26427 13.1008C6.39658 12.9518 6.47249 12.7491 6.47566 12.5366V7.57229C7.10014 7.3846 7.53668 6.95625 7.53668 6.45769V2.40518H7.534C7.534 2.18131 7.3768 2 7.18308 2ZM10.8966 2C9.62697 2 8.59792 4.54006 8.59792 7.67347C8.59792 7.94863 8.60576 8.21931 8.62123 8.48407H9.65894V12.5361C9.66211 12.7487 9.73803 12.9513 9.87033 13.1003C10.0026 13.2493 10.1807 13.3329 10.3663 13.3329C10.5518 13.3329 10.7299 13.2493 10.8622 13.1003C10.9945 12.9513 11.0704 12.7487 11.0736 12.5361V2.01655C11.0151 2.00554 10.9559 2 10.8966 2Z" fill="black"/>
</svg>
