<svg width="16" height="16" viewBox="0 0 16 16" fill="none" xmlns="http://www.w3.org/2000/svg">
<path d="M8.36479 6.20991C8.42015 6.19127 8.49038 6.10041 8.494 6.04277C8.5752 4.65262 7.4273 2.7994 7.01391 2.18066C6.68112 2.31332 6.3573 2.52773 6.05835 2.85448C6.05835 2.85448 5.46132 3.25513 5.24951 5.20182C6.36618 6.64798 7.75373 6.41149 8.36479 6.20991Z" fill="black"/>
<path d="M12.7935 3.74221L10.9641 3.29568C10.9641 3.29568 10.912 2.85431 10.3932 2.67295C10.0151 2.54044 8.71231 1.79166 7.43046 2.05612C7.9151 2.7938 8.99319 4.61212 8.90794 6.0665C8.89526 6.29518 8.71347 6.53144 8.49493 6.60366C8.28484 6.67357 7.9078 6.77034 7.44956 6.77034C6.78565 6.77034 5.95176 6.56615 5.20052 5.78117C5.18578 6.03062 5.17737 6.30043 5.17588 6.59237C5.16747 8.09816 3.25475 9.52587 3.25475 9.52587L3 10.0538C3.51996 11.1796 4.33507 12.1419 5.34702 12.8403C5.3929 12.1211 5.57324 11.5577 5.78211 11.1343C6.1777 10.3302 6.73248 9.8839 7.01558 9.69505C7.07647 8.03537 7.61517 7.55031 8.06458 7.43941C8.13279 7.42247 8.20392 7.42097 8.27278 7.43502C8.34164 7.44907 8.4065 7.47831 8.46263 7.52061C8.59291 7.61784 8.67671 7.77834 8.68521 7.95063C8.70832 8.39674 8.97199 8.70992 9.09702 8.8343C9.29977 8.85317 9.4933 8.88529 9.6755 8.92944L9.69224 8.77295L9.83149 7.42077C9.8551 7.19256 10.0602 7.00018 10.2873 6.96764C11.1495 6.84206 13.0704 6.33134 13.1953 4.25599C13.2097 4.02708 13.0163 3.79687 12.7935 3.74221ZM9.94336 4.22429C9.81429 4.22429 9.70948 4.11995 9.70948 3.99073C9.70948 3.86152 9.81429 3.75718 9.94336 3.75718C9.97405 3.75713 10.0045 3.76313 10.0328 3.77485C10.0612 3.78657 10.087 3.80377 10.1087 3.82547C10.1304 3.84716 10.1476 3.87293 10.1593 3.90129C10.171 3.92965 10.1771 3.96004 10.177 3.99073C10.1766 4.11971 10.0725 4.22429 9.94336 4.22429Z" fill="black"/>
<path d="M10.9644 10.4036C10.8952 9.81522 10.0647 9.3304 8.99145 9.26152C8.99145 9.26152 8.42161 8.82345 8.38336 8.06727C8.37709 7.9528 8.29152 7.83902 8.18039 7.86644C7.89361 7.93699 7.40669 8.30516 7.38243 9.98659C7.38243 9.98659 5.82267 10.7735 5.70996 13.0421C6.70978 13.6428 7.87488 13.9952 9.11848 14.0157L9.10453 13.6907C9.09937 13.5762 9.18243 13.4507 9.28957 13.4105L10.6181 12.9123C10.6181 12.9123 11.2412 12.9472 11.5004 12.4795C11.6316 12.2437 11.7533 12.0789 11.8431 11.9727C11.9164 11.8854 11.9153 11.7606 11.8332 11.6808C11.5617 11.4188 11.016 10.8433 10.9644 10.4036ZM10.1763 10.9731C10.1456 10.9731 10.1152 10.9671 10.0869 10.9554C10.0586 10.9437 10.0328 10.9265 10.0112 10.9048C9.98947 10.8832 9.97228 10.8574 9.96055 10.8291C9.94883 10.8008 9.94281 10.7704 9.94284 10.7397C9.94277 10.7091 9.94877 10.6786 9.96047 10.6503C9.97217 10.6219 9.98936 10.5961 10.011 10.5744C10.0327 10.5527 10.0585 10.5354 10.0868 10.5237C10.1152 10.5119 10.1456 10.5059 10.1763 10.5059C10.207 10.5058 10.2374 10.5118 10.2658 10.5236C10.2942 10.5353 10.32 10.5525 10.3417 10.5743C10.3635 10.596 10.3807 10.6218 10.3924 10.6502C10.4042 10.6786 10.4102 10.709 10.4101 10.7397C10.4102 10.7704 10.4041 10.8008 10.3924 10.8292C10.3806 10.8575 10.3634 10.8833 10.3416 10.905C10.3199 10.9267 10.2941 10.9438 10.2657 10.9555C10.2374 10.9672 10.2069 10.9732 10.1763 10.9731Z" fill="black"/>
</svg>
