<svg width="16" height="16" viewBox="0 0 16 16" fill="none" xmlns="http://www.w3.org/2000/svg">
<path d="M14.6418 12.3691C14.3959 12.1985 14.0582 12.2594 13.8875 12.5053C13.2007 13.4947 11.2016 13.4953 10.5144 12.5053C10.4645 12.4334 10.398 12.3747 10.3204 12.3341C10.2429 12.2936 10.1567 12.2724 10.0692 12.2724C9.98166 12.2724 9.89545 12.2935 9.81791 12.3341C9.74037 12.3747 9.67381 12.4334 9.62392 12.5053C8.9371 13.4947 6.93801 13.4953 6.25081 12.5053C6.20091 12.4334 6.13435 12.3747 6.05681 12.3341C5.97928 12.2936 5.89307 12.2724 5.80557 12.2724C5.71806 12.2724 5.63186 12.2936 5.55432 12.3342C5.47679 12.3747 5.41023 12.4335 5.36034 12.5053C4.67352 13.4948 2.67445 13.4953 1.98725 12.5053C1.81655 12.2594 1.47882 12.1985 1.23298 12.3691C0.987083 12.5398 0.92611 12.8775 1.09681 13.1234C2.09183 14.5568 4.49732 14.712 5.80557 13.6098C6.95606 14.579 8.93214 14.5677 10.0691 13.6098C11.377 14.7117 13.7837 14.5555 14.7779 13.1234C14.9486 12.8775 14.8876 12.5398 14.6418 12.3691ZM3.65573 9.29173C3.95507 9.29173 4.19771 9.04909 4.19771 8.74978V7.93687H9.07549V8.74978C9.07549 9.04909 9.31814 9.29173 9.61747 9.29173C9.91681 9.29173 10.1595 9.04909 10.1595 8.74978V2.84262C10.1595 2.42427 10.4998 2.0839 10.9182 2.0839C11.3366 2.0839 11.677 2.42427 11.677 2.84262C11.677 3.14193 11.9196 3.38457 12.219 3.38457C12.5183 3.38457 12.761 3.14193 12.761 2.84262C12.761 1.8266 11.9343 1 10.9183 1C9.9022 1 9.07552 1.8266 9.07552 2.84262V4.41425H4.19771V2.84262C4.19771 2.42427 4.53807 2.0839 4.95648 2.0839C5.37489 2.0839 5.71525 2.42427 5.71525 2.84262C5.71525 3.14193 5.9579 3.38457 6.25723 3.38457C6.55657 3.38457 6.79921 3.14193 6.79921 2.84262C6.79918 1.8266 5.97256 1 4.95648 1C3.94041 1 3.11375 1.8266 3.11375 2.84262V8.74981C3.11375 9.04909 3.3564 9.29173 3.65573 9.29173ZM4.19771 5.49813H9.07549V6.85299H4.19771V5.49813Z" fill="black"/>
<path d="M5.80566 11.171C6.35129 11.6307 7.10806 11.893 7.93742 11.893C8.76678 11.893 9.52352 11.6307 10.0692 11.171C11.3771 12.2729 13.7838 12.1167 14.7779 10.6845C14.9486 10.4386 14.8876 10.101 14.6418 9.93029C14.3959 9.75965 14.0582 9.82059 13.8875 10.0665C13.2007 11.0559 11.2016 11.0564 10.5144 10.0665C10.4645 9.99459 10.398 9.93584 10.3204 9.89527C10.2429 9.85469 10.1567 9.8335 10.0692 9.8335C9.98166 9.83349 9.89545 9.85468 9.81791 9.89525C9.74037 9.93582 9.67381 9.99457 9.62392 10.0665C8.9371 11.0559 6.93801 11.0564 6.25081 10.0665C6.20091 9.99458 6.13435 9.93584 6.05681 9.89528C5.97928 9.85472 5.89307 9.83353 5.80557 9.83354C5.71806 9.83354 5.63186 9.85473 5.55432 9.8953C5.47679 9.93586 5.41023 9.9946 5.36034 10.0665C4.67352 11.0559 2.67445 11.0564 1.98725 10.0665C1.81655 9.82057 1.47882 9.75965 1.23298 9.93029C0.987083 10.101 0.92611 10.4386 1.09681 10.6845C2.09183 12.118 4.49732 12.2731 5.80566 11.171Z" fill="black"/>
</svg>
