<svg width="16" height="16" viewBox="0 0 16 16" fill="none" xmlns="http://www.w3.org/2000/svg">
<path d="M5.50802 5.56252C4.98873 5.88247 4.49819 6.25321 4.04268 6.67002C3.98678 6.53599 3.96971 6.38706 3.99368 6.24252C4.00908 6.14532 4.04239 6.05237 4.09166 5.9691C4.14094 5.88583 4.20519 5.81391 4.28068 5.75752L4.62368 5.49502C4.75591 5.39577 4.91599 5.3483 5.07703 5.36059C5.23807 5.37289 5.39026 5.44419 5.50802 5.56252ZM13.0657 4.48003C13.045 4.38254 13.006 4.29059 12.951 4.20979C12.8961 4.12899 12.8263 4.06102 12.746 4.01003C12.6255 3.93416 12.4865 3.8984 12.3469 3.90731C12.2074 3.91621 12.0734 3.96937 11.962 4.06003C12.4041 4.17863 12.7926 4.46118 13.0587 4.85753C13.0914 4.73445 13.0938 4.6044 13.0657 4.48003ZM14.9697 2.12754C14.9548 2.09886 14.9347 2.07364 14.9107 2.05332C14.8866 2.03301 14.859 2.018 14.8295 2.00917C14.8 2.00033 14.7692 1.99785 14.7388 2.00186C14.7084 2.00587 14.679 2.0163 14.6524 2.03254C13.9936 2.42334 13.3999 2.92853 12.8954 3.52753L12.9864 3.58003C13.0913 3.64826 13.1857 3.73343 13.2664 3.83253C13.7319 3.28662 14.2772 2.82559 14.8811 2.46753C14.9078 2.45153 14.9313 2.43002 14.9503 2.40424C14.9692 2.37845 14.9832 2.34891 14.9914 2.31731C14.9997 2.2857 15.002 2.25267 14.9983 2.2201C14.9945 2.18753 14.9848 2.15607 14.9697 2.12754ZM12.9 11.5H1.7C1.51435 11.5 1.3363 11.579 1.20503 11.7197C1.07375 11.8603 1 12.0511 1 12.25V12.75C1 12.8163 1.02458 12.8799 1.06834 12.9268C1.1121 12.9737 1.17145 13 1.23333 13H12.6667C12.7286 13 12.7879 12.9737 12.8317 12.9268C12.8755 12.8799 12.9 12.8163 12.9 12.75V11.5ZM9.8667 8.00002H8.93336C8.74771 8.00002 8.56966 8.07903 8.43839 8.21969C8.30711 8.36034 8.23336 8.5511 8.23336 8.75001V9.00001H10.5667V8.75001C10.5667 8.5511 10.493 8.36034 10.3617 8.21969C10.2304 8.07903 10.0524 8.00002 9.8667 8.00002ZM14.0177 10.4025C13.996 10.4328 13.9681 10.4573 13.9361 10.4742C13.9042 10.4911 13.869 10.4999 13.8334 10.5C13.6523 10.5002 13.4737 10.5455 13.3118 10.6322C13.1498 10.719 13.0088 10.8449 12.9 11H1.69767C2.37667 9.19751 4.79401 4.50003 11.5 4.50003C11.8194 4.50048 12.1298 4.61324 12.3835 4.82099C12.6373 5.02874 12.8204 5.31999 12.9047 5.65002L14.0574 10.185C14.0673 10.222 14.0689 10.2611 14.062 10.2989C14.0551 10.3367 14.0399 10.3722 14.0177 10.4025ZM12.354 9.18501L11.5887 6.18502C11.5756 6.13204 11.5466 6.08517 11.5061 6.05171C11.4656 6.01825 11.4159 6.00008 11.3647 6.00002H11.3624C9.74673 5.98183 8.15027 6.37603 6.70502 7.15002C6.47478 7.27614 6.29154 7.48256 6.18549 7.73524C6.07945 7.98793 6.05694 8.27179 6.12169 8.54001C6.18115 8.81453 6.32609 9.05916 6.53263 9.23365C6.73917 9.40814 6.99501 9.50208 7.25802 9.50001H12.1277C12.1637 9.50038 12.1992 9.49181 12.2316 9.47496C12.2639 9.45811 12.2922 9.43345 12.3141 9.40292C12.336 9.37238 12.3511 9.33681 12.358 9.299C12.3649 9.26119 12.3636 9.22217 12.354 9.18501Z" fill="black"/>
</svg>
