<svg width="16" height="16" viewBox="0 0 16 16" fill="none" xmlns="http://www.w3.org/2000/svg">
<path d="M3.29763 7.90119C3.003 8.19536 3.003 8.67412 3.29763 8.97117C3.59225 9.26535 4.07174 9.26535 4.36925 8.97117C6.40852 6.93503 9.72738 6.93503 11.7666 8.97117C11.914 9.11826 12.1075 9.19324 12.301 9.19324C12.4945 9.19324 12.6881 9.11826 12.8354 8.97117C13.13 8.677 13.13 8.19825 12.8354 7.90119C10.2069 5.27382 5.92614 5.27382 3.29763 7.90119Z" fill="black"/>
<path d="M5.34304 9.94327C5.04841 10.2374 5.04841 10.7162 5.34304 11.0132C5.63766 11.3074 6.11715 11.3074 6.41466 11.0132C7.32453 10.1019 8.80921 10.1019 9.71908 11.0132C9.86639 11.1603 10.0599 11.2353 10.2534 11.2353C10.447 11.2353 10.6405 11.1603 10.7878 11.0132C11.0824 10.7191 11.0824 10.2403 10.7878 9.94615C9.2887 8.44356 6.84505 8.44356 5.34304 9.94327Z" fill="black"/>
<path d="M8.06667 13.6664C8.62342 13.6664 9.07475 13.2157 9.07475 12.6599C9.07475 12.104 8.62342 11.6533 8.06667 11.6533C7.50993 11.6533 7.05859 12.104 7.05859 12.6599C7.05859 13.2157 7.50993 13.6664 8.06667 13.6664Z" fill="black"/>
<path d="M14.9123 5.82493C11.1371 2.05836 4.99621 2.05836 1.22097 5.82493C0.926344 6.1191 0.926344 6.59785 1.22097 6.89491C1.51559 7.18908 1.99508 7.18908 2.29259 6.89491C5.47569 3.7138 10.6576 3.7138 13.8436 6.89491C13.9909 7.04199 14.1844 7.11698 14.378 7.11698C14.5715 7.11698 14.765 7.04199 14.9123 6.89491C15.207 6.60073 15.207 6.12198 14.9123 5.82493Z" fill="black"/>
</svg>
