<svg width="16" height="16" viewBox="0 0 16 16" fill="none" xmlns="http://www.w3.org/2000/svg">
<path d="M10.4025 2.04173C10.4025 1.46725 9.93532 1.00006 9.36084 1.00006H5.97542C5.40094 1.00006 4.93376 1.46725 4.93376 2.04173V5.7136H10.4025V2.04173ZM4.15381 9.48962C4.15381 9.99222 4.56266 10.4011 5.06527 10.4011H7.27751V12.3802H6.36735C6.30304 12.3802 6.23973 12.3961 6.18303 12.4265C6.12634 12.4568 6.07801 12.5007 6.04235 12.5542L5.2611 13.7261C5.14141 13.9056 5.18993 14.1481 5.36943 14.2678C5.54894 14.3874 5.79146 14.339 5.91113 14.1594L6.57641 13.1615H7.27753V13.9428C7.27753 14.1585 7.45243 14.3334 7.66816 14.3334C7.88389 14.3334 8.05878 14.1585 8.05878 13.9428V13.1615H8.7599L9.42519 14.1594C9.54524 14.3395 9.7879 14.3871 9.96688 14.2678C10.1464 14.1481 10.1949 13.9056 10.0752 13.7261L9.29396 12.5542C9.2583 12.5007 9.20997 12.4568 9.15328 12.4265C9.09658 12.3961 9.03327 12.3802 8.96897 12.3802H8.05881V10.4011H10.2737C10.7763 10.4011 11.1851 9.99222 11.1851 9.48962V9.35941H4.15386V9.48962H4.15381Z" fill="black"/>
<path d="M13.9427 6.49487H1.39062C1.1749 6.49487 1 6.66977 1 6.8855V8.18758C1 8.40331 1.1749 8.57821 1.39062 8.57821H1.80729V13.9167C1.80729 14.1325 1.98219 14.3073 2.19792 14.3073C2.41365 14.3073 2.58854 14.1325 2.58854 13.9167V8.57821H12.7474V13.9167C12.7474 14.1325 12.9223 14.3073 13.138 14.3073C13.3538 14.3073 13.5286 14.1325 13.5286 13.9167V8.57821H13.9427C14.1584 8.57821 14.3333 8.40331 14.3333 8.18758V6.8855C14.3333 6.66977 14.1584 6.49487 13.9427 6.49487Z" fill="black"/>
</svg>
