<svg width="16" height="16" viewBox="0 0 16 16" fill="none" xmlns="http://www.w3.org/2000/svg">
<path d="M10.6869 10.0729C10.9954 10.6847 11.1596 11.3644 11.1596 12.0616C11.1596 12.5912 10.7263 13.0221 10.1937 13.0221C9.66125 13.0221 9.22796 12.5912 9.22796 12.0616C9.22796 11.9026 9.21309 11.746 9.18423 11.5931C9.87814 11.3246 10.4286 10.7686 10.6869 10.0729ZM7.30103 11.5931C7.27198 11.7476 7.25737 11.9044 7.25739 12.0616C7.25739 12.5912 6.8241 13.0221 6.29155 13.0221C5.75901 13.0221 5.32581 12.5912 5.32581 12.0616C5.32581 11.3644 5.48994 10.6847 5.7985 10.0729C6.05675 10.7685 6.60722 11.3246 7.30103 11.5931ZM4.77421 6.51736C4.38965 6.13499 4.38965 5.5128 4.77421 5.13034C4.96042 4.9451 5.20818 4.84308 5.47158 4.84308C5.73498 4.84308 5.98267 4.9451 6.16884 5.13034C6.84272 5.80039 7.50159 6.11245 8.24269 6.11245C8.98367 6.11245 9.64266 5.80039 10.3164 5.13036C10.7009 4.74797 11.3266 4.74797 11.7112 5.13036C11.8974 5.31561 12 5.56188 12 5.82383C12 6.08578 11.8974 6.3321 11.7111 6.51734C11.3276 6.89879 10.7133 7.37694 10.192 7.64022V8.39806H6.29324V7.64022C5.77202 7.37694 5.15778 6.89888 4.77421 6.51736ZM10.1921 9.04946V9.17837C10.1921 10.2473 9.3176 11.117 8.24269 11.117C7.16777 11.117 6.29324 10.2473 6.29324 9.17837V9.04946H10.1921Z" fill="black"/>
<path d="M8.2428 5.60951C7.57433 5.60951 6.98953 5.248 6.67463 4.71149C6.51285 4.4364 6.42771 4.12341 6.42798 3.80473C6.42798 2.80957 7.24213 1.99994 8.2428 1.99994C9.24346 1.99994 10.0576 2.80959 10.0576 3.80473C10.0576 4.13513 9.96748 4.44474 9.81095 4.7114C9.49604 5.24791 8.91124 5.60951 8.2428 5.60951Z" fill="black"/>
</svg>
