<svg width="16" height="16" viewBox="0 0 16 16" fill="none" xmlns="http://www.w3.org/2000/svg">
<path d="M14.6418 12.3692C14.3959 12.1986 14.0582 12.2595 13.8875 12.5054C13.2007 13.4948 11.2016 13.4954 10.5144 12.5054C10.4645 12.4335 10.398 12.3748 10.3204 12.3342C10.2429 12.2936 10.1567 12.2724 10.0692 12.2724C9.98166 12.2724 9.89545 12.2936 9.81791 12.3342C9.74037 12.3747 9.67381 12.4335 9.62392 12.5054C8.9371 13.4948 6.93801 13.4954 6.25081 12.5054C6.20091 12.4335 6.13435 12.3748 6.05681 12.3342C5.97928 12.2936 5.89307 12.2725 5.80557 12.2725C5.71806 12.2725 5.63186 12.2936 5.55432 12.3342C5.47679 12.3748 5.41023 12.4335 5.36034 12.5054C4.67352 13.4948 2.67445 13.4954 1.98725 12.5054C1.81655 12.2595 1.47882 12.1986 1.23298 12.3692C0.987083 12.5399 0.92611 12.8776 1.09681 13.1235C2.09183 14.5569 4.49732 14.712 5.80557 13.6099C6.95606 14.5791 8.93214 14.5677 10.0691 13.6099C11.377 14.7118 13.7837 14.5556 14.7779 13.1235C14.9486 12.8776 14.8876 12.5399 14.6418 12.3692ZM3.65573 9.2918C3.95507 9.2918 4.19771 9.04915 4.19771 8.74984V7.93693H9.07549V8.74984C9.07549 9.04915 9.31814 9.2918 9.61747 9.2918C9.91681 9.2918 10.1595 9.04915 10.1595 8.74984V2.84268C10.1595 2.42433 10.4998 2.08396 10.9182 2.08396C11.3366 2.08396 11.677 2.42433 11.677 2.84268C11.677 3.14199 11.9196 3.38463 12.219 3.38463C12.5183 3.38463 12.761 3.14199 12.761 2.84268C12.761 1.82666 11.9343 1.00006 10.9183 1.00006C9.9022 1.00006 9.07552 1.82666 9.07552 2.84268V4.41431H4.19771V2.84268C4.19771 2.42433 4.53807 2.08396 4.95648 2.08396C5.37489 2.08396 5.71525 2.42433 5.71525 2.84268C5.71525 3.14199 5.9579 3.38463 6.25723 3.38463C6.55657 3.38463 6.79921 3.14199 6.79921 2.84268C6.79918 1.82666 5.97256 1.00006 4.95648 1.00006C3.94041 1.00006 3.11375 1.82666 3.11375 2.84268V8.74987C3.11375 9.04915 3.3564 9.2918 3.65573 9.2918ZM4.19771 5.49819H9.07549V6.85305H4.19771V5.49819Z" fill="black"/>
<path d="M5.80566 11.1712C6.35129 11.6308 7.10806 11.8931 7.93742 11.8931C8.76678 11.8931 9.52352 11.6308 10.0692 11.1712C11.3771 12.273 13.7838 12.1168 14.7779 10.6847C14.9486 10.4388 14.8876 10.1011 14.6418 9.93047C14.3959 9.75983 14.0582 9.82078 13.8875 10.0667C13.2007 11.0561 11.2016 11.0566 10.5144 10.0667C10.4645 9.99477 10.398 9.93603 10.3204 9.89545C10.2429 9.85488 10.1567 9.83368 10.0692 9.83368C9.98166 9.83368 9.89545 9.85487 9.81791 9.89544C9.74037 9.93601 9.67381 9.99475 9.62392 10.0666C8.9371 11.0561 6.93801 11.0566 6.25081 10.0666C6.20091 9.99476 6.13435 9.93603 6.05681 9.89546C5.97928 9.8549 5.89307 9.83372 5.80557 9.83372C5.71806 9.83372 5.63186 9.85491 5.55432 9.89548C5.47679 9.93605 5.41023 9.99478 5.36034 10.0667C4.67352 11.0561 2.67445 11.0566 1.98725 10.0667C1.81655 9.82075 1.47882 9.75983 1.23298 9.93047C0.987083 10.1012 0.92611 10.4388 1.09681 10.6847C2.09183 12.1181 4.49732 12.2733 5.80566 11.1712Z" fill="black"/>
</svg>
