<svg width="16" height="16" viewBox="0 0 16 16" fill="none" xmlns="http://www.w3.org/2000/svg">
<path d="M3.29763 7.90131C3.003 8.19549 3.003 8.67424 3.29763 8.97129C3.59225 9.26547 4.07174 9.26547 4.36925 8.97129C6.40852 6.93516 9.72738 6.93516 11.7666 8.97129C11.914 9.11838 12.1075 9.19337 12.301 9.19337C12.4945 9.19337 12.6881 9.11838 12.8354 8.97129C13.13 8.67712 13.13 8.19837 12.8354 7.90131C10.2069 5.27394 5.92614 5.27394 3.29763 7.90131Z" fill="black"/>
<path d="M5.34304 9.94321C5.04841 10.2374 5.04841 10.7161 5.34304 11.0132C5.63766 11.3074 6.11715 11.3074 6.41466 11.0132C7.32453 10.1018 8.80921 10.1018 9.71908 11.0132C9.86639 11.1603 10.0599 11.2353 10.2534 11.2353C10.447 11.2353 10.6405 11.1603 10.7878 11.0132C11.0824 10.719 11.0824 10.2403 10.7878 9.94609C9.2887 8.4435 6.84505 8.4435 5.34304 9.94321Z" fill="black"/>
<path d="M8.06667 13.6666C8.62342 13.6666 9.07475 13.216 9.07475 12.6601C9.07475 12.1042 8.62342 11.6536 8.06667 11.6536C7.50993 11.6536 7.05859 12.1042 7.05859 12.6601C7.05859 13.216 7.50993 13.6666 8.06667 13.6666Z" fill="black"/>
<path d="M14.9123 5.82486C11.1371 2.0583 4.99621 2.0583 1.22097 5.82486C0.926344 6.11904 0.926344 6.59779 1.22097 6.89485C1.51559 7.18902 1.99508 7.18902 2.29259 6.89485C5.47569 3.71374 10.6576 3.71374 13.8436 6.89485C13.9909 7.04193 14.1844 7.11692 14.378 7.11692C14.5715 7.11692 14.765 7.04193 14.9123 6.89485C15.207 6.60067 15.207 6.12192 14.9123 5.82486Z" fill="black"/>
</svg>
