<svg width="2107" height="835" viewBox="0 0 2107 835" fill="none" xmlns="http://www.w3.org/2000/svg">
<path d="M606.894 3.26989C913.401 17.0099 1353.08 171.321 1298.04 524.333C1278 652.883 1205.17 755.335 1122.67 807.588C1090.96 827.67 1054.49 837.204 1014.87 834.011C984.284 831.547 947.842 818.74 913.401 798.076C849.985 760.026 827.196 741.095 777.058 686.042C723.155 626.854 764.375 575.065 797.139 559.211C881.057 518.606 1019.09 484.17 1154.38 571.894C1186.09 592.455 1211.35 546.756 1180.8 529.617C1051.86 457.269 881.693 437.665 688.276 491.568C642.517 504.321 580.161 506.119 545.592 498.967C514.941 492.625 483.664 479.073 453.64 457.746C350.734 384.653 155.75 257.217 23.4725 148.068C-8.23514 129.044 -17.7477 43.8623 59.4078 31.8068C260.373 0.405996 432.52 -4.54687 606.894 3.26989Z" fill="white" fill-opacity="0.04"/>
<path d="M1387.96 619.456C1271.7 637.423 1330.72 783.768 1392.19 799.133C1447.15 812.872 1542.27 704.009 1560.24 661.733C1566.08 647.993 1566.58 624.74 1536.99 619.456C1507.39 614.171 1444.36 610.739 1387.96 619.456Z" fill="white" fill-opacity="0.04"/>
<path d="M2037.97 0.0983654C1865.69 0.0983636 1782.19 8.55493 1641.62 90.9944C1493.26 178.001 1392.19 318.233 1353.08 459.86C1339.55 508.858 1352.04 529.484 1359.42 539.129C1367.51 549.699 1384.78 563.567 1430.24 565.552C1647.96 575.065 1812.46 503.194 1923.82 391.16C1966.89 347.826 2074.96 230.507 2104.55 84.6518C2109.69 59.3076 2105.97 30.2809 2085.53 13.838C2069.67 1.08876 2050.65 0.0983655 2037.97 0.0983654Z" fill="white" fill-opacity="0.04"/>
</svg>
