<svg width="16" height="16" viewBox="0 0 16 16" fill="none" xmlns="http://www.w3.org/2000/svg"><path d="M2.51622 7.03437V6.25961C2.51649 5.9809 2.61334 5.7137 2.78554 5.51662C2.95773 5.31955 3.1912 5.2087 3.43472 5.2084H5.38301C5.62653 5.2087 5.86 5.31955 6.03219 5.51662C6.20439 5.7137 6.30124 5.9809 6.30151 6.25961V7.03437H6.89916C6.98413 7.03436 7.06889 7.04399 7.1522 7.06312V5.57682C7.1518 5.15875 7.0065 4.75794 6.7482 4.46233C6.48989 4.16671 6.13968 4.00045 5.77439 4H3.04328C2.678 4.00047 2.3278 4.16674 2.06951 4.46235C1.81122 4.75796 1.66593 5.15876 1.66553 5.57682V7.06312C1.74884 7.04399 1.8336 7.03436 1.91857 7.03437H2.51622Z" fill="black"/><path d="M3.43472 5.62888C3.28861 5.62906 3.14853 5.69557 3.04521 5.81382C2.9419 5.93206 2.88378 6.09238 2.88362 6.25961V7.03437H5.93404V6.25961C5.93388 6.09238 5.87577 5.93206 5.77245 5.81382C5.66914 5.69557 5.52905 5.62906 5.38294 5.62888H3.43472ZM1.78583 11.2638H2.73673V12.1546H1.78583V11.2638ZM6.08093 11.2638H7.03183V12.1546H6.08093V11.2638ZM6.8991 7.45485H1.9185C1.67498 7.45516 1.44151 7.56601 1.26931 7.76308C1.09712 7.96016 1.00027 8.22736 1 8.50607V9.7299H7.81493V8.50607C7.81493 8.4868 7.81553 8.46784 7.81619 8.44873C7.80311 8.18037 7.70082 7.92791 7.5303 7.74311C7.35977 7.55831 7.13394 7.45518 6.8991 7.45485ZM1 10.1504H7.81493V10.8433H1V10.1504ZM8.84778 7.06312C8.93109 7.04399 9.01585 7.03436 9.10082 7.03437H9.69848V6.25961C9.69875 5.9809 9.7956 5.7137 9.9678 5.51662C10.14 5.31955 10.3735 5.2087 10.617 5.2084H12.5653C12.8088 5.2087 13.0423 5.31955 13.2144 5.51662C13.3866 5.7137 13.4835 5.9809 13.4838 6.25961V7.03437H14.0814C14.1664 7.03436 14.2512 7.04399 14.3345 7.06312V5.57682C14.3341 5.15876 14.1888 4.75796 13.9305 4.46235C13.6722 4.16674 13.322 4.00047 12.9567 4H10.2255C9.86026 4.00047 9.51006 4.16674 9.25177 4.46235C8.99348 4.75796 8.84819 5.15876 8.84778 5.57682V7.06312Z" fill="black"/><path d="M10.617 5.62891C10.4709 5.62909 10.3308 5.6956 10.2275 5.81384C10.1242 5.93209 10.0661 6.09241 10.0659 6.25963V7.03439H13.1167V6.25963C13.1165 6.09241 13.0584 5.93209 12.9551 5.81384C12.8518 5.6956 12.7117 5.62909 12.5656 5.62891H10.617ZM8.96838 11.2639H9.91928V12.1547H8.96838V11.2639ZM13.2636 11.2639H14.2144V12.1547H13.2636V11.2639ZM8.18262 10.1504H15.0002V10.8434H8.18262V10.1504ZM14.0817 7.45488H9.10112C8.8576 7.45518 8.62413 7.56603 8.45193 7.76311C8.27974 7.96018 8.18288 8.22739 8.18262 8.50609V9.72993H15.0002V8.50609C14.9999 8.22739 14.9031 7.96018 14.7309 7.76311C14.5587 7.56603 14.3252 7.45518 14.0817 7.45488Z" fill="black"/></svg>