<svg width="16" height="16" viewBox="0 0 16 16" fill="none" xmlns="http://www.w3.org/2000/svg"><path d="M7.18308 2.00012C6.98915 2.00012 6.83236 2.18144 6.83236 2.4053H6.82947V5.64769C6.82947 5.75518 6.79221 5.85827 6.72587 5.93428C6.65954 6.01029 6.56957 6.05299 6.47576 6.05299C6.38195 6.05299 6.29198 6.01029 6.22565 5.93428C6.15932 5.85827 6.12205 5.75518 6.12205 5.64769V2.4053H6.11937C6.11937 2.18144 5.96217 2.00012 5.76845 2.00012C5.57452 2.00012 5.41752 2.18144 5.41752 2.4053H5.41484V5.64769C5.41484 5.75518 5.37757 5.85827 5.31124 5.93428C5.24491 6.01029 5.15494 6.05299 5.06113 6.05299C4.96732 6.05299 4.87735 6.01029 4.81102 5.93428C4.74469 5.85827 4.70742 5.75518 4.70742 5.64769V2.4053C4.70742 2.18144 4.55022 2.00012 4.3567 2.00012C4.16277 2.00012 4.00557 2.18144 4.00557 2.4053H4V6.45781C4 6.95637 4.43654 7.38472 5.06103 7.57241V12.5367C5.06419 12.7493 5.14011 12.9519 5.27241 13.1009C5.40471 13.2499 5.58282 13.3335 5.76834 13.3335C5.95387 13.3335 6.13197 13.2499 6.26427 13.1009C6.39658 12.9519 6.47249 12.7493 6.47566 12.5367V7.57241C7.10014 7.38472 7.53668 6.95637 7.53668 6.45781V2.4053H7.534C7.534 2.18144 7.3768 2.00012 7.18308 2.00012ZM10.8966 2.00012C9.62697 2.00012 8.59792 4.54018 8.59792 7.67359C8.59792 7.94875 8.60576 8.21943 8.62123 8.48419H9.65894V12.5362C9.66211 12.7488 9.73803 12.9514 9.87033 13.1004C10.0026 13.2495 10.1807 13.333 10.3663 13.333C10.5518 13.333 10.7299 13.2495 10.8622 13.1004C10.9945 12.9514 11.0704 12.7488 11.0736 12.5362V2.01667C11.0151 2.00566 10.9559 2.00012 10.8966 2.00012Z" fill="black"/></svg>