<svg width="16" height="16" viewBox="0 0 16 16" fill="none" xmlns="http://www.w3.org/2000/svg">
<path d="M10.4023 2.04176C10.4023 1.46728 9.93507 1.00009 9.3606 1.00009H5.97518C5.4007 1.00009 4.93351 1.46728 4.93351 2.04176V5.71363H10.4023V2.04176ZM4.15356 9.48965C4.15356 9.99225 4.56242 10.4011 5.06502 10.4011H7.27726V12.3803H6.36711C6.3028 12.3803 6.23949 12.3961 6.18279 12.4265C6.12609 12.4568 6.07777 12.5007 6.04211 12.5542L5.26086 13.7261C5.14117 13.9056 5.18968 14.1481 5.36919 14.2678C5.54869 14.3875 5.79122 14.339 5.91088 14.1595L6.57617 13.1616H7.27729V13.9428C7.27729 14.1585 7.45218 14.3334 7.66791 14.3334C7.88364 14.3334 8.05854 14.1585 8.05854 13.9428V13.1616H8.75966L9.42494 14.1595C9.545 14.3395 9.78765 14.3871 9.96664 14.2678C10.1462 14.1481 10.1947 13.9056 10.075 13.7261L9.29372 12.5542C9.25806 12.5007 9.20973 12.4568 9.15303 12.4265C9.09634 12.3962 9.03303 12.3803 8.96872 12.3803H8.05856V10.4011H10.2734C10.776 10.4011 11.1849 9.99225 11.1849 9.48965V9.35944H4.15362V9.48965H4.15356Z" fill="black"/>
<path d="M13.9427 6.49487H1.39062C1.1749 6.49487 1 6.66977 1 6.8855V8.18758C1 8.40331 1.1749 8.57821 1.39062 8.57821H1.80729V13.9167C1.80729 14.1325 1.98219 14.3073 2.19792 14.3073C2.41365 14.3073 2.58854 14.1325 2.58854 13.9167V8.57821H12.7474V13.9167C12.7474 14.1325 12.9223 14.3073 13.138 14.3073C13.3538 14.3073 13.5286 14.1325 13.5286 13.9167V8.57821H13.9427C14.1584 8.57821 14.3333 8.40331 14.3333 8.18758V6.8855C14.3333 6.66977 14.1584 6.49487 13.9427 6.49487Z" fill="black"/>
</svg>
