<svg width="16" height="16" viewBox="0 0 16 16" fill="none" xmlns="http://www.w3.org/2000/svg">
<path d="M7.09973 4.74416C7.88335 4.74416 8.51366 4.13249 8.51366 3.37203C8.51366 2.61158 7.88335 1.99991 7.09973 1.99991C6.3161 1.99991 5.68579 2.61158 5.68579 3.37203C5.68579 4.11596 6.3161 4.74416 7.09973 4.74416ZM13.6243 12.3487C13.488 12.0842 13.2325 12.0181 12.9088 12.0842L12.4999 12.1834L11.0179 9.14157C10.9497 9.02585 10.8645 8.92666 10.7453 8.844C10.592 8.76134 10.4216 8.72828 10.2513 8.74481H8.51366C8.36034 8.74481 8.22406 8.61256 8.22406 8.46377V6.18241C8.22406 5.6038 7.74707 5.14092 7.15083 5.14092H6.98048C6.38424 5.14092 5.90725 5.6038 5.90725 6.18241V9.2077C5.90725 9.85243 6.45238 10.3814 7.11676 10.3814H10.0639C10.0639 10.3814 11.4437 13.2249 11.4608 13.2414C11.5971 13.5059 11.9037 13.6051 12.1763 13.4894L13.3347 12.9934C13.5902 12.9108 13.7265 12.6297 13.6413 12.3818C13.6243 12.3652 13.6243 12.3487 13.6243 12.3487Z" fill="black"/>
<path d="M5.25997 7.78594V8.71172C5.25997 8.77784 5.2259 8.84397 5.17479 8.87703C3.8801 9.81933 3.62457 11.6213 4.59559 12.8777C5.5666 14.1341 7.42346 14.3821 8.71814 13.4398C9.29735 13.0099 9.7062 12.3983 9.84248 11.6874C9.84248 11.6543 9.87655 11.6213 9.91062 11.6378C9.92766 11.6378 9.94469 11.6543 9.96173 11.6709L10.4728 12.6958C10.5069 12.762 10.5069 12.8281 10.4728 12.8942C9.4677 14.7623 7.09979 15.5062 5.15775 14.5639C3.21572 13.6051 2.44913 11.2906 3.42015 9.40604C3.79493 8.67865 4.4082 8.10005 5.15775 7.71982C5.19183 7.71982 5.24293 7.73635 5.25997 7.78594C5.25997 7.76941 5.25997 7.76941 5.25997 7.78594Z" fill="black"/>
</svg>
