<svg width="16" height="16" viewBox="0 0 16 16" fill="none" xmlns="http://www.w3.org/2000/svg">
<path d="M3.29787 7.90131C3.00325 8.19549 3.00325 8.67424 3.29787 8.97129C3.5925 9.26547 4.07198 9.26547 4.3695 8.97129C6.40876 6.93516 9.72762 6.93516 11.7669 8.97129C11.9142 9.11838 12.1077 9.19337 12.3013 9.19337C12.4948 9.19337 12.6883 9.11838 12.8356 8.97129C13.1302 8.67712 13.1302 8.19837 12.8356 7.90131C10.2071 5.27394 5.92639 5.27394 3.29787 7.90131Z" fill="black"/>
<path d="M5.34279 9.94324C5.04817 10.2374 5.04817 10.7162 5.34279 11.0132C5.63742 11.3074 6.11691 11.3074 6.41442 11.0132C7.32429 10.1019 8.80897 10.1019 9.71884 11.0132C9.86615 11.1603 10.0597 11.2353 10.2532 11.2353C10.4467 11.2353 10.6403 11.1603 10.7876 11.0132C11.0822 10.719 11.0822 10.2403 10.7876 9.94612C9.28845 8.44353 6.8448 8.44353 5.34279 9.94324Z" fill="black"/>
<path d="M8.06667 13.6666C8.62342 13.6666 9.07475 13.216 9.07475 12.6601C9.07475 12.1042 8.62342 11.6536 8.06667 11.6536C7.50993 11.6536 7.05859 12.1042 7.05859 12.6601C7.05859 13.216 7.50993 13.6666 8.06667 13.6666Z" fill="black"/>
<path d="M14.9123 5.82483C11.1371 2.05827 4.99621 2.05827 1.22097 5.82483C0.926344 6.11901 0.926344 6.59776 1.22097 6.89482C1.51559 7.18899 1.99508 7.18899 2.29259 6.89482C5.47569 3.71371 10.6576 3.71371 13.8436 6.89482C13.9909 7.0419 14.1844 7.11689 14.378 7.11689C14.5715 7.11689 14.765 7.0419 14.9123 6.89482C15.207 6.60064 15.207 6.12189 14.9123 5.82483Z" fill="black"/>
</svg>
