<svg width="16" height="16" viewBox="0 0 16 16" fill="none" xmlns="http://www.w3.org/2000/svg">
<path d="M12.6667 12.6666C14.0506 11.7441 14.6667 10.0999 14.6667 8.57328C14.6667 6.38662 13.0467 4.54663 10.8667 4.04663C11.1667 4.63996 11.3334 5.29996 11.3334 5.99996C11.3334 8.57996 9.09337 10.6666 6.33337 10.6666C6.00004 10.6666 5.56514 10.6093 5.33337 10.5533C5.33337 10.6666 5.56609 11.3081 5.80387 11.557C6.70387 12.6703 8.13049 13.2944 9.74382 13.2944C10 13.2944 11.6667 13.3333 12.6667 12.6666Z" fill="#8B5CF6"/>
<path d="M14.0883 13.026L14.0308 10.8668C13.1447 12.0929 12.1356 12.8124 11.7418 13.0189L13.1483 13.6541C13.5964 13.8586 14.0979 13.5181 14.0883 13.026Z" fill="#8B5CF6"/>
<g opacity="0.4">
<path d="M6.33337 10.6666C9.09337 10.6666 11.3334 8.57992 11.3334 5.99992C11.3334 5.29992 11.1667 4.63992 10.8667 4.04659C10.0867 2.44659 8.34671 1.33325 6.33337 1.33325C3.57337 1.33325 1.33337 3.41992 1.33337 5.99992C1.33337 7.52658 2.12004 8.8799 3.33337 9.73324C3.77782 10.0444 5.00004 10.6666 6.33337 10.6666Z" fill="#8B5CF6"/>
<path d="M3.07795 10.5162L4.00004 10.1077C2.80466 9.51709 2.01088 8.34256 1.75023 7.86676L1.61811 10.1146C1.60553 10.6066 2.10801 10.9442 2.5543 10.7482L3.07795 10.5162Z" fill="#8B5CF6"/>
</g>
</svg>
