<svg width="16" height="16" viewBox="0 0 16 16" fill="none" xmlns="http://www.w3.org/2000/svg">
<path opacity="0.4" d="M8.00001 14.6666C11.6819 14.6666 14.6667 11.6818 14.6667 7.99992C14.6667 4.31802 11.6819 1.33325 8.00001 1.33325C4.31811 1.33325 1.33334 4.31802 1.33334 7.99992C1.33334 11.6818 4.31811 14.6666 8.00001 14.6666Z" fill="#8B5CF6"/>
<path d="M12.4872 7.3869C12.841 6.93069 13.0645 6.35345 13.0645 5.72966C13.0645 4.28655 11.7983 3.01103 10.3459 3.01103H9.52655V1.69828C9.52655 1.31655 9.21 1 8.82828 1C8.44655 1 8.13 1.31655 8.13 1.69828V3.02034H7.21759H7.00345V1.69828C7.00345 1.31655 6.6869 1 6.30517 1C5.92345 1 5.62552 1.31655 5.62552 1.69828V3.02034H5.30896H3.69828C3.31655 3.02034 3 3.3369 3 3.71862C3 4.10034 3.31655 4.4169 3.69828 4.4169H4.61069V7.75V11.0831H3.69828C3.31655 11.0831 3 11.3997 3 11.7814C3 12.1631 3.31655 12.4797 3.69828 12.4797H5.30896H5.61621V13.8017C5.61621 14.1834 5.93276 14.5 6.31448 14.5C6.69621 14.5 7.01276 14.1834 7.01276 13.8017V12.4797H7.2269H8.13931V13.8017C8.13931 14.1834 8.45586 14.5 8.83759 14.5C9.21931 14.5 9.53586 14.1834 9.53586 13.8017V12.4797H11.0721C12.7293 12.4797 14.0793 11.26 14.0793 9.76103C14.0793 8.7369 13.4276 7.8431 12.4872 7.3869ZM7.2269 4.4169H10.3552C11.1 4.4169 11.6772 5.12448 11.6772 5.73897C11.6772 6.46517 11.0814 7.06103 10.3552 7.06103H6.00724V4.4169H7.2269ZM11.0721 11.0831H7.2269H6.00724V8.44828H10.3552H11.0721C11.9566 8.44828 12.6828 9.04414 12.6828 9.77034C12.6828 10.4966 11.9566 11.0831 11.0721 11.0831Z" fill="#8B5CF6"/>
</svg>
