<svg width="32" height="32" viewBox="0 0 32 32" fill="none" xmlns="http://www.w3.org/2000/svg">
<path d="M12 12V8.26693C12 6.77345 12 6.02616 12.2906 5.45573C12.5463 4.95396 12.954 4.54631 13.4557 4.29065C14.0262 4 14.7735 4 16.2669 4H23.7336C25.2271 4 25.9734 4 26.5438 4.29065C27.0456 4.54631 27.454 4.95396 27.7096 5.45573C28.0003 6.02616 28.0003 6.7729 28.0003 8.26637V15.7331C28.0003 17.2265 28.0003 17.9733 27.7096 18.5437C27.454 19.0455 27.0452 19.454 26.5435 19.7096C25.9736 20 25.228 20 23.7374 20H20M12 12H8.26693C6.77345 12 6.02616 12 5.45573 12.2906C4.95396 12.5463 4.54631 12.954 4.29065 13.4557C4 14.0262 4 14.7735 4 16.2669V23.7336C4 25.2271 4 25.9734 4.29065 26.5438C4.54631 27.0456 4.95396 27.454 5.45573 27.7096C6.0256 28 6.77199 28 8.26254 28H15.7381C17.2286 28 17.974 28 18.5438 27.7096C19.0456 27.454 19.454 27.0452 19.7096 26.5435C20 25.9736 20 25.228 20 23.7375V20M12 12H15.7336C17.2271 12 17.9734 12 18.5438 12.2906C19.0456 12.5463 19.454 12.954 19.7096 13.4557C20 14.0256 20 14.772 20 16.2626L20 20" stroke="#8B5CF6" stroke-width="1.5" stroke-linecap="round" stroke-linejoin="round"/>
</svg>
