<svg width="24" height="24" viewBox="0 0 24 24" fill="none" xmlns="http://www.w3.org/2000/svg">
<rect width="24" height="24" rx="12" fill="white" fill-opacity="0.08"/>
<path d="M18 16.4099C18 16.6394 17.9489 16.8753 17.8404 17.1048C17.7318 17.3343 17.5914 17.551 17.4062 17.755C17.0934 18.0993 16.7486 18.3479 16.3592 18.5073C15.9761 18.6666 15.5611 18.7495 15.1142 18.7495C14.4629 18.7495 13.767 18.5965 13.0328 18.2841C12.2986 17.9718 11.5643 17.551 10.8365 17.0219C10.1023 16.4864 9.40636 15.8935 8.74236 15.2369C8.08475 14.5739 7.49099 13.879 6.96107 13.1523C6.43753 12.4255 6.01615 11.6988 5.70969 10.9784C5.40323 10.2516 5.25 9.55676 5.25 8.89376C5.25 8.46026 5.32661 8.04589 5.47984 7.66339C5.63307 7.27451 5.87569 6.91751 6.21407 6.59876C6.62268 6.19714 7.0696 5.99951 7.54206 5.99951C7.72083 5.99951 7.8996 6.03776 8.05921 6.11426C8.22521 6.19076 8.37206 6.30551 8.48698 6.47126L9.9682 8.55589C10.0831 8.71526 10.1661 8.86189 10.2236 9.00214C10.281 9.13601 10.313 9.26989 10.313 9.39101C10.313 9.54401 10.2683 9.69701 10.1789 9.84364C10.0959 9.99026 9.97459 10.1433 9.82136 10.2963L9.33613 10.7999C9.2659 10.87 9.23398 10.9529 9.23398 11.0549C9.23398 11.1059 9.24036 11.1505 9.25313 11.2015C9.27228 11.2525 9.29144 11.2908 9.30421 11.329C9.41913 11.5394 9.61705 11.8135 9.89797 12.145C10.1853 12.4765 10.4917 12.8144 10.8237 13.1523C11.1685 13.4901 11.5005 13.8025 11.8389 14.0894C12.1709 14.3699 12.4454 14.5611 12.6625 14.6759C12.6944 14.6886 12.7327 14.7078 12.7774 14.7269C12.8285 14.746 12.8796 14.7524 12.937 14.7524C13.0456 14.7524 13.1286 14.7141 13.1988 14.644L13.684 14.1659C13.8436 14.0065 13.9969 13.8854 14.1437 13.8089C14.2906 13.7196 14.4374 13.675 14.597 13.675C14.7183 13.675 14.846 13.7005 14.9865 13.7579C15.1269 13.8153 15.2738 13.8981 15.4334 14.0065L17.5467 15.5046C17.7127 15.6194 17.8276 15.7533 17.8978 15.9126C17.9617 16.072 18 16.2314 18 16.4099Z" fill="white" stroke="#A1A1AA" stroke-width="0.492188" stroke-miterlimit="10"/>
<path d="M15.75 10.4995C15.75 10.1138 15.4479 9.52237 14.9979 9.04023C14.5864 8.59665 14.04 8.24951 13.5 8.24951" stroke="#A1A1AA" stroke-width="0.492188" stroke-linecap="round" stroke-linejoin="round"/>
<path d="M18 10.4995C18 8.01165 15.9879 5.99951 13.5 5.99951" stroke="#A1A1AA" stroke-width="0.492188" stroke-linecap="round" stroke-linejoin="round"/>
</svg>
