<svg width="20" height="20" viewBox="0 0 20 20" fill="none" xmlns="http://www.w3.org/2000/svg">
<path d="M10 0.5C15.2439 0.5 19.5 4.75614 19.5 10C19.5 15.2439 15.2439 19.5 10 19.5C4.75614 19.5 0.5 15.2439 0.5 10C0.5 4.75614 4.75614 0.5 10 0.5ZM14.1104 5.53027C13.8257 5.53027 13.5163 5.60817 12.9746 5.80469C12.4243 6.00434 11.5761 6.34914 10.1895 6.92773C9.21519 7.32949 7.27355 8.17034 4.3623 9.43652C4.11188 9.53777 3.88775 9.64891 3.71484 9.77637C3.55629 9.89328 3.34742 10.0928 3.31348 10.3936C3.2881 10.6163 3.35195 10.8211 3.4834 10.9854C3.60013 11.131 3.75277 11.2233 3.87891 11.2852C4.11917 11.4029 4.45916 11.4973 4.73828 11.5859C5.00079 11.6733 5.30812 11.7666 5.59961 11.8398C5.88272 11.9109 6.18754 11.9728 6.42578 11.9795V11.9785C6.898 11.9929 7.36354 11.7886 7.7998 11.4941C8.27902 11.1712 8.7182 10.878 9.11523 10.6113C8.99409 10.7238 8.91175 10.8012 8.88672 10.8262L8.88379 10.8291C8.81921 10.8948 8.75182 10.9587 8.68164 11.0254C8.61364 11.09 8.54023 11.1605 8.47168 11.2295C8.34249 11.3595 8.18165 11.5345 8.08789 11.7471C7.97905 11.9939 7.96567 12.2784 8.11328 12.5605C8.20995 12.7451 8.36371 12.9048 8.5498 13.0488L8.74512 13.1875C9.16636 13.465 9.50063 13.6933 9.8418 13.9258L10.9746 14.6875C11.1054 14.7739 11.2274 14.8623 11.3623 14.958C11.4924 15.0503 11.6334 15.1486 11.7803 15.2344C12.077 15.4077 12.4383 15.556 12.873 15.5186L12.8799 15.5176L12.8877 15.5166C13.4926 15.4466 13.8517 14.887 14.002 14.082C14.3316 12.314 14.9852 8.45329 15.1377 6.84766L15.1387 6.83594C15.1459 6.73516 15.142 6.62866 15.1396 6.5625L15.1367 6.47949L15.1455 6.43066L15.1357 6.3584C15.1186 6.22142 15.0597 5.96208 14.8193 5.76562H14.8203C14.6786 5.64756 14.5187 5.59332 14.4072 5.56641C14.2916 5.53851 14.1845 5.5303 14.1104 5.53027Z" fill="#1D1D20" stroke="#1D1D20"/>
</svg>
