<svg width="24" height="24" viewBox="0 0 24 24" fill="none" xmlns="http://www.w3.org/2000/svg">
<rect width="24" height="24" rx="12" fill="white" fill-opacity="0.08"/>
<path fill-rule="evenodd" clip-rule="evenodd" d="M15.6531 7.57525C15.8129 7.50862 15.9878 7.48564 16.1597 7.5087C16.3315 7.53176 16.494 7.60003 16.6302 7.70639C16.7664 7.81275 16.8713 7.95331 16.934 8.11346C16.9967 8.2736 17.0149 8.44747 16.9868 8.61696L15.5198 17.4304C15.3775 18.2806 14.4358 18.7681 13.6486 18.3446C12.9902 17.9904 12.0122 17.4445 11.1325 16.875C10.6927 16.5899 9.34541 15.677 9.51099 15.0273C9.65329 14.4719 11.9171 12.3846 13.2107 11.1437C13.7185 10.6562 13.4869 10.3749 12.8873 10.8234C11.3977 11.9368 9.00778 13.6301 8.21738 14.1067C7.52012 14.527 7.15662 14.5987 6.72197 14.527C5.92898 14.3963 5.19356 14.1938 4.59333 13.9472C3.78223 13.6141 3.82169 12.5096 4.59268 12.188L15.6531 7.57525Z" fill="white"/>
</svg>
