<svg width="24" height="24" viewBox="0 0 24 24" fill="none" xmlns="http://www.w3.org/2000/svg">
<rect width="24" height="24" rx="12" fill="white" fill-opacity="0.08"/>
<path d="M16.421 7H7.57894C7.07643 7 6.59449 7.19754 6.23916 7.54917C5.88383 7.90081 5.6842 8.37772 5.6842 8.875V15.125C5.6842 15.6223 5.88383 16.0992 6.23916 16.4508C6.59449 16.8025 7.07643 17 7.57894 17H16.421C16.9236 17 17.4055 16.8025 17.7608 16.4508C18.1162 16.0992 18.3158 15.6223 18.3158 15.125V8.875C18.3158 8.37772 18.1162 7.90081 17.7608 7.54917C17.4055 7.19754 16.9236 7 16.421 7ZM16.421 8.25L12.3158 11.0438C12.2198 11.0986 12.1109 11.1275 12 11.1275C11.8891 11.1275 11.7802 11.0986 11.6842 11.0438L7.57894 8.25H16.421Z" fill="white"/>
</svg>
