<svg width="16" height="16" viewBox="0 0 16 16" fill="none" xmlns="http://www.w3.org/2000/svg">
<path d="M13.6875 2.3125H2.3125C2.08065 2.31319 1.85849 2.4056 1.69455 2.56955C1.5306 2.73349 1.43819 2.95565 1.4375 3.1875V12.8125C1.43819 13.0444 1.5306 13.2665 1.69455 13.4305C1.85849 13.5944 2.08065 13.6868 2.3125 13.6875H13.6875C13.9194 13.6868 14.1415 13.5944 14.3055 13.4305C14.4694 13.2665 14.5618 13.0444 14.5625 12.8125V3.1875C14.5618 2.95565 14.4694 2.73349 14.3055 2.56955C14.1415 2.4056 13.9194 2.31319 13.6875 2.3125ZM13.6875 12.8125H2.3125V3.1875H13.6875V12.8125Z" fill="white"/>
<path d="M5.375 6.6875C6.09987 6.6875 6.6875 6.09987 6.6875 5.375C6.6875 4.65013 6.09987 4.0625 5.375 4.0625C4.65013 4.0625 4.0625 4.65013 4.0625 5.375C4.0625 6.09987 4.65013 6.6875 5.375 6.6875Z" fill="white"/>
<path d="M10.8919 6.7794C10.8169 6.72166 10.7254 6.68963 10.6308 6.68805C10.5362 6.68647 10.4437 6.71544 10.3669 6.77065L7.0725 9.16377L8.7 10.275C8.79253 10.3449 8.85367 10.4485 8.87007 10.5632C8.88646 10.678 8.85678 10.7946 8.7875 10.8875C8.74645 10.9415 8.69354 10.9854 8.63286 11.0157C8.57218 11.0461 8.50534 11.0621 8.4375 11.0625C8.34299 11.0616 8.25116 11.031 8.175 10.975L4.7625 8.52502C4.69884 8.47732 4.62303 8.44851 4.54375 8.4419C4.44752 8.42903 4.34985 8.45074 4.26812 8.50315L2.3125 9.72377V12.8125H13.6875V8.90565L10.8919 6.7794Z" fill="white"/>
</svg>
