<svg width="24" height="24" viewBox="0 0 24 24" fill="none" xmlns="http://www.w3.org/2000/svg">
<path d="M0 12C0 5.37258 5.37258 0 12 0C18.6274 0 24 5.37258 24 12C24 18.6274 18.6274 24 12 24C5.37258 24 0 18.6274 0 12Z" fill="white" fill-opacity="0.08"/>
<g clip-path="url(#clip0_58625_2145)">
<mask id="mask0_58625_2145" style="mask-type:luminance" maskUnits="userSpaceOnUse" x="4" y="4" width="16" height="16">
<path d="M19.4989 4.50098H4.50122V19.4986H19.4989V4.50098Z" fill="white"/>
</mask>
<g mask="url(#mask0_58625_2145)">
<path d="M14.6183 5.75098H9.38166C7.10701 5.75098 5.75098 7.10701 5.75098 9.38166V14.6121C5.75098 16.893 7.10701 18.249 9.38166 18.249H14.6121C16.8867 18.249 18.2428 16.893 18.2428 14.6183V9.38166C18.249 7.10701 16.893 5.75098 14.6183 5.75098ZM12 14.4246C10.6627 14.4246 9.57538 13.3373 9.57538 12C9.57538 10.6627 10.6627 9.57538 12 9.57538C13.3373 9.57538 14.4246 10.6627 14.4246 12C14.4246 13.3373 13.3373 14.4246 12 14.4246ZM15.6994 8.8005C15.6682 8.87549 15.6244 8.94423 15.5682 9.00672C15.5057 9.06296 15.437 9.1067 15.362 9.13795C15.287 9.16919 15.2057 9.18794 15.1245 9.18794C14.9558 9.18794 14.7996 9.12545 14.6808 9.00672C14.6246 8.94423 14.5808 8.87549 14.5496 8.8005C14.5184 8.72551 14.4996 8.64427 14.4996 8.56304C14.4996 8.4818 14.5184 8.40056 14.5496 8.32557C14.5808 8.24434 14.6246 8.18185 14.6808 8.11936C14.8246 7.97563 15.0433 7.90689 15.2432 7.95063C15.287 7.95688 15.3245 7.96938 15.362 7.98813C15.3995 8.00063 15.437 8.01937 15.4745 8.04437C15.5057 8.06312 15.5369 8.09436 15.5682 8.11936C15.6244 8.18185 15.6682 8.24434 15.6994 8.32557C15.7307 8.40056 15.7494 8.4818 15.7494 8.56304C15.7494 8.64427 15.7307 8.72551 15.6994 8.8005Z" fill="white"/>
</g>
</g>
<defs>
<clipPath id="clip0_58625_2145">
<rect width="14.9977" height="14.9977" fill="white" transform="translate(4.50122 4.50098)"/>
</clipPath>
</defs>
</svg>
