<svg width="21" height="21" viewBox="0 0 21 21" fill="none" xmlns="http://www.w3.org/2000/svg">
<mask id="path-1-inside-1_58618_8325" fill="white">
<path d="M0.720819 7.93539C1.11844 7.93539 1.44164 7.61219 1.44164 7.21457V2.46652L6.7 7.72489C6.83481 7.86075 7.01805 7.93752 7.20944 7.93832C7.40083 7.93911 7.5847 7.86387 7.72063 7.72914L7.72489 7.72489C7.85967 7.59011 7.93538 7.4073 7.93538 7.2167C7.93538 7.02609 7.85967 6.84329 7.72489 6.70851L2.46014 1.44377H7.21457C7.61219 1.44377 7.93539 1.12057 7.93539 0.722946C7.93539 0.325326 7.61219 3.94955e-07 7.21457 3.94955e-07H1.44376C1.06085 3.94955e-07 0.693627 0.152111 0.422869 0.422869C0.15211 0.693628 0 1.06086 0 1.44377V7.21457C0 7.61219 0.323199 7.93539 0.720819 7.93539ZM1.44376 20.2H7.21457C7.61219 20.2 7.93539 19.8768 7.93539 19.4791C7.93539 19.0815 7.61219 18.7583 7.21457 18.7583H2.46014L7.72701 13.4999C7.86179 13.3652 7.93751 13.1824 7.93751 12.9918C7.93751 12.8012 7.86179 12.6184 7.72701 12.4836C7.59221 12.3477 7.40897 12.2709 7.21758 12.2701C7.02619 12.2693 6.84232 12.3446 6.70638 12.4793L6.70213 12.4836L1.44376 17.7398V12.9854C1.44376 12.5878 1.12057 12.2646 0.722946 12.2646C0.325326 12.2646 0 12.5878 0 12.9854V18.7562C0 19.1391 0.15211 19.5063 0.422869 19.7771C0.693627 20.0478 1.06085 20.2 1.44376 20.2ZM18.7562 3.94955e-07H12.9854C12.5878 3.94955e-07 12.2646 0.3232 12.2646 0.72082C12.2646 1.11844 12.5878 1.44164 12.9854 1.44164H17.7398L12.4729 6.70851C12.3382 6.84329 12.2624 7.02609 12.2624 7.2167C12.2624 7.4073 12.3382 7.59011 12.4729 7.72489C12.6077 7.86075 12.791 7.93752 12.9824 7.93832C13.1738 7.93911 13.3576 7.86387 13.4936 7.72914L13.4978 7.72489L18.7562 2.46652V7.21457C18.7562 7.61219 19.0794 7.93539 19.477 7.93539C19.8746 7.93539 20.1978 7.61219 20.1978 7.21457V1.44377C20.1982 1.25423 20.1613 1.06647 20.089 0.891256C20.0167 0.716039 19.9106 0.556807 19.7766 0.422686C19.6427 0.288564 19.4836 0.182189 19.3085 0.109656C19.1334 0.0371238 18.9457 -0.00013995 18.7562 3.94955e-07ZM19.4791 12.2646C19.0815 12.2646 18.7583 12.5878 18.7583 12.9854V17.7398L13.4978 12.4814C13.363 12.3456 13.1798 12.2688 12.9884 12.268C12.797 12.2672 12.6131 12.3425 12.4772 12.4772L12.4729 12.4814C12.3382 12.6162 12.2624 12.799 12.2624 12.9896C12.2624 13.1802 12.3382 13.363 12.4729 13.4978L17.7398 18.7562H12.9854C12.5878 18.7562 12.2646 19.0794 12.2646 19.477C12.2646 19.8746 12.5878 20.1978 12.9854 20.1978H18.7562C18.9458 20.1978 19.1335 20.1605 19.3087 20.0879C19.4839 20.0154 19.643 19.909 19.7771 19.775C19.9111 19.6409 20.0175 19.4817 20.09 19.3066C20.1626 19.1314 20.2 18.9437 20.2 18.7541V12.9854C20.2 12.5878 19.8768 12.2646 19.4791 12.2646Z"/>
</mask>
<path d="M0.720819 7.93539C1.11844 7.93539 1.44164 7.61219 1.44164 7.21457V2.46652L6.7 7.72489C6.83481 7.86075 7.01805 7.93752 7.20944 7.93832C7.40083 7.93911 7.5847 7.86387 7.72063 7.72914L7.72489 7.72489C7.85967 7.59011 7.93538 7.4073 7.93538 7.2167C7.93538 7.02609 7.85967 6.84329 7.72489 6.70851L2.46014 1.44377H7.21457C7.61219 1.44377 7.93539 1.12057 7.93539 0.722946C7.93539 0.325326 7.61219 3.94955e-07 7.21457 3.94955e-07H1.44376C1.06085 3.94955e-07 0.693627 0.152111 0.422869 0.422869C0.15211 0.693628 0 1.06086 0 1.44377V7.21457C0 7.61219 0.323199 7.93539 0.720819 7.93539ZM1.44376 20.2H7.21457C7.61219 20.2 7.93539 19.8768 7.93539 19.4791C7.93539 19.0815 7.61219 18.7583 7.21457 18.7583H2.46014L7.72701 13.4999C7.86179 13.3652 7.93751 13.1824 7.93751 12.9918C7.93751 12.8012 7.86179 12.6184 7.72701 12.4836C7.59221 12.3477 7.40897 12.2709 7.21758 12.2701C7.02619 12.2693 6.84232 12.3446 6.70638 12.4793L6.70213 12.4836L1.44376 17.7398V12.9854C1.44376 12.5878 1.12057 12.2646 0.722946 12.2646C0.325326 12.2646 0 12.5878 0 12.9854V18.7562C0 19.1391 0.15211 19.5063 0.422869 19.7771C0.693627 20.0478 1.06085 20.2 1.44376 20.2ZM18.7562 3.94955e-07H12.9854C12.5878 3.94955e-07 12.2646 0.3232 12.2646 0.72082C12.2646 1.11844 12.5878 1.44164 12.9854 1.44164H17.7398L12.4729 6.70851C12.3382 6.84329 12.2624 7.02609 12.2624 7.2167C12.2624 7.4073 12.3382 7.59011 12.4729 7.72489C12.6077 7.86075 12.791 7.93752 12.9824 7.93832C13.1738 7.93911 13.3576 7.86387 13.4936 7.72914L13.4978 7.72489L18.7562 2.46652V7.21457C18.7562 7.61219 19.0794 7.93539 19.477 7.93539C19.8746 7.93539 20.1978 7.61219 20.1978 7.21457V1.44377C20.1982 1.25423 20.1613 1.06647 20.089 0.891256C20.0167 0.716039 19.9106 0.556807 19.7766 0.422686C19.6427 0.288564 19.4836 0.182189 19.3085 0.109656C19.1334 0.0371238 18.9457 -0.00013995 18.7562 3.94955e-07ZM19.4791 12.2646C19.0815 12.2646 18.7583 12.5878 18.7583 12.9854V17.7398L13.4978 12.4814C13.363 12.3456 13.1798 12.2688 12.9884 12.268C12.797 12.2672 12.6131 12.3425 12.4772 12.4772L12.4729 12.4814C12.3382 12.6162 12.2624 12.799 12.2624 12.9896C12.2624 13.1802 12.3382 13.363 12.4729 13.4978L17.7398 18.7562H12.9854C12.5878 18.7562 12.2646 19.0794 12.2646 19.477C12.2646 19.8746 12.5878 20.1978 12.9854 20.1978H18.7562C18.9458 20.1978 19.1335 20.1605 19.3087 20.0879C19.4839 20.0154 19.643 19.909 19.7771 19.775C19.9111 19.6409 20.0175 19.4817 20.09 19.3066C20.1626 19.1314 20.2 18.9437 20.2 18.7541V12.9854C20.2 12.5878 19.8768 12.2646 19.4791 12.2646Z" fill="white"/>
<path d="M1.44164 2.46652L5.06203 -1.15387L-3.67836 -9.89425V2.46652H1.44164ZM6.7 7.72489L10.3345 4.1187L10.3275 4.11159L10.3204 4.1045L6.7 7.72489ZM7.72063 7.72914L11.325 11.3655L11.3328 11.3577L11.3407 11.3499L7.72063 7.72914ZM7.72489 7.72489L11.3449 11.3456L11.3453 11.3452L7.72489 7.72489ZM7.72489 6.70851L11.3453 3.08816L11.3453 3.08812L7.72489 6.70851ZM2.46014 1.44377V-3.67623H-9.90063L-1.16025 5.06415L2.46014 1.44377ZM1.44376 20.2V25.32V20.2ZM2.46014 18.7583L-1.15732 15.135L-9.91477 23.8783H2.46014V18.7583ZM7.72701 13.4999L11.3445 17.1233L11.3474 17.1203L7.72701 13.4999ZM7.93751 12.9918H2.81751H7.93751ZM7.72701 12.4836L4.09248 16.0898L4.09953 16.0969L4.10659 16.1039L7.72701 12.4836ZM6.70638 12.4793L3.10203 8.84297L3.094 8.85093L3.086 8.85893L6.70638 12.4793ZM6.70213 12.4836L10.3218 16.1047L10.3225 16.104L6.70213 12.4836ZM1.44376 17.7398H-3.67623V30.097L5.06342 21.3609L1.44376 17.7398ZM0 18.7562H-5.12H0ZM18.7562 3.94955e-07V5.12L18.76 5.12L18.7562 3.94955e-07ZM17.7398 1.44164L21.3602 5.06203L30.1006 -3.67836H17.7398V1.44164ZM12.4729 6.70851L8.85255 3.08812L8.85252 3.08816L12.4729 6.70851ZM12.4729 7.72489L16.1075 4.1187L16.1004 4.1116L16.0934 4.10453L12.4729 7.72489ZM13.4936 7.72914L17.0979 11.3655L17.1056 11.3579L17.1133 11.3502L13.4936 7.72914ZM13.4978 7.72489L17.1175 11.346L17.1182 11.3453L13.4978 7.72489ZM18.7562 2.46652H23.8762V-9.89425L15.1358 -1.15387L18.7562 2.46652ZM20.1978 1.44377L15.0778 1.43243V1.44377H20.1978ZM18.7583 17.7398L15.1387 21.3609L23.8783 30.097V17.7398H18.7583ZM13.4978 12.4814L9.86329 16.0876L9.87071 16.0951L9.87817 16.1026L13.4978 12.4814ZM12.4772 12.4772L8.87284 8.84084L8.8648 8.8488L8.8568 8.8568L12.4772 12.4772ZM12.4729 12.4814L8.85255 8.86106L8.85252 8.86109L12.4729 12.4814ZM12.2624 12.9896H17.3824H12.2624ZM12.4729 13.4978L8.85252 17.1182L8.85548 17.1211L12.4729 13.4978ZM17.7398 18.7562V23.8762H30.1147L21.3573 15.1329L17.7398 18.7562ZM18.7562 20.1978V15.0778V20.1978ZM0.720819 7.93539V13.0554C3.94614 13.0554 6.56164 10.4399 6.56164 7.21457H1.44164H-3.67836C-3.67836 4.78449 -1.70926 2.81539 0.720819 2.81539V7.93539ZM1.44164 7.21457H6.56164V2.46652H1.44164H-3.67836V7.21457H1.44164ZM1.44164 2.46652L-2.17875 6.08691L3.07962 11.3453L6.7 7.72489L10.3204 4.1045L5.06203 -1.15387L1.44164 2.46652ZM6.7 7.72489L3.06548 11.3311C4.1564 12.4306 5.63929 13.0518 7.18811 13.0583L7.20944 7.93832L7.23077 2.81836C8.39681 2.82322 9.51322 3.29093 10.3345 4.1187L6.7 7.72489ZM7.20944 7.93832L7.18811 13.0583C8.73694 13.0647 10.225 12.4558 11.325 11.3655L7.72063 7.72914L4.11628 4.09279C4.94445 3.2719 6.06471 2.8135 7.23077 2.81836L7.20944 7.93832ZM7.72063 7.72914L11.3407 11.3499L11.3449 11.3456L7.72489 7.72489L4.10485 4.10416L4.10059 4.10841L7.72063 7.72914ZM7.72489 7.72489L11.3453 11.3452C12.4403 10.2503 13.0554 8.76518 13.0554 7.2167H7.93538H2.81538C2.81538 6.04943 3.27907 4.92994 4.10447 4.10453L7.72489 7.72489ZM7.93538 7.2167H13.0554C13.0554 5.6682 12.4403 4.18312 11.3453 3.08816L7.72489 6.70851L4.10447 10.3289C3.27908 9.50346 2.81538 8.38398 2.81538 7.2167H7.93538ZM7.72489 6.70851L11.3453 3.08812L6.08053 -2.17662L2.46014 1.44377L-1.16025 5.06415L4.1045 10.3289L7.72489 6.70851ZM2.46014 1.44377V6.56377H7.21457V1.44377V-3.67623H2.46014V1.44377ZM7.21457 1.44377V6.56377C10.4399 6.56377 13.0554 3.94826 13.0554 0.722946H7.93539H2.81539C2.81539 -1.70713 4.78449 -3.67623 7.21457 -3.67623V1.44377ZM7.93539 0.722946H13.0554C13.0554 -2.48273 10.4595 -5.12 7.21457 -5.12V3.94955e-07V5.12C4.76489 5.12 2.81539 3.13338 2.81539 0.722946H7.93539ZM7.21457 3.94955e-07V-5.12H1.44376V3.94955e-07V5.12H7.21457V3.94955e-07ZM1.44376 3.94955e-07V-5.12C-0.297053 -5.12 -1.96657 -4.42846 -3.19752 -3.19752L0.422869 0.422869L4.04326 4.04326C3.35383 4.73268 2.41876 5.12 1.44376 5.12V3.94955e-07ZM0.422869 0.422869L-3.19752 -3.19752C-4.42846 -1.96657 -5.12 -0.297053 -5.12 1.44377H0H5.12C5.12 2.41876 4.73268 3.35383 4.04326 4.04326L0.422869 0.422869ZM0 1.44377H-5.12V7.21457H0H5.12V1.44377H0ZM0 7.21457H-5.12C-5.12 10.4399 -2.5045 13.0554 0.720819 13.0554V7.93539V2.81539C3.1509 2.81539 5.12 4.78449 5.12 7.21457H0ZM1.44376 20.2V25.32H7.21457V20.2V15.08H1.44376V20.2ZM7.21457 20.2V25.32C10.4399 25.32 13.0554 22.7044 13.0554 19.4791H7.93539H2.81539C2.81539 17.0491 4.78449 15.08 7.21457 15.08V20.2ZM7.93539 19.4791H13.0554C13.0554 16.2538 10.4399 13.6383 7.21457 13.6383V18.7583V23.8783C4.78449 23.8783 2.81539 21.9092 2.81539 19.4791H7.93539ZM7.21457 18.7583V13.6383H2.46014V18.7583V23.8783H7.21457V18.7583ZM2.46014 18.7583L6.0776 22.3816L11.3445 17.1233L7.72701 13.4999L4.10955 9.87663L-1.15732 15.135L2.46014 18.7583ZM7.72701 13.4999L11.3474 17.1203C12.4424 16.0253 13.0575 14.5403 13.0575 12.9918H7.93751H2.81751C2.81751 11.8245 3.28121 10.705 4.10659 9.87959L7.72701 13.4999ZM7.93751 12.9918H13.0575C13.0575 11.4433 12.4424 9.95817 11.3474 8.86321L7.72701 12.4836L4.10659 16.1039C3.28121 15.2785 2.81751 14.159 2.81751 12.9918H7.93751ZM7.72701 12.4836L11.3615 8.87738C10.2706 7.7779 8.78775 7.15664 7.23891 7.15018L7.21758 12.2701L7.19625 17.3901C6.03019 17.3852 4.91378 16.9175 4.09248 16.0898L7.72701 12.4836ZM7.21758 12.2701L7.23891 7.15018C5.69007 7.14373 4.20207 7.75261 3.10203 8.84297L6.70638 12.4793L10.3107 16.1157C9.48256 16.9366 8.3623 17.395 7.19625 17.3901L7.21758 12.2701ZM6.70638 12.4793L3.086 8.85893L3.08174 8.86318L6.70213 12.4836L10.3225 16.104L10.3268 16.0997L6.70638 12.4793ZM6.70213 12.4836L3.08248 8.86245L-2.17589 14.1187L1.44376 17.7398L5.06342 21.3609L10.3218 16.1047L6.70213 12.4836ZM1.44376 17.7398H6.56376V12.9854H1.44376H-3.67623V17.7398H1.44376ZM1.44376 12.9854H6.56376C6.56376 9.76006 3.94826 7.14456 0.722946 7.14456V12.2646V17.3846C-1.70713 17.3846 -3.67623 15.4155 -3.67623 12.9854H1.44376ZM0.722946 12.2646V7.14456C-2.48273 7.14456 -5.12 9.74046 -5.12 12.9854H0H5.12C5.12 15.4351 3.13338 17.3846 0.722946 17.3846V12.2646ZM0 12.9854H-5.12V18.7562H0H5.12V12.9854H0ZM0 18.7562H-5.12C-5.12 20.497 -4.42846 22.1665 -3.19752 23.3975L0.422869 19.7771L4.04326 16.1567C4.73268 16.8461 5.12 17.7812 5.12 18.7562H0ZM0.422869 19.7771L-3.19752 23.3975C-1.96658 24.6284 -0.297057 25.32 1.44376 25.32V20.2V15.08C2.41877 15.08 3.35383 15.4673 4.04326 16.1567L0.422869 19.7771ZM18.7562 3.94955e-07V-5.12H12.9854V3.94955e-07V5.12H18.7562V3.94955e-07ZM12.9854 3.94955e-07V-5.12C9.76006 -5.12 7.14456 -2.5045 7.14456 0.72082H12.2646H17.3846C17.3846 3.1509 15.4155 5.12 12.9854 5.12V3.94955e-07ZM12.2646 0.72082H7.14456C7.14456 3.94614 9.76006 6.56164 12.9854 6.56164V1.44164V-3.67836C15.4155 -3.67836 17.3846 -1.70926 17.3846 0.72082H12.2646ZM12.9854 1.44164V6.56164H17.7398V1.44164V-3.67836H12.9854V1.44164ZM17.7398 1.44164L14.1194 -2.17875L8.85255 3.08812L12.4729 6.70851L16.0933 10.3289L21.3602 5.06203L17.7398 1.44164ZM12.4729 6.70851L8.85252 3.08816C7.75758 4.18311 7.14244 5.66819 7.14244 7.2167H12.2624H17.3824C17.3824 8.38399 16.9187 9.50347 16.0934 10.3289L12.4729 6.70851ZM12.2624 7.2167H7.14244C7.14244 8.7652 7.75758 10.2503 8.85252 11.3452L12.4729 7.72489L16.0934 4.10453C16.9187 4.92993 17.3824 6.04941 17.3824 7.2167H12.2624ZM12.4729 7.72489L8.83841 11.3311C9.92933 12.4306 11.4122 13.0518 12.961 13.0583L12.9824 7.93832L13.0037 2.81836C14.1698 2.82322 15.2862 3.29093 16.1075 4.1187L12.4729 7.72489ZM12.9824 7.93832L12.961 13.0583C14.5099 13.0647 15.9979 12.4558 17.0979 11.3655L13.4936 7.72914L9.88922 4.09279C10.7174 3.2719 11.8376 2.8135 13.0037 2.81836L12.9824 7.93832ZM13.4936 7.72914L17.1133 11.3502L17.1175 11.346L13.4978 7.72489L9.87812 4.10381L9.87387 4.10806L13.4936 7.72914ZM13.4978 7.72489L17.1182 11.3453L22.3766 6.08691L18.7562 2.46652L15.1358 -1.15387L9.87743 4.1045L13.4978 7.72489ZM18.7562 2.46652H13.6362V7.21457H18.7562H23.8762V2.46652H18.7562ZM18.7562 7.21457H13.6362C13.6362 10.4399 16.2517 13.0554 19.477 13.0554V7.93539V2.81539C21.9071 2.81539 23.8762 4.78449 23.8762 7.21457H18.7562ZM19.477 7.93539V13.0554C22.7023 13.0554 25.3178 10.4399 25.3178 7.21457H20.1978H15.0778C15.0778 4.78449 17.0469 2.81539 19.477 2.81539V7.93539ZM20.1978 7.21457H25.3178V1.44377H20.1978H15.0778V7.21457H20.1978ZM20.1978 1.44377L25.3178 1.4551C25.3197 0.591933 25.1513 -0.263136 24.8221 -1.0611L20.089 0.891256L15.3558 2.84361C15.1712 2.39608 15.0768 1.91652 15.0778 1.43243L20.1978 1.44377ZM20.089 0.891256L24.8221 -1.0611C24.493 -1.85906 24.0096 -2.58422 23.3997 -3.19503L19.7766 0.422686L16.1536 4.0404C15.8115 3.69784 15.5404 3.29114 15.3558 2.84361L20.089 0.891256ZM19.7766 0.422686L23.3997 -3.19503C22.7898 -3.80584 22.0653 -4.29029 21.2679 -4.62061L19.3085 0.109656L17.3492 4.83992C16.9019 4.65466 16.4956 4.38297 16.1536 4.0404L19.7766 0.422686ZM19.3085 0.109656L21.2679 -4.62061C20.4704 -4.95093 19.6156 -5.12064 18.7524 -5.12L18.7562 3.94955e-07L18.76 5.12C18.2759 5.12036 17.7965 5.02518 17.3492 4.83992L19.3085 0.109656ZM19.4791 12.2646V7.14456C16.2538 7.14456 13.6383 9.76006 13.6383 12.9854H18.7583H23.8783C23.8783 15.4155 21.9092 17.3846 19.4791 17.3846V12.2646ZM18.7583 12.9854H13.6383V17.7398H18.7583H23.8783V12.9854H18.7583ZM18.7583 17.7398L22.378 14.1187L17.1175 8.86032L13.4978 12.4814L9.87817 16.1026L15.1387 21.3609L18.7583 17.7398ZM13.4978 12.4814L17.1323 8.87525C16.0414 7.77577 14.5586 7.15451 13.0097 7.14806L12.9884 12.268L12.9671 17.388C11.801 17.3831 10.6846 16.9154 9.86329 16.0876L13.4978 12.4814ZM12.9884 12.268L13.0097 7.14806C11.4609 7.1416 9.97287 7.75049 8.87284 8.84084L12.4772 12.4772L16.0815 16.1135C15.2534 16.9344 14.1331 17.3928 12.9671 17.388L12.9884 12.268ZM12.4772 12.4772L8.8568 8.8568L8.85255 8.86106L12.4729 12.4814L16.0933 16.1018L16.0976 16.0976L12.4772 12.4772ZM12.4729 12.4814L8.85252 8.86109C7.75758 9.95605 7.14244 11.4411 7.14244 12.9896H12.2624H17.3824C17.3824 14.1569 16.9187 15.2764 16.0934 16.1018L12.4729 12.4814ZM12.2624 12.9896H7.14244C7.14244 14.5381 7.75758 16.0232 8.85252 17.1182L12.4729 13.4978L16.0934 9.87747C16.9187 10.7029 17.3824 11.8223 17.3824 12.9896H12.2624ZM12.4729 13.4978L8.85548 17.1211L14.1223 22.3795L17.7398 18.7562L21.3573 15.1329L16.0904 9.87451L12.4729 13.4978ZM17.7398 18.7562V13.6362H12.9854V18.7562V23.8762H17.7398V18.7562ZM12.9854 18.7562V13.6362C9.76006 13.6362 7.14456 16.2517 7.14456 19.477H12.2646H17.3846C17.3846 21.9071 15.4155 23.8762 12.9854 23.8762V18.7562ZM12.2646 19.477H7.14456C7.14456 22.7023 9.76006 25.3178 12.9854 25.3178V20.1978V15.0778C15.4155 15.0778 17.3846 17.0469 17.3846 19.477H12.2646ZM12.9854 20.1978V25.3178H18.7562V20.1978V15.0778H12.9854V20.1978ZM18.7562 20.1978V25.3178C19.6181 25.3178 20.4717 25.1481 21.268 24.8182L19.3087 20.0879L17.3494 15.3577C17.7954 15.1729 18.2734 15.0778 18.7562 15.0778V20.1978ZM19.3087 20.0879L21.268 24.8182C22.0644 24.4883 22.788 24.0048 23.3975 23.3953L19.7771 19.775L16.1567 16.1546C16.4981 15.8132 16.9033 15.5424 17.3494 15.3577L19.3087 20.0879ZM19.7771 19.775L23.3975 23.3953C24.007 22.7858 24.4905 22.0623 24.8203 21.2659L20.09 19.3066L15.3598 17.3472C15.5445 16.9012 15.8153 16.4959 16.1567 16.1546L19.7771 19.775ZM20.09 19.3066L24.8203 21.2659C25.1502 20.4696 25.32 19.616 25.32 18.7541H20.2H15.08C15.08 18.2713 15.175 17.7932 15.3598 17.3472L20.09 19.3066ZM20.2 18.7541H25.32V12.9854H20.2H15.08V18.7541H20.2ZM20.2 12.9854H25.32C25.32 9.76006 22.7044 7.14456 19.4791 7.14456V12.2646V17.3846C17.0491 17.3846 15.08 15.4155 15.08 12.9854H20.2Z" fill="white" mask="url(#path-1-inside-1_58618_8325)"/>
</svg>
