<svg width="27" height="41" viewBox="0 0 27 41" fill="none" xmlns="http://www.w3.org/2000/svg">
<g clip-path="url(#clip0_56744_14157)">
<path opacity="0.04" d="M13.5 40.0503C19.299 40.0503 24 37.6998 24 34.8003C24 31.9008 19.299 29.5503 13.5 29.5503C7.70101 29.5503 3 31.9008 3 34.8003C3 37.6998 7.70101 40.0503 13.5 40.0503Z" fill="#3F3F46"/>
<path opacity="0.04" d="M13.5 40.0503C19.299 40.0503 24 37.6998 24 34.8003C24 31.9008 19.299 29.5503 13.5 29.5503C7.70101 29.5503 3 31.9008 3 34.8003C3 37.6998 7.70101 40.0503 13.5 40.0503Z" fill="#3F3F46"/>
<path opacity="0.04" d="M13.5 39.5731C18.7467 39.5731 23 37.4363 23 34.8003C23 32.1644 18.7467 30.0276 13.5 30.0276C8.25329 30.0276 4 32.1644 4 34.8003C4 37.4363 8.25329 39.5731 13.5 39.5731Z" fill="#3F3F46"/>
<path opacity="0.04" d="M13.5 39.0958C18.1944 39.0958 22 37.1727 22 34.8003C22 32.428 18.1944 30.5048 13.5 30.5048C8.80558 30.5048 5 32.428 5 34.8003C5 37.1727 8.80558 39.0958 13.5 39.0958Z" fill="#3F3F46"/>
<path opacity="0.04" d="M13.5 38.6186C17.6421 38.6186 21 36.9091 21 34.8003C21 32.6916 17.6421 30.9821 13.5 30.9821C9.35786 30.9821 6 32.6916 6 34.8003C6 36.9091 9.35786 38.6186 13.5 38.6186Z" fill="#3F3F46"/>
<path opacity="0.04" d="M13.5 38.1412C17.0899 38.1412 20 36.6455 20 34.8003C20 32.9551 17.0899 31.4594 13.5 31.4594C9.91015 31.4594 7 32.9551 7 34.8003C7 36.6455 9.91015 38.1412 13.5 38.1412Z" fill="#3F3F46"/>
<path opacity="0.04" d="M13.5 37.664C16.5376 37.664 19 36.3819 19 34.8003C19 33.2188 16.5376 31.9366 13.5 31.9366C10.4624 31.9366 8 33.2188 8 34.8003C8 36.3819 10.4624 37.664 13.5 37.664Z" fill="#3F3F46"/>
<path opacity="0.04" d="M13.5 37.1867C15.9853 37.1867 18 36.1183 18 34.8003C18 33.4824 15.9853 32.4139 13.5 32.4139C11.0147 32.4139 9 33.4824 9 34.8003C9 36.1183 11.0147 37.1867 13.5 37.1867Z" fill="#3F3F46"/>
<path d="M27 13.5C27 19.0746 20.25 27 14.75 34.5C14.0167 35.5 12.9833 35.5 12.25 34.5C6.75 27 0 19.2226 0 13.5C0 6.04416 6.04416 0 13.5 0C20.9558 0 27 6.04416 27 13.5Z" fill="#8B5CF6"/>
<g opacity="0.25">
<path d="M13.5 0C6.04416 0 0 6.04416 0 13.5C0 19.2226 6.75 27 12.25 34.5C13 35.5227 14.0167 35.5 14.75 34.5C20.25 27 27 19.0746 27 13.5C27 6.04416 20.9558 0 13.5 0ZM13.5 1C20.4154 1 26 6.5846 26 13.5C26 15.8987 24.4956 19.1814 22.2207 22.7383C19.9458 26.2951 16.7051 30.1422 13.9434 33.9082C13.7434 34.1808 13.6127 34.3227 13.5 34.4414C13.3873 34.3227 13.2566 34.1808 13.0566 33.9082C10.2845 30.128 7.41487 26.3142 5.01562 22.7734C2.61638 19.2327 1 15.9535 1 13.5C1 6.5846 6.5846 1 13.5 1Z" fill="#3F3F46"/>
</g>
<path opacity="0.25" d="M13.5 19C16.5376 19 19 16.5376 19 13.5C19 10.4624 16.5376 8 13.5 8C10.4624 8 8 10.4624 8 13.5C8 16.5376 10.4624 19 13.5 19Z" fill="#3F3F46"/>
<path d="M13.5 19C16.5376 19 19 16.5376 19 13.5C19 10.4624 16.5376 8 13.5 8C10.4624 8 8 10.4624 8 13.5C8 16.5376 10.4624 19 13.5 19Z" fill="white"/>
</g>
<defs>
<clipPath id="clip0_56744_14157">
<rect width="27" height="41" fill="white"/>
</clipPath>
</defs>
</svg>
