<svg width="24" height="24" viewBox="0 0 24 24" fill="none" xmlns="http://www.w3.org/2000/svg">
<rect width="24" height="24" rx="12" fill="white" fill-opacity="0.08"/>
<path fill-rule="evenodd" clip-rule="evenodd" d="M19.1546 8.60395C19.2601 8.24868 19.1546 8 18.6622 8H17.0209C16.5989 8 16.4113 8.225 16.3058 8.47368C16.3058 8.47368 15.4734 10.5342 14.2893 11.8605C13.9024 12.2513 13.7383 12.3697 13.5273 12.3697C13.4217 12.3697 13.2693 12.2513 13.2693 11.8961V8.60395C13.2693 8.17763 13.1521 8 12.8004 8H10.2212C9.96325 8 9.79912 8.20132 9.79912 8.37895C9.79912 8.78158 10.3853 8.87632 10.4556 9.98947V12.4289C10.4556 12.9618 10.3619 13.0566 10.1508 13.0566C9.59981 13.0566 8.23986 10.9961 7.44265 8.62763C7.27852 8.18947 7.12611 8 6.70406 8H5.06274C4.59379 8 4.5 8.225 4.5 8.47368C4.5 8.91184 5.05101 11.0908 7.09094 13.9684C8.45089 15.9342 10.3619 17 12.097 17C13.1404 17 13.2693 16.7632 13.2693 16.3605V14.8684C13.2693 14.3947 13.3631 14.3 13.7031 14.3C13.9493 14.3 14.3596 14.4184 15.3327 15.3658C16.4465 16.4908 16.634 17 17.2554 17H18.8967C19.3657 17 19.6001 16.7632 19.4595 16.3013C19.307 15.8395 18.7795 15.1645 18.0761 14.3592C17.6892 13.8974 17.1147 13.4118 16.9506 13.1632C16.7044 12.8434 16.7747 12.7013 16.9506 12.4289C16.9506 12.4171 18.9553 9.575 19.1546 8.60395Z" fill="white"/>
</svg>
