<svg width="24" height="24" viewBox="0 0 24 24" fill="none" xmlns="http://www.w3.org/2000/svg">
<rect width="24" height="24" rx="12" fill="white" fill-opacity="0.08"/>
<path d="M15.3325 6.6665H8.66585C6.66585 6.6665 5.33252 7.99984 5.33252 9.99984V13.9998C5.33252 15.9998 6.66585 17.3332 8.66585 17.3332H15.3325C17.3325 17.3332 18.6659 15.9998 18.6659 13.9998V9.99984C18.6659 7.99984 17.3325 6.6665 15.3325 6.6665ZM13.2592 12.6865L11.6125 13.6732C10.9458 14.0732 10.3992 13.7665 10.3992 12.9865V11.0065C10.3992 10.2265 10.9458 9.91984 11.6125 10.3198L13.2592 11.3065C13.8925 11.6932 13.8925 12.3065 13.2592 12.6865Z" fill="white"/>
</svg>
