<svg width="31" height="31" viewBox="0 0 31 31" fill="none" xmlns="http://www.w3.org/2000/svg">
<g clip-path="url(#clip0_58625_987)">
<path d="M15.1261 30.2521C23.4799 30.2521 30.2521 23.4799 30.2521 15.1261C30.2521 6.77216 23.4799 0 15.1261 0C6.77216 0 0 6.77216 0 15.1261C0 23.4799 6.77216 30.2521 15.1261 30.2521Z" fill="#FCFCFC"/>
<path d="M6.24801 14.028L4.60388 11.0452L6.24801 8.10913L7.89214 11.0452L6.24801 14.028Z" fill="#A2001D"/>
<path d="M2.95944 14.028L1.31531 11.0452L2.95944 8.10913L4.60357 11.0452L2.95944 14.028Z" fill="#A2001D"/>
<path d="M6.24801 22.14L4.60388 19.1571L6.24801 16.2211L7.89214 19.1571L6.24801 22.14Z" fill="#A2001D"/>
<path d="M2.95944 22.14L1.31531 19.1571L2.95944 16.2211L4.60357 19.1571L2.95944 22.14Z" fill="#A2001D"/>
<path d="M7.89149 2.93547L7.42601 2.10425C6.59112 2.59892 5.80805 3.17164 5.08655 3.81237L6.24735 5.91826L7.89149 2.93547Z" fill="#A2001D"/>
<path d="M6.24731 24.3331L5.07422 26.4281C5.79507 27.0696 6.57761 27.6432 7.41214 28.1389L7.8915 27.2692L6.24731 24.3331Z" fill="#A2001D"/>
<path d="M9.20691 19.0723V29.0497C11.0249 29.8236 13.0252 30.2524 15.1258 30.2524C21.6295 30.2524 27.1738 26.1475 29.311 20.3875L9.20691 19.0723Z" fill="#6DA544"/>
<path d="M29.311 20.3875C29.9191 18.7489 30.2519 16.9765 30.2519 15.1263C30.2519 6.77246 23.4796 0.000244141 15.1258 0.000244141C13.0254 0.000244141 11.0249 0.428796 9.20691 1.20253V20.3876H29.311V20.3875Z" fill="#A2001D"/>
</g>
<defs>
<clipPath id="clip0_58625_987">
<rect width="30.2521" height="30.2521" fill="white"/>
</clipPath>
</defs>
</svg>
