<svg width="31" height="31" viewBox="0 0 31 31" fill="none" xmlns="http://www.w3.org/2000/svg">
<g clip-path="url(#clip0_58625_487)">
<path d="M15.1261 30.2521C23.4799 30.2521 30.2521 23.4799 30.2521 15.1261C30.2521 6.77216 23.4799 0 15.1261 0C6.77216 0 0 6.77216 0 15.1261C0 23.4799 6.77216 30.2521 15.1261 30.2521Z" fill="#F0F0F0"/>
<path d="M30.2531 15.1275C30.2531 9.13057 26.7632 3.94896 21.7036 1.50232V28.7525C26.7632 26.306 30.2531 21.1244 30.2531 15.1275Z" fill="#D80027"/>
<path d="M0.000549316 15.1266C0.000549316 21.1235 3.49047 26.3051 8.55008 28.7518V1.50146C3.49047 3.9481 0.000549316 9.12972 0.000549316 15.1266Z" fill="#D80027"/>
<path d="M17.7574 17.1003L20.388 15.785L19.0727 15.1274V13.8121L16.4421 15.1274L17.7574 12.4967H16.4421L15.1267 10.5238L13.8114 12.4967H12.4961L13.8114 15.1274L11.1808 13.8121V15.1274L9.86554 15.785L12.4961 17.1003L11.8385 18.4156H14.4691V20.3886H15.7844V18.4156H18.415L17.7574 17.1003Z" fill="#D80027"/>
</g>
<defs>
<clipPath id="clip0_58625_487">
<rect width="30.2521" height="30.2521" fill="white"/>
</clipPath>
</defs>
</svg>
