<svg width="31" height="31" viewBox="0 0 31 31" fill="none" xmlns="http://www.w3.org/2000/svg">
<g clip-path="url(#clip0_58625_182)">
<path d="M0.940735 20.3885C3.07794 26.1484 8.62229 30.2533 15.126 30.2533C21.6296 30.2533 27.174 26.1484 29.3112 20.3885L15.126 19.0732L0.940735 20.3885Z" fill="#FFDA44"/>
<path d="M15.126 0.000976562C8.62229 0.000976562 3.07794 4.10581 0.940735 9.86582L15.126 11.1811L29.3112 9.86576C27.174 4.10581 21.6296 0.000976562 15.126 0.000976562Z" fill="black"/>
<path d="M0.94089 9.86438C0.332893 11.503 6.10352e-05 13.2754 6.10352e-05 15.1256C6.10352e-05 16.9758 0.332893 18.7482 0.94089 20.3868H29.3114C29.9194 18.7482 30.2522 16.9758 30.2522 15.1256C30.2522 13.2754 29.9194 11.503 29.3113 9.86438H0.94089Z" fill="#D80027"/>
</g>
<defs>
<clipPath id="clip0_58625_182">
<rect width="30.2521" height="30.2521" fill="white"/>
</clipPath>
</defs>
</svg>
