<svg width="31" height="31" viewBox="0 0 31 31" fill="none" xmlns="http://www.w3.org/2000/svg">
<g clip-path="url(#clip0_58625_1111)">
<path d="M15.1261 30.2521C23.4799 30.2521 30.2521 23.4799 30.2521 15.1261C30.2521 6.77216 23.4799 0 15.1261 0C6.77216 0 0 6.77216 0 15.1261C0 23.4799 6.77216 30.2521 15.1261 30.2521Z" fill="#F0F0F0"/>
<path d="M30.252 15.126C30.252 8.62235 26.1472 3.078 20.3871 0.940796V29.3113C26.1472 27.174 30.252 21.6297 30.252 15.126Z" fill="#D80027"/>
<path d="M0.000549316 15.127C0.000549316 21.6307 4.10544 27.175 9.86539 29.3122V0.941772C4.10544 3.07898 0.000549316 8.62332 0.000549316 15.127Z" fill="#0052B4"/>
</g>
<defs>
<clipPath id="clip0_58625_1111">
<rect width="30.2521" height="30.2521" fill="white"/>
</clipPath>
</defs>
</svg>
