<svg width="31" height="31" viewBox="0 0 31 31" fill="none" xmlns="http://www.w3.org/2000/svg">
<g clip-path="url(#clip0_58625_852)">
<path d="M15.1261 30.2521C23.4799 30.2521 30.2521 23.4799 30.2521 15.1261C30.2521 6.77216 23.4799 0 15.1261 0C6.77216 0 0 6.77216 0 15.1261C0 23.4799 6.77216 30.2521 15.1261 30.2521Z" fill="#F0F0F0"/>
<path d="M3.12687 5.91553C1.93871 7.4614 1.04279 9.24314 0.521118 11.1787H8.39009L3.12687 5.91553Z" fill="#0052B4"/>
<path d="M29.7315 11.1789C29.2099 9.24338 28.3139 7.46164 27.1258 5.91577L21.8627 11.1789H29.7315Z" fill="#0052B4"/>
<path d="M0.521118 19.0717C1.04285 21.0072 1.93877 22.7889 3.12688 24.3348L8.38992 19.0717H0.521118Z" fill="#0052B4"/>
<path d="M24.3347 3.12572C22.7888 1.93755 21.0071 1.04163 19.0715 0.519897V8.38882L24.3347 3.12572Z" fill="#0052B4"/>
<path d="M5.91675 27.1231C7.46262 28.3113 9.24436 29.2072 11.1799 29.729V21.8601L5.91675 27.1231Z" fill="#0052B4"/>
<path d="M11.1798 0.519897C9.2443 1.04163 7.46256 1.93755 5.91675 3.12565L11.1798 8.38875V0.519897Z" fill="#0052B4"/>
<path d="M19.0715 29.729C21.0071 29.2072 22.7888 28.3113 24.3346 27.1232L19.0715 21.8601V29.729Z" fill="#0052B4"/>
<path d="M21.8627 19.0717L27.1258 24.3348C28.3139 22.789 29.2099 21.0072 29.7315 19.0717H21.8627Z" fill="#0052B4"/>
<path d="M30.1241 13.1531H17.0991H17.0991V0.12804C16.4532 0.0439601 15.7947 0 15.1261 0C14.4573 0 13.7989 0.0439601 13.1531 0.12804V13.153V13.153H0.12804C0.0439601 13.7989 0 14.4574 0 15.1261C0 15.7948 0.0439601 16.4532 0.12804 17.099H13.153H13.153V30.1241C13.7989 30.2081 14.4573 30.2521 15.1261 30.2521C15.7947 30.2521 16.4532 30.2082 17.099 30.1241V17.0991V17.0991H30.1241C30.2081 16.4532 30.2521 15.7948 30.2521 15.1261C30.2521 14.4574 30.2081 13.7989 30.1241 13.1531Z" fill="#D80027"/>
<path d="M19.072 19.0731L25.8218 25.8228C26.1322 25.5125 26.4284 25.1881 26.7109 24.8517L20.9322 19.073H19.072V19.0731Z" fill="#D80027"/>
<path d="M11.1801 19.073H11.18L4.4303 25.8227C4.74062 26.1331 5.06506 26.4293 5.40138 26.7118L11.1801 20.933V19.073Z" fill="#D80027"/>
<path d="M11.1799 11.1795V11.1794L4.43014 4.42957C4.11971 4.73989 3.82357 5.06433 3.54102 5.40065L9.31982 11.1794H11.1799V11.1795Z" fill="#D80027"/>
<path d="M19.072 11.1809L25.8218 4.43106C25.5115 4.12062 25.1871 3.82448 24.8508 3.54199L19.072 9.32079V11.1809V11.1809Z" fill="#D80027"/>
</g>
<defs>
<clipPath id="clip0_58625_852">
<rect width="30.2521" height="30.2521" fill="white"/>
</clipPath>
</defs>
</svg>
