<svg width="31" height="31" viewBox="0 0 31 31" fill="none" xmlns="http://www.w3.org/2000/svg">
<g clip-path="url(#clip0_58625_470)">
<path d="M15.1261 30.2521C23.4799 30.2521 30.2521 23.4799 30.2521 15.1261C30.2521 6.77216 23.4799 0 15.1261 0C6.77216 0 0 6.77216 0 15.1261C0 23.4799 6.77216 30.2521 15.1261 30.2521Z" fill="#F0F0F0"/>
<path d="M29.3116 20.3865C29.9197 18.7479 30.2525 16.9756 30.2525 15.1253C30.2525 13.2751 29.9197 11.5028 29.3116 9.86414H0.941195C0.333198 11.5028 0.000366211 13.2751 0.000366211 15.1253C0.000366211 16.9756 0.333198 18.7479 0.941195 20.3865L15.1264 21.7019L29.3116 20.3865Z" fill="#0052B4"/>
<path d="M15.1264 30.2514C21.6301 30.2514 27.1745 26.1466 29.3117 20.3866H0.941223C3.07843 26.1466 8.62277 30.2514 15.1264 30.2514Z" fill="#D80027"/>
</g>
<defs>
<clipPath id="clip0_58625_470">
<rect width="30.2521" height="30.2521" fill="white"/>
</clipPath>
</defs>
</svg>
