<svg width="31" height="31" viewBox="0 0 31 31" fill="none" xmlns="http://www.w3.org/2000/svg">
<g clip-path="url(#clip0_58625_975)">
<path d="M15.1261 30.2521C23.4799 30.2521 30.2521 23.4799 30.2521 15.1261C30.2521 6.77216 23.4799 0 15.1261 0C6.77216 0 0 6.77216 0 15.1261C0 23.4799 6.77216 30.2521 15.1261 30.2521Z" fill="#F0F0F0"/>
<path d="M29.3118 9.86462H0.941317C0.333261 11.5033 0.000488281 13.2756 0.000488281 15.1258C0.000488281 16.9761 0.333261 18.7484 0.941317 20.387H29.3118C29.9198 18.7484 30.2526 16.9761 30.2526 15.1258C30.2526 13.2756 29.9198 11.5033 29.3118 9.86462Z" fill="#0052B4"/>
<path d="M15.1277 -0.000732422C10.5431 -0.000732422 6.43529 2.03916 3.66138 5.26048H26.5939C23.8201 2.03916 19.7122 -0.000732422 15.1277 -0.000732422Z" fill="#D80027"/>
<path d="M26.5928 24.991H3.66016C6.43407 28.2123 10.5419 30.2522 15.1265 30.2522C19.711 30.2522 23.8189 28.2123 26.5928 24.991Z" fill="#D80027"/>
</g>
<defs>
<clipPath id="clip0_58625_975">
<rect width="30.2521" height="30.2521" fill="white"/>
</clipPath>
</defs>
</svg>
