<svg width="31" height="31" viewBox="0 0 31 31" fill="none" xmlns="http://www.w3.org/2000/svg">
<g clip-path="url(#clip0_58625_644)">
<path d="M15.1261 30.2521C23.4799 30.2521 30.2521 23.4799 30.2521 15.1261C30.2521 6.77216 23.4799 0 15.1261 0C6.77216 0 0 6.77216 0 15.1261C0 23.4799 6.77216 30.2521 15.1261 30.2521Z" fill="#D80027"/>
<path d="M14.5068 12.3593L15.7479 14.0695L17.7579 13.4178L16.5148 15.1266L17.7557 16.8367L15.7465 16.1825L14.5035 17.8913L14.5048 15.7783L12.4955 15.1241L14.5055 14.4724L14.5068 12.3593Z" fill="#F0F0F0"/>
<path d="M11.1199 19.3998C8.75909 19.3998 6.84517 17.4859 6.84517 15.125C6.84517 12.7642 8.75909 10.8503 11.1199 10.8503C11.856 10.8503 12.5486 11.0365 13.1533 11.3641C12.2047 10.4363 10.9073 9.86377 9.47581 9.86377C6.57007 9.86377 4.2146 12.2193 4.2146 15.125C4.2146 18.0307 6.57013 20.3862 9.47581 20.3862C10.9075 20.3862 12.2048 19.8136 13.1533 18.8859C12.5486 19.2136 11.856 19.3998 11.1199 19.3998Z" fill="#F0F0F0"/>
</g>
<defs>
<clipPath id="clip0_58625_644">
<rect width="30.2521" height="30.2521" fill="white"/>
</clipPath>
</defs>
</svg>
