<svg width="31" height="31" viewBox="0 0 31 31" fill="none" xmlns="http://www.w3.org/2000/svg">
<g clip-path="url(#clip0_58625_4702)">
<path d="M15.1261 30.2521C23.4799 30.2521 30.2521 23.4799 30.2521 15.1261C30.2521 6.77216 23.4799 0 15.1261 0C6.77216 0 0 6.77216 0 15.1261C0 23.4799 6.77216 30.2521 15.1261 30.2521Z" fill="#F0F0F0"/>
<path d="M14.468 15.126H30.2517C30.2517 13.7608 30.0697 12.4382 29.7306 11.1801H14.468V15.126Z" fill="#D80027"/>
<path d="M14.468 7.23342H28.0316C27.1056 5.72247 25.9217 4.38695 24.5413 3.28748H14.468V7.23342Z" fill="#D80027"/>
<path d="M15.1257 30.2521C18.6856 30.2521 21.9576 29.0217 24.5414 26.9639H5.70996C8.2938 29.0217 11.5658 30.2521 15.1257 30.2521Z" fill="#D80027"/>
<path d="M2.2198 23.0166H28.0317C28.7751 21.8036 29.3516 20.4778 29.7307 19.0707H0.520782C0.899938 20.4778 1.47644 21.8036 2.2198 23.0166Z" fill="#D80027"/>
<path d="M7.00667 2.36215H8.38509L7.10292 3.29364L7.59269 4.80087L6.31058 3.86937L5.02847 4.80087L5.45152 3.49879C4.32262 4.43914 3.33317 5.54086 2.51778 6.76844H2.95945L2.14329 7.36136C2.01614 7.57348 1.89418 7.78897 1.77731 8.00765L2.16704 9.20716L1.43993 8.67887C1.25918 9.0618 1.09386 9.45337 0.94526 9.85309L1.37464 11.1747H2.95945L1.67728 12.1062L2.16704 13.6134L0.884933 12.682L0.116931 13.24C0.0400604 13.8579 0 14.4873 0 15.1261H15.1261C15.1261 6.77222 15.1261 5.78737 15.1261 0C12.1379 0 9.35245 0.866794 7.00667 2.36215ZM7.59269 13.6134L6.31058 12.682L5.02847 13.6134L5.51823 12.1062L4.23606 11.1747H5.82087L6.31058 9.6675L6.80028 11.1747H8.38509L7.10292 12.1062L7.59269 13.6134ZM7.10292 7.69993L7.59269 9.20716L6.31058 8.27566L5.02847 9.20716L5.51823 7.69993L4.23606 6.76844H5.82087L6.31058 5.26121L6.80028 6.76844H8.38509L7.10292 7.69993ZM13.0183 13.6134L11.7362 12.682L10.4541 13.6134L10.9439 12.1062L9.66171 11.1747H11.2465L11.7362 9.6675L12.2259 11.1747H13.8107L12.5286 12.1062L13.0183 13.6134ZM12.5286 7.69993L13.0183 9.20716L11.7362 8.27566L10.4541 9.20716L10.9439 7.69993L9.66171 6.76844H11.2465L11.7362 5.26121L12.2259 6.76844H13.8107L12.5286 7.69993ZM12.5286 3.29364L13.0183 4.80087L11.7362 3.86937L10.4541 4.80087L10.9439 3.29364L9.66171 2.36215H11.2465L11.7362 0.854917L12.2259 2.36215H13.8107L12.5286 3.29364Z" fill="#0052B4"/>
</g>
<defs>
<clipPath id="clip0_58625_4702">
<rect width="30.2521" height="30.2521" fill="white"/>
</clipPath>
</defs>
</svg>
